<svg xmlns="http://www.w3.org/2000/svg" xmlns:xlink="http://www.w3.org/1999/xlink" width="118" height="118" viewBox="0 0 118 118">
  <defs>
    <filter id="Ellipse_87" x="0" y="0" width="118" height="118" filterUnits="userSpaceOnUse">
      <feOffset input="SourceAlpha"/>
      <feGaussianBlur stdDeviation="3" result="blur"/>
      <feFlood flood-opacity="0.302"/>
      <feComposite operator="in" in2="blur"/>
      <feComposite in="SourceGraphic"/>
    </filter>
  </defs>
  <g id="Group_1717" data-name="Group 1717" transform="translate(-320 -841)">
    <g transform="matrix(1, 0, 0, 1, 320, 841)" filter="url(#Ellipse_87)">
      <circle id="Ellipse_87-2" data-name="Ellipse 87" cx="50" cy="50" r="50" transform="translate(9 9)" fill="#185d92"/>
    </g>
    <g id="Group_1325" data-name="Group 1325" transform="translate(-1594.925 -2771.208)">
      <g id="Group_1324" data-name="Group 1324" transform="translate(1950.925 3649.208)">
        <path id="Path_355" data-name="Path 355" d="M1994.5,3685.932l0,.007h-3.085v6.48h-10.683a.8.8,0,0,0-.474.16l-5.4,3.9v-3.232a.842.842,0,0,0-.837-.831h-3.38v-6.48h-3.086a8.263,8.263,0,0,1-8.268-8.2c0-.015,0-.03,0-.045a.582.582,0,0,0,0-.083,10.624,10.624,0,0,1,9.353-10.538.822.822,0,0,0,.7-.592,12.3,12.3,0,0,1,24.125,3.351v.147a.824.824,0,0,0,.8.842.8.8,0,0,0,.181-.016,7.009,7.009,0,0,1,8.306,6.9.634.634,0,0,0,.021.166A8.264,8.264,0,0,1,1994.5,3685.932Z" transform="translate(-1957.638 -3655.892)" fill="#fff"/>
        <path id="Path_356" data-name="Path 356" d="M2002.629,3676.395a7.011,7.011,0,0,0-8.186-5.594.8.8,0,0,1-.181.016.824.824,0,0,1-.8-.842v-.147a12.3,12.3,0,0,0-24.125-3.351.822.822,0,0,1-.7.592,10.624,10.624,0,0,0-9.353,10.538.582.582,0,0,1,0,.083c0,.016,0,.03,0,.045a8.263,8.263,0,0,0,8.268,8.2h1.393l-3.547-12.2,31.725-.395-3.757,12.6h1.133l0-.007a8.264,8.264,0,0,0,8.266-8.064.634.634,0,0,1-.021-.166A7.026,7.026,0,0,0,2002.629,3676.395Z" transform="translate(-1957.638 -3655.892)" fill="none"/>
        <path id="Path_357" data-name="Path 357" d="M1997.677,3670.812a8.583,8.583,0,0,0-2.521-5.913h0a8.543,8.543,0,0,0-6.093-2.524c-.225,0-.456,0-.692.015a13.956,13.956,0,0,0-13.92-13.181,13.8,13.8,0,0,0-8.478,2.877,14.072,14.072,0,0,0-4.778,6.742,12.246,12.246,0,0,0-10.27,12.1V3671a9.908,9.908,0,0,0,9.915,9.9h1.44v5.665a.82.82,0,0,0,.826.815h3.392v4.024a.809.809,0,0,0,1.292.663l6.5-4.687h11.235a.821.821,0,0,0,.828-.815h0V3680.9h1.439a9.909,9.909,0,0,0,9.914-9.895A.766.766,0,0,0,1997.677,3670.812Z" transform="translate(-1950.925 -3649.208)" fill="#fff"/>
        <path id="Path_326" data-name="Path 326" d="M2043.306,3783.288c.272,0,.482-.073.543-.308l.469-1.628h2.827l.469,1.628c.062.235.272.314.543.314.432,0,1.012-.288,1.012-.67a.524.524,0,0,0-.024-.128l-2.382-7.765c-.111-.37-.567-.543-1.036-.543a1,1,0,0,0-1.022.543l-2.386,7.768a.735.735,0,0,0-.024.128C2042.294,3783.011,2042.874,3783.288,2043.306,3783.288Zm2.419-6.959,1.073,3.789h-2.148Z" transform="translate(-2024.29 -3749.555)" fill="#185d92"/>
        <path id="Path_358" data-name="Path 358" d="M2031.793,3750.013H2009.38a.837.837,0,0,0-.828.832v9.352h1.646v-8.538h20.777v10.185h1.646v-11A.836.836,0,0,0,2031.793,3750.013Z" transform="translate(-1997.197 -3730.15)" fill="#185d92"/>
        <path id="Path_359" data-name="Path 359" d="M2009.38,3750.013h22.413a.836.836,0,0,1,.828.832v9.352h-1.646v-8.538H2010.2v10.185h-1.646v-11A.837.837,0,0,1,2009.38,3750.013Z" transform="translate(-1997.197 -3730.15)" fill="#185d92"/>
      </g>
      <path id="Path_327" data-name="Path 327" d="M2088.691,3783.634c.4,0,.766-.173.766-.511V3775.1c0-.347-.377-.493-.766-.493s-.767.148-.767.493v8.022C2087.918,3783.461,2088.283,3783.634,2088.691,3783.634Z" transform="translate(-110.003 -100.694)" fill="#185d92"/>
    </g>
  </g>
</svg>
