<svg xmlns="http://www.w3.org/2000/svg" viewBox="0 0 81 81" width="81" height="81">
	<style>
		tspan { white-space:pre }
		.shp0 { fill: #ffffff } 
		.shp1 { fill: #2fda61 } 
	</style>
	<g id="alfa home – 2">
		<g id="Group 1541">
			<g id="Group 683">
				<g id="Group 682">
					<g id="Group 421">
						<path id="Ellipse 71" class="shp0" d="M37.5 64C22.85 64 11 52.15 11 37.5C11 22.85 22.85 11 37.5 11C52.15 11 64 22.85 64 37.5C64 52.15 52.15 64 37.5 64Z" />
						<g id="book">
							<path id="Path 35" class="shp1" d="M51.08 46.81L51.08 24L50.21 24.07C46.72 24.36 43.3 25.2 40.07 26.55L38.54 27.18L38.54 49.9L39.65 49.43C43 48.04 46.54 47.18 50.15 46.88L51.08 46.81Z" />
							<path id="Path 36" class="shp1" d="M53.93 27.37L52.22 27.37L52.22 47.33C52.22 47.63 52 47.88 51.7 47.9L50.24 48.02C49.82 48.06 49.4 48.1 48.98 48.15C48.84 48.17 48.71 48.19 48.57 48.21C48.29 48.24 48.01 48.28 47.73 48.33C47.56 48.35 47.4 48.38 47.24 48.41C46.99 48.46 46.73 48.5 46.48 48.55C46.31 48.58 46.14 48.62 45.97 48.66C45.73 48.71 45.49 48.76 45.25 48.82C45.07 48.86 44.9 48.91 44.72 48.95C44.49 49.01 44.26 49.07 44.03 49.13C43.85 49.18 43.67 49.23 43.5 49.29C43.27 49.35 43.04 49.42 42.82 49.49C42.64 49.55 42.46 49.61 42.29 49.67C42.06 49.74 41.84 49.82 41.62 49.9C41.44 49.96 41.27 50.03 41.1 50.09C41.02 50.12 40.94 50.15 40.86 50.18L53.93 50.18L53.93 27.37Z" />
							<path id="Path 37" class="shp1" d="M25.72 24.07L24.85 24L24.85 46.81L25.86 46.89C29.47 47.19 33.01 48.06 36.35 49.46L37.4 49.9L37.4 27.18L35.87 26.55C32.64 25.2 29.21 24.36 25.72 24.07L25.72 24.07Z" />
							<path id="Path 38" class="shp1" d="M22 27.37L22 50.18L35.08 50.18C35.01 50.15 34.94 50.12 34.87 50.1C34.71 50.04 34.54 49.98 34.38 49.92C34.14 49.83 33.91 49.75 33.68 49.67C33.51 49.62 33.34 49.56 33.17 49.51C32.94 49.43 32.71 49.36 32.48 49.29C32.3 49.24 32.13 49.19 31.96 49.14C31.73 49.08 31.49 49.02 31.26 48.96C31.09 48.91 30.92 48.87 30.74 48.83C30.5 48.77 30.26 48.72 30.02 48.67C29.85 48.63 29.68 48.59 29.51 48.56C29.26 48.51 29.01 48.46 28.76 48.42C28.6 48.39 28.43 48.36 28.27 48.33C27.99 48.29 27.72 48.25 27.44 48.22C27.3 48.2 27.16 48.18 27.02 48.16C26.6 48.11 26.19 48.07 25.77 48.03L24.23 47.9C23.94 47.88 23.71 47.63 23.71 47.33L23.71 27.37L22 27.37Z" />
						</g>
					</g>
				</g>
			</g>
		</g>
	</g>
</svg>