<svg xmlns="http://www.w3.org/2000/svg" viewBox="0 0 82 80" width="82" height="80">
	<style>
		tspan { white-space:pre }
		.shp0 { fill: #ffffff } 
		.shp1 { fill: #185d92 } 
	</style>
	<g id="alfa home – 2">
		<g id="Group 1532">
			<g id="Group 1498">
				<g id="Group 684">
					<g id="Group 402">
						<path id="Ellipse 72" class="shp0" d="M44.5 69C29.85 69 18 57.38 18 43C18 28.62 29.85 17 44.5 17C59.15 17 71 28.62 71 43C71 57.38 59.15 69 44.5 69Z" />
						<path id="Path 18" class="shp1" d="M57.26 36.65C57.46 36.31 57.54 35.99 57.39 35.77C51.62 26.79 37.6 26.81 31.83 35.77C31.68 35.98 31.76 36.31 31.95 36.64C31.08 38.18 28.65 43.19 30.24 49.09C30.09 49.72 30.07 50.43 30.2 51.17C30.5 52.81 31.5 54.08 32.62 54.45L31.97 50.89L32.74 55.06C32.83 55.57 33.34 55.93 33.86 55.83C34 56.58 35.22 56.87 36.27 56.75L36.27 56.75C36.31 56.74 36.35 56.74 36.39 56.73C36.4 56.73 36.4 56.73 36.41 56.73C36.7 56.69 36.98 56.61 37.21 56.49C37.22 56.49 37.24 56.48 37.25 56.47C37.28 56.46 37.31 56.44 37.33 56.43C37.35 56.42 37.37 56.4 37.4 56.39C37.41 56.38 37.43 56.37 37.44 56.36C37.47 56.34 37.49 56.32 37.51 56.3C37.52 56.29 37.53 56.29 37.54 56.28C37.56 56.26 37.59 56.24 37.61 56.21C37.62 56.21 37.62 56.2 37.63 56.19C37.65 56.17 37.67 56.15 37.69 56.12C37.69 56.11 37.7 56.11 37.7 56.1C37.72 56.07 37.73 56.05 37.75 56.02C37.75 56.01 37.76 56 37.76 56C37.77 55.97 37.78 55.94 37.79 55.92C37.8 55.91 37.8 55.89 37.8 55.88C37.81 55.86 37.82 55.83 37.82 55.81C37.82 55.79 37.82 55.77 37.82 55.75C37.83 55.73 37.83 55.71 37.83 55.69C37.83 55.65 37.82 55.6 37.81 55.56C37.47 53.69 37.13 51.82 36.78 49.95C36.44 48.1 36.1 46.23 35.76 44.36C35.75 44.31 35.73 44.26 35.71 44.21C35.71 44.2 35.7 44.19 35.69 44.18C35.68 44.14 35.66 44.11 35.64 44.08C35.63 44.07 35.62 44.06 35.62 44.05C35.59 44.02 35.57 43.99 35.54 43.97C35.53 43.96 35.53 43.95 35.52 43.94C35.48 43.91 35.45 43.89 35.42 43.87C35.4 43.86 35.38 43.85 35.36 43.84C35.33 43.82 35.3 43.81 35.27 43.8C35.24 43.78 35.21 43.77 35.18 43.76C35.16 43.76 35.15 43.75 35.13 43.75C35.1 43.74 35.06 43.73 35.02 43.72L35 43.72C34.52 43.63 33.89 43.74 33.33 43.98C33.31 43.99 33.29 44 33.27 44.01C33.23 44.02 33.19 44.04 33.16 44.06C32.43 44.4 31.86 44.94 31.97 45.51C31.44 45.61 31.08 46.12 31.18 46.65L31.3 47.25C31.15 47.38 31.01 47.52 30.88 47.68C30.61 44.35 31.33 40.33 33.09 37.76C33.13 37.78 33.17 37.81 33.22 37.83L33.22 37.83C33.44 37.93 33.65 37.97 33.82 37.91L33.82 37.91C33.85 37.9 33.87 37.89 33.89 37.88C33.9 37.88 33.91 37.87 33.91 37.87C33.93 37.86 33.95 37.85 33.96 37.84C33.98 37.82 34.01 37.79 34.03 37.77C39.89 30.87 49.55 30.86 55.19 37.77C55.21 37.79 55.23 37.82 55.25 37.84C55.27 37.85 55.29 37.86 55.3 37.87C55.31 37.87 55.32 37.88 55.33 37.88C55.35 37.89 55.37 37.9 55.39 37.91L55.4 37.91C55.57 37.97 55.78 37.93 56 37.83L56 37.83C56.04 37.81 56.09 37.78 56.13 37.76C57.89 40.33 58.61 44.35 58.33 47.68C58.21 47.52 58.07 47.38 57.92 47.25L58.03 46.65C58.13 46.12 57.78 45.61 57.25 45.51C57.36 44.94 56.79 44.4 56.06 44.06C56.02 44.04 55.99 44.02 55.95 44.01C55.93 44 55.91 43.99 55.89 43.98C55.32 43.74 54.69 43.63 54.22 43.72L54.2 43.72C54.16 43.73 54.12 43.74 54.08 43.75C54.07 43.75 54.05 43.76 54.04 43.76C54.01 43.77 53.97 43.78 53.94 43.8C53.91 43.81 53.89 43.82 53.86 43.84C53.84 43.85 53.82 43.86 53.8 43.87C53.77 43.89 53.73 43.91 53.7 43.94C53.69 43.95 53.68 43.96 53.67 43.97C53.65 43.99 53.62 44.02 53.6 44.05C53.59 44.06 53.58 44.07 53.58 44.08C53.56 44.11 53.54 44.14 53.52 44.18C53.52 44.19 53.51 44.2 53.51 44.21C53.49 44.26 53.47 44.31 53.46 44.36C53.12 46.23 52.78 48.1 52.44 49.95C52.08 51.82 51.74 53.69 51.4 55.56C51.39 55.6 51.39 55.65 51.39 55.69C51.39 55.71 51.39 55.73 51.39 55.75C51.39 55.77 51.39 55.79 51.4 55.81C51.4 55.83 51.41 55.86 51.41 55.88C51.42 55.89 51.42 55.91 51.42 55.92C51.43 55.94 51.44 55.97 51.46 56C51.46 56 51.46 56.01 51.47 56.02C51.48 56.05 51.5 56.07 51.51 56.1C51.52 56.11 51.52 56.11 51.53 56.12C51.55 56.15 51.57 56.17 51.59 56.19C51.6 56.2 51.6 56.21 51.61 56.21C51.63 56.24 51.65 56.26 51.68 56.28C51.69 56.29 51.69 56.29 51.7 56.3C51.73 56.32 51.75 56.34 51.78 56.36C51.79 56.37 51.81 56.38 51.82 56.39C51.84 56.4 51.86 56.42 51.89 56.43C51.91 56.44 51.94 56.46 51.96 56.47C51.98 56.48 51.99 56.49 52.01 56.49C52.24 56.61 52.51 56.69 52.81 56.73C52.81 56.73 52.82 56.73 52.83 56.73C52.86 56.74 52.9 56.74 52.94 56.75L52.94 56.75C53.99 56.87 55.21 56.58 55.35 55.83C55.87 55.93 56.39 55.57 56.48 55.06L57.26 50.84L56.59 54.45C57.72 54.08 58.71 52.81 59 51.17C59.14 50.43 59.12 49.72 58.98 49.1C60.56 43.21 58.14 38.2 57.26 36.65Z" />
					</g>
				</g>
			</g>
		</g>
	</g>
</svg>