<svg xmlns="http://www.w3.org/2000/svg" viewBox="0 0 81 81" width="81" height="81">
	<style>
		tspan { white-space:pre }
		.shp0 { fill: #ffffff } 
		.shp1 { fill: #ec935f } 
	</style>
	<g id="alfa home – 2">
		<g id="Group 1536">
			<g id="Group 1484">
				<path id="Path 204" class="shp0" d="M43.5 17C58.14 17 70 28.86 70 43.5C70 58.14 58.14 70 43.5 70C28.86 70 17 58.14 17 43.5C17 28.86 28.86 17 43.5 17Z" />
				<g id="Group 303">
					<path id="Path 10" class="shp1" d="M51.99 38.37L51.99 44.3C51.99 47.58 48.03 50.35 43.34 50.35C38.65 50.35 34.68 47.58 34.68 44.3L34.68 38.37L31.89 38.37L31.89 44.3C31.89 48.84 36.35 52.55 42.06 53.05L42.06 58.04L35.37 58.04L35.37 60.6L51.31 60.6L51.31 58.04L44.62 58.04L44.62 53.05C50.33 52.55 54.79 48.84 54.79 44.3L54.79 38.37L51.99 38.37Z" />
					<path id="Path 11" class="shp1" d="M49.12 35.3L49.12 31.71C49.12 28.95 46.87 26.69 44.11 26.69L42.57 26.69C39.81 26.69 37.55 28.95 37.55 31.71L37.55 32.06L41.39 32.06L41.39 33.17L37.55 33.17L37.55 37.98L41.39 37.98L41.39 39.08L37.55 39.08L37.55 42.81C37.55 45.57 39.81 47.83 42.57 47.83L44.11 47.83C46.87 47.83 49.12 45.57 49.12 42.81L49.12 42.31L45.29 42.31L45.29 41.21L49.12 41.21L49.12 36.4L45.29 36.4L45.29 35.3L49.12 35.3Z" />
				</g>
			</g>
		</g>
	</g>
</svg>