<svg xmlns="http://www.w3.org/2000/svg" xmlns:xlink="http://www.w3.org/1999/xlink" width="118" height="118" viewBox="0 0 118 118">
  <defs>
    <filter id="Ellipse_87" x="0" y="0" width="118" height="118" filterUnits="userSpaceOnUse">
      <feOffset input="SourceAlpha"/>
      <feGaussianBlur stdDeviation="3" result="blur"/>
      <feFlood flood-opacity="0.302"/>
      <feComposite operator="in" in2="blur"/>
      <feComposite in="SourceGraphic"/>
    </filter>
    <clipPath id="clip-path">
      <rect id="Rectangle_1220" data-name="Rectangle 1220" width="47.02" height="44.119" fill="#fff"/>
    </clipPath>
  </defs>
  <g id="Group_1718" data-name="Group 1718" transform="translate(-1291 -849)">
    <g transform="matrix(1, 0, 0, 1, 1291, 849)" filter="url(#Ellipse_87)">
      <circle id="Ellipse_87-2" data-name="Ellipse 87" cx="50" cy="50" r="50" transform="translate(9 9)" fill="#2fda61"/>
    </g>
    <g id="Group_1661" data-name="Group 1661" transform="translate(1326 886)">
      <g id="Group_1660" data-name="Group 1660" clip-path="url(#clip-path)">
        <path id="Path_524" data-name="Path 524" d="M134.659,181a28.023,28.023,0,0,1,3.066.775,12.168,12.168,0,0,1,8.136,9.553c.033.165.067.33.089.5a1.385,1.385,0,0,1-1.38,1.63c-.383.013-.766,0-1.149,0H123.064c-1.364,0-1.886-.621-1.659-1.97a12.423,12.423,0,0,1,9.988-10.232c.412-.076.831-.12,1.241-.206a8.388,8.388,0,0,1-7.212-9.17A8.272,8.272,0,1,1,134.659,181m4.5-8.187a5.513,5.513,0,1,0-5.56,5.48,5.531,5.531,0,0,0,5.56-5.48m3.67,17.864a9.566,9.566,0,0,0-18.352,0Z" transform="translate(-110.162 -149.339)" fill="#fff"/>
        <path id="Path_525" data-name="Path 525" d="M395.534,184.854q-1.481-1.466-2.964-2.932a1.4,1.4,0,0,1-.458-1.489,1.358,1.358,0,0,1,2.147-.692,3.405,3.405,0,0,1,.338.31q2.551,2.548,5.1,5.1a1.441,1.441,0,0,1,.01,2.37c-1.741,1.744-3.479,3.493-5.231,5.226a1.381,1.381,0,1,1-1.949-1.947q1.314-1.316,2.631-2.63a4.7,4.7,0,0,1,.394-.318l-.049-.106c-.125-.009-.25-.026-.375-.027-1.455,0-2.909,0-4.364,0a1.389,1.389,0,1,1-.016-2.757c1.575,0,3.149,0,4.724,0l.062-.106" transform="translate(-353.305 -162.9)" fill="#fff"/>
        <path id="Path_526" data-name="Path 526" d="M4.68,184.931c1.722,0,3.328-.009,4.934,0a1.379,1.379,0,1,1-.024,2.754q-2.159,0-4.318,0H4.7c.177.193.283.316.4.43.886.89,1.781,1.771,2.659,2.668a1.377,1.377,0,1,1-1.937,1.949q-2.708-2.684-5.393-5.391a1.482,1.482,0,0,1,.021-2.092q2.656-2.671,5.327-5.327a1.382,1.382,0,1,1,1.956,1.935c-.87.884-1.752,1.756-2.628,2.634-.116.116-.228.237-.418.437" transform="translate(0 -162.87)" fill="#fff"/>
        <path id="Path_527" data-name="Path 527" d="M185.337,4.774c-1,1.008-1.985,1.993-2.964,2.981a1.4,1.4,0,0,1-1.448.464,1.36,1.36,0,0,1-.725-2.164,3.483,3.483,0,0,1,.311-.337q2.548-2.55,5.1-5.1a1.442,1.442,0,0,1,2.37,0q2.583,2.579,5.165,5.16a1.46,1.46,0,0,1,.516,1.395,1.371,1.371,0,0,1-2.332.68c-.789-.746-1.545-1.528-2.311-2.3-.248-.249-.479-.515-.718-.772l-.125.044v.469c0,1.393,0,2.785,0,4.178a1.388,1.388,0,1,1-2.756,0c-.006-1.53-.008-3.06-.012-4.591,0-.012-.014-.023-.068-.105" transform="translate(-163.313 0)" fill="#fff"/>
      </g>
    </g>
  </g>
</svg>
