<svg xmlns="http://www.w3.org/2000/svg" viewBox="0 0 81 81" width="81" height="81">
	<style>
		tspan { white-space:pre }
		.shp0 { fill: #ffffff } 
		.shp1 { fill: #67b8fc } 
	</style>
	<g id="alfa home – 2">
		<g id="Group 1539">
			<path id="Ellipse 72" class="shp0" d="M43.5 70C28.85 70 17 58.15 17 43.5C17 28.85 28.85 17 43.5 17C58.15 17 70 28.85 70 43.5C70 58.15 58.15 70 43.5 70Z" />
			<g id="contract">
				<g id="Group 404">
					<path id="Path 39" fill-rule="evenodd" class="shp1" d="M57.53 41.17L51.09 47.62L51.09 55.51C51.09 56.98 49.89 58.17 48.42 58.17L30.66 58.17C29.19 58.17 28 56.98 28 55.51L28 30.53C28 29.06 29.19 27.86 30.66 27.86L45.91 27.86C46.62 27.86 47.29 28.14 47.8 28.64L50.31 31.16C50.81 31.66 51.09 32.33 51.09 33.04L51.09 40.08C51.4 39.76 53.44 37.72 53.76 37.4C54.8 36.36 56.49 36.36 57.53 37.4C58.57 38.44 58.57 40.13 57.53 41.17ZM45.76 33.19L49.31 33.19C49.31 33 49.33 32.69 49.05 32.41L46.54 29.9C46.25 29.61 45.93 29.64 45.76 29.64L45.76 33.19ZM49.31 55.51L49.31 49.39L49.2 49.5C49.11 49.6 48.99 49.67 48.86 49.71L45.09 50.97C44.77 51.08 44.42 50.99 44.18 50.76C43.94 50.52 43.86 50.17 43.97 49.85L45.22 46.08C45.27 45.95 45.34 45.83 45.44 45.73L46.69 44.48C46.69 44.48 49.31 41.85 49.31 41.85L49.31 34.97L44.87 34.97C44.38 34.97 43.98 34.57 43.98 34.08L43.98 29.64L30.66 29.64C30.17 29.64 29.78 30.04 29.78 30.53L29.78 55.51C29.78 56 30.17 56.4 30.66 56.4L48.42 56.4C48.91 56.4 49.31 56 49.31 55.51ZM46.84 46.84L46.21 48.72L48.1 48.1L48.58 47.62L47.32 46.36L46.84 46.84ZM54.1 42.09L52.85 40.83C52.22 41.46 49.25 44.43 48.58 45.1L49.83 46.36L54.1 42.09ZM56.27 38.66C55.93 38.31 55.36 38.31 55.02 38.66L54.1 39.57L55.36 40.83L56.27 39.91C56.62 39.57 56.62 39 56.27 38.66Z" />
				</g>
				<g id="Group 406">
					<path id="Path 40" class="shp1" d="M44.87 36.74L32.44 36.74C31.95 36.74 31.55 37.14 31.55 37.63C31.55 38.12 31.95 38.52 32.44 38.52L44.87 38.52C45.36 38.52 45.76 38.12 45.76 37.63C45.76 37.14 45.36 36.74 44.87 36.74Z" />
				</g>
				<g id="Group 408">
					<path id="Path 41" class="shp1" d="M41.32 40.3L32.44 40.3C31.95 40.3 31.55 40.69 31.55 41.18C31.55 41.67 31.95 42.07 32.44 42.07L41.32 42.07C41.81 42.07 42.21 41.67 42.21 41.18C42.21 40.69 41.81 40.3 41.32 40.3Z" />
				</g>
				<g id="Group 410">
					<path id="Path 42" class="shp1" d="M41.32 43.85L32.44 43.85C31.95 43.85 31.55 44.25 31.55 44.74C31.55 45.23 31.95 45.62 32.44 45.62L41.32 45.62C41.81 45.62 42.21 45.23 42.21 44.74C42.21 44.25 41.81 43.85 41.32 43.85Z" />
				</g>
				<g id="Group 412">
					<path id="Path 43" class="shp1" d="M41.32 47.4L32.44 47.4C31.95 47.4 31.55 47.8 31.55 48.29C31.55 48.78 31.95 49.18 32.44 49.18L41.32 49.18C41.81 49.18 42.21 48.78 42.21 48.29C42.21 47.8 41.81 47.4 41.32 47.4Z" />
				</g>
				<g id="Group 414">
					<path id="Path 44" class="shp1" d="M44.87 52.85L39.54 52.85C39.05 52.85 38.66 53.24 38.66 53.73C38.66 54.23 39.05 54.62 39.54 54.62L44.87 54.62C45.36 54.62 45.76 54.23 45.76 53.73C45.76 53.24 45.36 52.85 44.87 52.85Z" />
				</g>
			</g>
		</g>
	</g>
</svg>