<svg xmlns="http://www.w3.org/2000/svg" xmlns:xlink="http://www.w3.org/1999/xlink" width="118" height="118" viewBox="0 0 118 118">
  <defs>
    <filter id="Ellipse_87" x="0" y="0" width="118" height="118" filterUnits="userSpaceOnUse">
      <feOffset input="SourceAlpha"/>
      <feGaussianBlur stdDeviation="3" result="blur"/>
      <feFlood flood-opacity="0.302"/>
      <feComposite operator="in" in2="blur"/>
      <feComposite in="SourceGraphic"/>
    </filter>
  </defs>
  <g id="Group_1719" data-name="Group 1719" transform="translate(-1489 -1032)">
    <g transform="matrix(1, 0, 0, 1, 1489, 1032)" filter="url(#Ellipse_87)">
      <circle id="Ellipse_87-2" data-name="Ellipse 87" cx="50" cy="50" r="50" transform="translate(9 9)" fill="#2fda61"/>
    </g>
    <g id="calendar" transform="translate(1522 1065)">
      <path id="Path_506" data-name="Path 506" d="M48.227,5.918H45.093V4.351a2.351,2.351,0,1,0-4.7,0V5.918H36.474V4.351a2.351,2.351,0,1,0-4.7,0V5.918H27.856V4.351a2.351,2.351,0,0,0-4.7,0V5.918H19.237V4.351a2.351,2.351,0,1,0-4.7,0V5.918H10.619V4.351a2.351,2.351,0,0,0-4.7,0V5.918H2.784A.784.784,0,0,0,2,6.7V45.093A3.922,3.922,0,0,0,5.918,49.01H45.093a3.922,3.922,0,0,0,3.918-3.918V6.7A.784.784,0,0,0,48.227,5.918ZM41.959,4.351a.784.784,0,0,1,1.567,0v4.7a.784.784,0,0,1-1.567,0Zm-8.619,0a.784.784,0,0,1,1.567,0v4.7a.784.784,0,0,1-1.567,0Zm-8.619,0a.784.784,0,1,1,1.567,0v4.7a.784.784,0,1,1-1.567,0Zm-8.619,0a.784.784,0,1,1,1.567,0v4.7a.784.784,0,1,1-1.567,0Zm-8.619,0a.784.784,0,1,1,1.567,0v4.7a.784.784,0,1,1-1.567,0ZM5.918,7.485V9.052a2.351,2.351,0,0,0,4.7,0V7.485h3.918V9.052a2.351,2.351,0,1,0,4.7,0V7.485h3.918V9.052a2.351,2.351,0,0,0,4.7,0V7.485h3.918V9.052a2.351,2.351,0,1,0,4.7,0V7.485h3.918V9.052a2.351,2.351,0,1,0,4.7,0V7.485h2.351v7.052H3.567V7.485ZM45.093,47.443H5.918a2.353,2.353,0,0,1-2.351-2.351V16.1H47.443v28.99A2.353,2.353,0,0,1,45.093,47.443Z" fill="#fff"/>
      <path id="Path_507" data-name="Path 507" d="M27.052,22H20.784a.784.784,0,0,0-.784.784v6.268a.784.784,0,0,0,.784.784h6.268a.784.784,0,0,0,.784-.784V22.784A.784.784,0,0,0,27.052,22Zm-.784,6.268h-4.7v-4.7h4.7Z" transform="translate(-3.897 -4.33)" fill="#fff"/>
      <path id="Path_508" data-name="Path 508" d="M13.052,22H6.784A.784.784,0,0,0,6,22.784v6.268a.784.784,0,0,0,.784.784h6.268a.784.784,0,0,0,.784-.784V22.784A.784.784,0,0,0,13.052,22Zm-.784,6.268h-4.7v-4.7h4.7Z" transform="translate(-0.866 -4.33)" fill="#fff"/>
      <path id="Path_509" data-name="Path 509" d="M41.052,22H34.784a.784.784,0,0,0-.784.784v6.268a.784.784,0,0,0,.784.784h6.268a.784.784,0,0,0,.784-.784V22.784A.784.784,0,0,0,41.052,22Zm-.784,6.268h-4.7v-4.7h4.7Z" transform="translate(-6.928 -4.33)" fill="#fff"/>
      <path id="Path_510" data-name="Path 510" d="M55.052,22H48.784a.784.784,0,0,0-.784.784v6.268a.784.784,0,0,0,.784.784h6.268a.784.784,0,0,0,.784-.784V22.784A.784.784,0,0,0,55.052,22Zm-.784,6.268h-4.7v-4.7h4.7Z" transform="translate(-9.959 -4.33)" fill="#fff"/>
      <path id="Path_511" data-name="Path 511" d="M13.052,35H6.784A.784.784,0,0,0,6,35.784v6.268a.784.784,0,0,0,.784.784h6.268a.784.784,0,0,0,.784-.784V35.784A.784.784,0,0,0,13.052,35Zm-.784,6.268h-4.7v-4.7h4.7Z" transform="translate(-0.866 -7.144)" fill="#fff"/>
      <path id="Path_512" data-name="Path 512" d="M27.052,35H20.784a.784.784,0,0,0-.784.784v6.268a.784.784,0,0,0,.784.784h6.268a.784.784,0,0,0,.784-.784V35.784A.784.784,0,0,0,27.052,35Zm-.784,6.268h-4.7v-4.7h4.7Z" transform="translate(-3.897 -7.144)" fill="#fff"/>
      <path id="Path_513" data-name="Path 513" d="M41.052,35H34.784a.784.784,0,0,0-.784.784v6.268a.784.784,0,0,0,.784.784h6.268a.784.784,0,0,0,.784-.784V35.784A.784.784,0,0,0,41.052,35Zm-.784,6.268h-4.7v-4.7h4.7Z" transform="translate(-6.928 -7.144)" fill="#fff"/>
      <path id="Path_514" data-name="Path 514" d="M55.052,35H48.784a.784.784,0,0,0-.784.784v6.268a.784.784,0,0,0,.784.784h6.268a.784.784,0,0,0,.784-.784V35.784A.784.784,0,0,0,55.052,35Zm-.784,6.268h-4.7v-4.7h4.7Z" transform="translate(-9.959 -7.144)" fill="#fff"/>
      <path id="Path_515" data-name="Path 515" d="M55.052,48H48.784a.784.784,0,0,0-.784.784v6.268a.784.784,0,0,0,.784.784h6.268a.784.784,0,0,0,.784-.784V48.784A.784.784,0,0,0,55.052,48Zm-.784,6.268h-4.7v-4.7h4.7Z" transform="translate(-9.959 -9.959)" fill="#fff"/>
      <path id="Path_516" data-name="Path 516" d="M13.052,48H6.784A.784.784,0,0,0,6,48.784v6.268a.784.784,0,0,0,.784.784h6.268a.784.784,0,0,0,.784-.784V48.784A.784.784,0,0,0,13.052,48Zm-.784,6.268h-4.7v-4.7h4.7Z" transform="translate(-0.866 -9.959)" fill="#fff"/>
      <path id="Path_517" data-name="Path 517" d="M27.052,48H20.784a.784.784,0,0,0-.784.784v6.268a.784.784,0,0,0,.784.784h6.268a.784.784,0,0,0,.784-.784V48.784A.784.784,0,0,0,27.052,48Zm-.784,6.268h-4.7v-4.7h4.7Z" transform="translate(-3.897 -9.959)" fill="#fff"/>
      <path id="Path_518" data-name="Path 518" d="M41.052,48H34.784a.784.784,0,0,0-.784.784v6.268a.784.784,0,0,0,.784.784h6.268a.784.784,0,0,0,.784-.784V48.784A.784.784,0,0,0,41.052,48Zm-.784,6.268h-4.7v-4.7h4.7Z" transform="translate(-6.928 -9.959)" fill="#fff"/>
    </g>
  </g>
</svg>
