<svg xmlns="http://www.w3.org/2000/svg" xmlns:xlink="http://www.w3.org/1999/xlink" width="118" height="118" viewBox="0 0 118 118">
  <defs>
    <filter id="Ellipse_87" x="0" y="0" width="118" height="118" filterUnits="userSpaceOnUse">
      <feOffset input="SourceAlpha"/>
      <feGaussianBlur stdDeviation="3" result="blur"/>
      <feFlood flood-opacity="0.302"/>
      <feComposite operator="in" in2="blur"/>
      <feComposite in="SourceGraphic"/>
    </filter>
  </defs>
  <g id="Group_1719" data-name="Group 1719" transform="translate(-709 -1032)">
    <g transform="matrix(1, 0, 0, 1, 709, 1032)" filter="url(#Ellipse_87)">
      <circle id="Ellipse_87-2" data-name="Ellipse 87" cx="50" cy="50" r="50" transform="translate(9 9)" fill="#eb524a"/>
    </g>
    <g id="Group_1651" data-name="Group 1651" transform="translate(-3171 3644)">
      <path id="Path_502" data-name="Path 502" d="M23.476,32.091H1.075C.243,32.091,0,31.85,0,31.015Q0,16.071,0,1.126C0,.227.226,0,1.124,0h44.7c.9,0,1.126.227,1.126,1.125q0,14.92,0,29.84c0,.9-.229,1.125-1.126,1.125H23.476M1.6,30.5H45.361V1.585H1.6Z" transform="translate(3916 -2569)" fill="#fff"/>
      <path id="Path_504" data-name="Path 504" d="M26.005,71.073a3.129,3.129,0,1,1,4.962-.045l1.408,1.163L33.8,71.026a3.151,3.151,0,0,1-.586-2.448,3.073,3.073,0,0,1,1.13-1.886,3.127,3.127,0,0,1,4.445,4.33L40.2,72.188l1.415-1.159a3.131,3.131,0,0,1,4.566-4.239,3.106,3.106,0,0,1,.427,4.232l1.421,1.163,1.413-1.161a3.128,3.128,0,1,1,4.991,0l1.42,1.157,1.4-1.145c-.945-1.739-.746-3.307.57-4.348a3.126,3.126,0,0,1,4.414,4.365c.1.069.2.144.3.21a3.845,3.845,0,0,1,1.921,3.415c.01,1.19-.016,2.381.01,3.571a.976.976,0,0,1-.69,1.1c-.731.228-.942.68-.9,1.445.073,1.5.023,3,.021,4.5,0,.807-.251,1.064-1.039,1.065q-2.079,0-4.157,0c-.822,0-1.063-.248-1.064-1.089q0-2.544,0-5.088a.781.781,0,0,0-1.561,0q0,2.568,0,5.136c0,.772-.259,1.035-1.018,1.036q-2.1,0-4.206,0c-.768,0-1.033-.262-1.034-1.021,0-1.712,0-3.424,0-5.136a.871.871,0,0,0-.765-.767.891.891,0,0,0-.8.784q0,2.568,0,5.136c0,.734-.269,1-1,1q-2.127.005-4.255,0c-.734,0-1-.266-1-1q0-2.544,0-5.088a.857.857,0,0,0-.794-.833.87.87,0,0,0-.768.811q0,2.544,0,5.088c0,.763-.263,1.022-1.032,1.023q-2.128,0-4.255,0c-.7,0-.973-.275-.974-.98,0-1.712,0-3.424,0-5.136a.866.866,0,0,0-.772-.809.89.89,0,0,0-.793.788q0,2.544,0,5.088c0,.8-.253,1.049-1.054,1.05q-2.1,0-4.206,0c-.732,0-1-.271-1-1,0-1.7-.007-3.392.008-5.088,0-.329-.049-.568-.4-.668a1.571,1.571,0,0,1-1.192-1.922c.085-.971.021-1.955.021-2.933a3.969,3.969,0,0,1,2.237-3.668m4.021,13.7c0-1.5-.005-2.95,0-4.4.008-1.638-.18-1.47,1.283-2.2a.594.594,0,0,0,.269-.436c.023-1.058.029-2.117.007-3.175a2.327,2.327,0,0,0-2.276-2.287c-.521-.017-1.042-.011-1.563-.006a2.343,2.343,0,0,0-2.413,2.4c-.008.782.061,1.57-.019,2.343a1.192,1.192,0,0,0,.912,1.485.975.975,0,0,1,.679,1.1c-.023,1.563-.009,3.127-.007,4.69,0,.157.014.313.022.48Zm7.827.008c0-1.52-.007-3,0-4.475.009-1.549-.179-1.4,1.257-2.116a.642.642,0,0,0,.294-.468c.026-1.041.026-2.084.009-3.126a2.332,2.332,0,0,0-2.294-2.32c-.537-.017-1.075-.014-1.612,0a2.34,2.34,0,0,0-2.347,2.368c-.01.814.061,1.634-.018,2.441a1.139,1.139,0,0,0,.881,1.4,1.006,1.006,0,0,1,.709,1.133c-.026,1.546-.008,3.094-.007,4.64,0,.171,0,.341,0,.522Zm7.827-.012c0-1.525,0-2.992,0-4.459.005-1.569-.163-1.411,1.256-2.12a.643.643,0,0,0,.295-.469c.026-1.043.027-2.087.009-3.13a2.342,2.342,0,0,0-2.352-2.32c-.505-.009-1.011-.008-1.516,0a2.342,2.342,0,0,0-2.385,2.386c-.009.8.062,1.6-.019,2.395a1.181,1.181,0,0,0,.9,1.445.984.984,0,0,1,.686,1.1c-.024,1.516-.008,3.033-.008,4.549v.624Zm7.826,0c0-1.5-.007-2.943,0-4.391.01-1.628-.2-1.477,1.275-2.2a.592.592,0,0,0,.276-.431c.023-1.074.032-2.15,0-3.224A2.335,2.335,0,0,0,52.8,72.274c-.537-.017-1.075-.011-1.612,0a2.341,2.341,0,0,0-2.374,2.392c-.009.765.056,1.536-.018,2.295a1.254,1.254,0,0,0,.947,1.561.918.918,0,0,1,.64,1.026c-.018,1.563-.007,3.127-.007,4.69v.538Zm7.826,0c0-1.536,0-3.017,0-4.5,0-1.533-.147-1.381,1.244-2.073a.6.6,0,0,0,.306-.413c.023-1.107.042-2.216,0-3.321a2.311,2.311,0,0,0-2.267-2.192c-.537-.016-1.075-.011-1.612,0a2.34,2.34,0,0,0-2.362,2.354c-.012.8.059,1.6-.02,2.392a1.189,1.189,0,0,0,.914,1.482c.526.155.686.559.677,1.1-.025,1.547-.009,3.094-.009,4.641v.53ZM30.027,69.123A1.563,1.563,0,1,0,28.491,70.7a1.577,1.577,0,0,0,1.537-1.579m6.283-1.549a1.564,1.564,0,1,0,1.543,1.572,1.572,1.572,0,0,0-1.543-1.572m25.02,1.573A1.562,1.562,0,1,0,59.771,70.7a1.574,1.574,0,0,0,1.559-1.554M44.135,70.7a1.564,1.564,0,1,0-1.583-1.532A1.577,1.577,0,0,0,44.135,70.7m7.806-3.125A1.563,1.563,0,1,0,53.5,69.124a1.574,1.574,0,0,0-1.564-1.548" transform="translate(3895.362 -2629.137)" fill="#fff"/>
    </g>
  </g>
</svg>
