<svg xmlns="http://www.w3.org/2000/svg" viewBox="0 0 65 64" width="65" height="64">
	<style>
		tspan { white-space:pre }
		.shp0 { fill: #f59666 } 
		.txt1 { font-size: 20px;fill: #ffffff;font-family: "Stencil" } 
		.shp2 { fill: #ffffff } 
		.shp3 { fill: none } 
	</style>
	<g id="alfa home – 2">
		<g id="Group 1259">
			<path id="Ellipse 107" class="shp0" d="M33 56C19.73 56 9 45.27 9 32C9 18.73 19.73 8 33 8C46.27 8 57 18.73 57 32C57 45.27 46.27 56 33 56Z" />
			<text id="RA" style="transform: matrix(1,0,0,1,20.496,40.533)" >
				<tspan x="0" y="0" class="txt1">RA</tspan>
			</text>
			<g id="Group 1251">
				<g id="Group 1250">
					<path id="Path 353" class="shp2" d="M44.78 24.3L44.78 24.3L44.38 24.3L44.28 24.3L43.69 24.3L43.69 26.59L39.92 26.59C39.86 26.59 39.8 26.61 39.75 26.64L37.84 28.02L37.84 26.88C37.84 26.72 37.71 26.59 37.55 26.59L36.35 26.59L36.35 24.3L35.77 24.3L35.75 24.3L35.26 24.3C33.66 24.3 32.35 23 32.34 21.4C32.34 21.39 32.34 21.39 32.34 21.38C32.34 21.37 32.34 21.36 32.34 21.35C32.34 19.45 33.76 17.86 35.64 17.63C35.76 17.62 35.86 17.53 35.89 17.42C36.54 15.11 38.95 13.77 41.26 14.42C43.13 14.95 44.42 16.66 44.42 18.6L44.42 18.66C44.41 18.82 44.54 18.95 44.7 18.95C44.72 18.95 44.74 18.95 44.76 18.95C46.11 18.7 47.4 19.58 47.66 20.92C47.69 21.08 47.7 21.23 47.7 21.39C47.7 21.41 47.7 21.43 47.71 21.45C47.67 23.03 46.37 24.3 44.78 24.3Z" />
					<path id="Path 354" class="shp3" d="M47.66 20.92C47.4 19.58 46.11 18.7 44.76 18.95C44.74 18.95 44.72 18.95 44.7 18.95C44.54 18.95 44.41 18.82 44.42 18.66L44.42 18.6C44.42 16.66 43.13 14.95 41.26 14.42C38.95 13.77 36.54 15.11 35.89 17.42C35.86 17.53 35.76 17.62 35.64 17.63C33.76 17.86 32.34 19.45 32.34 21.35C32.34 21.36 32.34 21.37 32.34 21.38C32.34 21.39 32.34 21.39 32.34 21.4C32.35 23 33.66 24.3 35.26 24.3L35.75 24.3L34.5 19.98L45.71 19.85L44.38 24.3L44.78 24.3L44.78 24.3C46.37 24.3 47.67 23.03 47.71 21.45C47.7 21.43 47.7 21.41 47.7 21.39C47.7 21.23 47.69 21.08 47.66 20.92Z" />
					<path id="Path 355" class="shp2" d="M48.28 21.31C48.26 20.53 47.94 19.78 47.39 19.22L47.39 19.22C46.82 18.65 46.04 18.33 45.23 18.33C45.15 18.33 45.07 18.33 44.99 18.34C44.84 15.73 42.69 13.68 40.07 13.68C38.99 13.68 37.93 14.03 37.07 14.7C36.29 15.3 35.7 16.13 35.39 17.08C33.29 17.42 31.75 19.23 31.76 21.35L31.76 21.38L31.76 21.38C31.76 23.32 33.33 24.88 35.26 24.88L35.77 24.88L35.77 26.88C35.77 27.04 35.9 27.17 36.06 27.17L36.06 27.17L37.26 27.17L37.26 28.59C37.26 28.7 37.32 28.8 37.42 28.85C37.46 28.87 37.5 28.88 37.55 28.88C37.61 28.88 37.67 28.86 37.72 28.83L40.01 27.17L43.98 27.17C44.14 27.17 44.27 27.04 44.28 26.88L44.28 26.88L44.28 24.88L44.78 24.88C46.72 24.88 48.28 23.32 48.29 21.38C48.29 21.36 48.28 21.34 48.28 21.31Z" />
					<path id="Path 326" fill-rule="evenodd" class="shp0" d="M38.12 25.37C38.12 25.35 38.12 25.34 38.13 25.32L38.97 22.58C39.04 22.44 39.18 22.37 39.33 22.38C39.5 22.38 39.66 22.45 39.7 22.58L40.54 25.32C40.54 25.34 40.55 25.35 40.55 25.37C40.55 25.5 40.34 25.6 40.19 25.6C40.09 25.6 40.02 25.57 40 25.49L39.83 24.92L38.83 24.92L38.67 25.49C38.65 25.57 38.57 25.6 38.48 25.6C38.32 25.6 38.12 25.5 38.12 25.37ZM38.95 24.48L39.71 24.48L39.33 23.14L38.95 24.48Z" />
					<path id="Path 356" class="shp0" d="M43.98 20.7L36.06 20.7C35.9 20.7 35.77 20.83 35.77 20.99L35.77 24.3L36.35 24.3L36.35 21.28L43.69 21.28L43.69 24.88L44.28 24.88L44.28 20.99C44.27 20.83 44.14 20.7 43.98 20.7Z" />
					<path id="Path 357" class="shp0" d="M36.06 20.7L43.98 20.7C44.14 20.7 44.27 20.83 44.28 20.99L44.28 24.3L43.69 24.3L43.69 21.28L36.35 21.28L36.35 24.88L35.77 24.88L35.77 20.99C35.77 20.83 35.9 20.7 36.06 20.7Z" />
				</g>
				<path id="Path 327" class="shp0" d="M41.57 25.6C41.71 25.6 41.84 25.54 41.84 25.42L41.84 22.59C41.84 22.46 41.71 22.41 41.57 22.41C41.43 22.41 41.3 22.46 41.3 22.59L41.3 25.42C41.29 25.54 41.42 25.6 41.57 25.6Z" />
			</g>
		</g>
	</g>
</svg>