<svg xmlns="http://www.w3.org/2000/svg" viewBox="0 0 64 64" width="64" height="64">
	<style>
		tspan { white-space:pre }
		.shp0 { fill: #f59666 } 
		.txt1 { font-size: 21px;fill: #ffffff;font-family: "Stencil" } 
		.shp2 { fill: #ffffff } 
		.shp3 { fill: none } 
	</style>
	<g id="alfa home – 2">
		<g id="rl">
			<path id="Ellipse 107" class="shp0" d="M32 56C18.73 56 8 45.27 8 32C8 18.73 18.73 8 32 8C45.27 8 56 18.73 56 32C56 45.27 45.27 56 32 56Z" />
			<text id="RL" style="transform: matrix(1,0,0,1,19.429,41.953)" >
				<tspan x="0" y="0" class="txt1">RL</tspan>
			</text>
			<g id="Group 1254">
				<g id="Group 1253">
					<g id="Group 1252">
						<path id="Path 358" class="shp2" d="M42.12 26.52L42.12 26.52L41.71 26.52L41.6 26.52L41.01 26.52L41.01 28.84L37.19 28.84C37.13 28.84 37.07 28.86 37.02 28.9L35.09 30.29L35.09 29.14C35.09 28.97 34.95 28.84 34.79 28.84L33.58 28.84L33.58 26.52L32.99 26.52L32.97 26.52L32.48 26.52C30.85 26.52 29.53 25.21 29.52 23.59C29.52 23.58 29.52 23.58 29.52 23.57C29.52 23.56 29.52 23.55 29.52 23.54C29.52 21.62 30.96 20 32.86 19.77C32.98 19.76 33.08 19.67 33.11 19.56C33.78 17.22 36.21 15.86 38.54 16.53C40.44 17.06 41.74 18.79 41.74 20.76L41.74 20.81C41.74 20.97 41.87 21.11 42.03 21.11C42.05 21.11 42.07 21.11 42.1 21.11C43.46 20.85 44.77 21.75 45.02 23.11C45.05 23.26 45.07 23.42 45.07 23.57C45.07 23.59 45.07 23.61 45.07 23.63C45.03 25.24 43.72 26.52 42.12 26.52Z" />
						<path id="Path 359" class="shp3" d="M45.02 23.11C44.77 21.75 43.46 20.85 42.1 21.11C42.07 21.11 42.05 21.11 42.03 21.11C41.87 21.11 41.74 20.97 41.74 20.81L41.74 20.76C41.74 18.79 40.44 17.06 38.54 16.53C36.21 15.86 33.78 17.22 33.11 19.56C33.08 19.67 32.98 19.76 32.86 19.77C30.96 20 29.52 21.62 29.52 23.54C29.52 23.55 29.52 23.56 29.52 23.57C29.52 23.58 29.52 23.58 29.52 23.59C29.53 25.21 30.85 26.52 32.48 26.52L32.97 26.52L31.7 22.15L43.05 22.01L41.71 26.52L42.12 26.52L42.12 26.52C43.72 26.52 45.03 25.24 45.07 23.63C45.07 23.61 45.07 23.59 45.07 23.57C45.07 23.42 45.05 23.26 45.02 23.11Z" />
						<path id="Path 360" class="shp2" d="M45.65 23.5C45.64 22.7 45.31 21.95 44.75 21.38L44.75 21.38C44.17 20.8 43.39 20.48 42.57 20.48C42.49 20.48 42.41 20.48 42.32 20.49C42.18 17.84 39.99 15.77 37.34 15.77C36.25 15.77 35.18 16.13 34.31 16.8C33.51 17.42 32.92 18.26 32.6 19.21C30.48 19.56 28.93 21.39 28.93 23.54L28.93 23.56L28.93 23.57C28.93 25.53 30.52 27.11 32.47 27.11L32.99 27.11L32.99 29.14C32.99 29.3 33.12 29.43 33.29 29.43L33.29 29.43L34.5 29.43L34.5 30.87C34.5 30.98 34.56 31.08 34.66 31.13C34.7 31.15 34.74 31.16 34.79 31.16C34.85 31.16 34.91 31.14 34.96 31.1L37.28 29.43L41.3 29.43C41.47 29.43 41.6 29.3 41.6 29.14L41.6 29.14L41.6 27.11L42.12 27.11C44.07 27.11 45.66 25.53 45.66 23.57C45.66 23.55 45.66 23.52 45.65 23.5Z" />
						<path id="Path 326" fill-rule="evenodd" class="shp0" d="M35.37 27.6C35.37 27.59 35.37 27.57 35.38 27.56L36.23 24.78C36.3 24.64 36.45 24.56 36.6 24.58C36.76 24.58 36.93 24.65 36.97 24.78L37.82 27.56C37.82 27.57 37.83 27.59 37.83 27.6C37.83 27.74 37.62 27.84 37.47 27.84C37.37 27.84 37.29 27.81 37.27 27.73L37.1 27.15L36.09 27.15L35.93 27.73C35.9 27.81 35.83 27.84 35.73 27.84C35.58 27.84 35.37 27.74 35.37 27.6ZM36.21 26.7L36.98 26.7L36.6 25.35L36.21 26.7Z" />
						<path id="Path 361" class="shp0" d="M41.3 22.88L33.29 22.88C33.12 22.88 32.99 23.01 32.99 23.17L32.99 26.52L33.58 26.52L33.58 23.47L41.01 23.47L41.01 27.11L41.6 27.11L41.6 23.17C41.6 23.01 41.47 22.88 41.3 22.88Z" />
						<path id="Path 362" class="shp0" d="M33.29 22.88L41.3 22.88C41.47 22.88 41.6 23.01 41.6 23.17L41.6 26.52L41.01 26.52L41.01 23.47L33.58 23.47L33.58 27.11L32.99 27.11L32.99 23.17C32.99 23.01 33.12 22.88 33.29 22.88Z" />
					</g>
					<path id="Path 327" class="shp0" d="M38.86 27.84C39 27.84 39.13 27.78 39.13 27.66L39.13 24.79C39.13 24.66 39 24.61 38.86 24.61C38.72 24.61 38.59 24.66 38.59 24.79L38.59 27.66C38.58 27.78 38.71 27.84 38.86 27.84Z" />
				</g>
			</g>
		</g>
	</g>
</svg>