<svg xmlns="http://www.w3.org/2000/svg" viewBox="0 0 65 66" width="65" height="66">
	<style>
		tspan { white-space:pre }
		.shp0 { fill: #67b8fc } 
		.txt1 { font-size: 23px;fill: #ffffff;font-family: "Stencil" } 
		.shp2 { fill: #ffffff } 
		.shp3 { fill: none } 
	</style>
	<g id="alfa home – 2">
		<g id="we">
			<path id="Ellipse 107" class="shp0" d="M32.5 58C18.95 58 8 46.82 8 33C8 19.17 18.95 8 32.5 8C46.05 8 57 19.17 57 33C57 46.82 46.05 58 32.5 58Z" />
			<text id="we" style="transform: matrix(1,0,0,1,18,45)" >
				<tspan x="0" y="0" class="txt1">we</tspan>
			</text>
			<g id="ai">
				<path id="Path 325" fill-rule="evenodd" class="shp2" d="M50.8 21.64C51.37 22.21 51.7 22.99 51.72 23.8C51.73 23.82 51.73 23.84 51.73 23.87C51.73 25.86 50.11 27.48 48.11 27.48L47.59 27.48L47.59 29.54C47.59 29.62 47.56 29.7 47.5 29.75C47.44 29.81 47.37 29.84 47.29 29.84L43.19 29.84L40.82 31.55C40.77 31.59 40.71 31.61 40.65 31.61C40.6 31.61 40.55 31.6 40.51 31.57C40.41 31.52 40.35 31.42 40.35 31.31L40.35 29.84L39.12 29.84C39.04 29.84 38.96 29.81 38.9 29.75C38.85 29.7 38.81 29.62 38.81 29.54L38.81 27.48L38.29 27.48C36.29 27.48 34.68 25.86 34.67 23.87C34.67 23.86 34.67 23.87 34.67 23.86L34.67 23.84C34.67 21.65 36.26 19.78 38.42 19.43C38.74 18.45 39.35 17.6 40.16 16.97C41.04 16.29 42.13 15.92 43.25 15.92C45.95 15.92 48.18 18.03 48.33 20.73C48.41 20.72 48.5 20.72 48.58 20.72C49.41 20.72 50.21 21.05 50.8 21.64ZM46.99 23.76L39.41 23.76L39.41 29.24L40.65 29.24C40.81 29.24 40.95 29.38 40.95 29.54L40.95 30.72L42.92 29.3C42.97 29.26 43.03 29.24 43.09 29.24L46.99 29.24L46.99 23.76ZM48.11 26.88C49.75 26.88 51.09 25.57 51.13 23.94C51.12 23.92 51.12 23.9 51.12 23.88C51.12 23.11 50.78 22.39 50.2 21.9C49.61 21.42 48.84 21.22 48.09 21.36C48 21.37 47.91 21.35 47.84 21.29C47.77 21.23 47.73 21.15 47.73 21.06C47.73 21.04 47.73 21.02 47.73 21C47.73 18.77 46.08 16.87 43.87 16.56C41.65 16.26 39.55 17.63 38.94 19.78C38.9 19.9 38.8 19.98 38.68 20C36.74 20.22 35.27 21.89 35.27 23.84L35.27 23.84C35.27 23.85 35.27 23.86 35.27 23.87C35.27 23.87 35.27 23.88 35.27 23.88C35.29 25.54 36.63 26.88 38.29 26.88L38.81 26.88L38.81 23.47C38.81 23.3 38.95 23.17 39.12 23.16L47.29 23.16C47.45 23.17 47.59 23.3 47.59 23.47L47.59 26.88L48.11 26.88Z" />
				<path id="Path 326" fill-rule="evenodd" class="shp2" d="M41.24 27.98C41.24 27.96 41.24 27.95 41.25 27.93L42.12 25.1C42.16 24.97 42.32 24.9 42.49 24.9C42.66 24.9 42.83 24.97 42.87 25.1L43.74 27.93C43.74 27.95 43.74 27.96 43.74 27.98C43.74 28.12 43.53 28.22 43.38 28.22C43.28 28.22 43.2 28.19 43.18 28.11L43.01 27.51L41.98 27.51L41.8 28.11C41.78 28.19 41.71 28.22 41.61 28.22C41.45 28.22 41.24 28.12 41.24 27.98ZM42.1 27.06L42.88 27.06L42.49 25.68L42.1 27.06Z" />
				<path id="Path 327" class="shp2" d="M44.8 28.22C44.94 28.22 45.08 28.16 45.08 28.04L45.08 25.11C45.08 24.98 44.94 24.93 44.8 24.93C44.65 24.93 44.51 24.98 44.51 25.11L44.51 28.04C44.51 28.16 44.65 28.22 44.8 28.22Z" />
			</g>
			<g id="Group 1275">
				<g id="Group 1274">
					<path id="Path 344" class="shp2" d="M47.84 26.87L47.84 26.88L47.42 26.88L47.31 26.88L46.71 26.88L46.71 29.24L42.82 29.24C42.76 29.24 42.69 29.26 42.64 29.3L40.67 30.72L40.67 29.54C40.67 29.37 40.54 29.24 40.37 29.24L39.14 29.24L39.14 26.88L38.54 26.88L38.52 26.88L38.01 26.88C36.36 26.88 35.01 25.54 35 23.89C35 23.88 35 23.87 35 23.87C35 23.86 35 23.85 35 23.84C35 21.88 36.46 20.23 38.41 20C38.53 19.98 38.63 19.9 38.66 19.78C39.34 17.4 41.82 16.01 44.2 16.69C46.13 17.24 47.46 19 47.46 21L47.46 21.06C47.45 21.22 47.58 21.36 47.75 21.36C47.77 21.36 47.79 21.36 47.82 21.36C49.2 21.1 50.54 22.01 50.8 23.4C50.83 23.55 50.85 23.71 50.85 23.87C50.84 23.89 50.85 23.91 50.85 23.93C50.81 25.57 49.47 26.87 47.84 26.87Z" />
					<path id="Path 345" class="shp3" d="M50.8 23.4C50.54 22.01 49.2 21.1 47.82 21.36C47.79 21.36 47.77 21.36 47.75 21.36C47.58 21.36 47.45 21.22 47.46 21.06L47.46 21C47.46 19 46.13 17.24 44.2 16.69C41.82 16.01 39.34 17.4 38.66 19.78C38.63 19.9 38.53 19.98 38.41 20C36.46 20.23 35 21.88 35 23.84C35 23.85 35 23.86 35 23.87C35 23.87 35 23.88 35 23.89C35.01 25.54 36.36 26.88 38.01 26.88L38.52 26.88L37.23 22.43L48.79 22.28L47.42 26.88L47.84 26.88L47.84 26.87C49.47 26.87 50.81 25.57 50.85 23.93C50.85 23.91 50.84 23.89 50.85 23.87C50.85 23.71 50.83 23.55 50.8 23.4Z" />
					<path id="Path 346" class="shp2" d="M51.44 23.8C51.43 22.99 51.1 22.21 50.52 21.64L50.52 21.64C49.94 21.05 49.14 20.72 48.3 20.72C48.22 20.72 48.14 20.72 48.05 20.73C47.9 18.03 45.67 15.92 42.97 15.92C41.86 15.92 40.77 16.29 39.88 16.97C39.07 17.6 38.46 18.45 38.14 19.43C35.98 19.78 34.39 21.65 34.4 23.84L34.4 23.86L34.4 23.87C34.4 25.86 36.02 27.48 38.01 27.48L38.54 27.48L38.54 29.54C38.54 29.71 38.67 29.84 38.84 29.84L38.84 29.84L40.07 29.84L40.07 31.31C40.07 31.42 40.14 31.52 40.24 31.57C40.28 31.6 40.32 31.61 40.37 31.61C40.43 31.61 40.49 31.59 40.55 31.55L42.91 29.84L47.01 29.84C47.18 29.84 47.31 29.71 47.31 29.54L47.31 29.54L47.31 27.48L47.84 27.48C49.83 27.48 51.45 25.86 51.45 23.87C51.45 23.84 51.45 23.82 51.44 23.8Z" />
					<path id="Path 326" fill-rule="evenodd" class="shp0" d="M40.96 27.98C40.96 27.96 40.97 27.95 40.97 27.93L41.84 25.1C41.91 24.96 42.06 24.88 42.21 24.9C42.38 24.9 42.55 24.97 42.59 25.1L43.46 27.93C43.46 27.95 43.47 27.96 43.47 27.98C43.47 28.12 43.26 28.22 43.1 28.22C43 28.22 42.92 28.19 42.9 28.11L42.73 27.51L41.7 27.51L41.53 28.11C41.51 28.19 41.43 28.22 41.33 28.22C41.17 28.22 40.96 28.12 40.96 27.98ZM41.82 27.06L42.6 27.06L42.21 25.68L41.82 27.06Z" />
					<path id="Path 347" class="shp0" d="M47.01 23.16L38.84 23.16C38.67 23.16 38.54 23.3 38.54 23.47L38.54 26.88L39.14 26.88L39.14 23.76L46.71 23.76L46.71 27.48L47.31 27.48L47.31 23.47C47.31 23.3 47.18 23.16 47.01 23.16Z" />
					<path id="Path 348" class="shp0" d="M38.84 23.16L47.01 23.16C47.18 23.16 47.31 23.3 47.31 23.47L47.31 26.88L46.71 26.88L46.71 23.76L39.14 23.76L39.14 27.48L38.54 27.48L38.54 23.47C38.54 23.3 38.67 23.16 38.84 23.16Z" />
				</g>
				<path id="Path 327" class="shp0" d="M44.52 28.22C44.66 28.22 44.8 28.16 44.8 28.03L44.8 25.11C44.8 24.98 44.66 24.93 44.52 24.93C44.38 24.93 44.24 24.98 44.24 25.11L44.24 28.04C44.24 28.16 44.37 28.22 44.52 28.22Z" />
			</g>
		</g>
	</g>
</svg>