<svg xmlns="http://www.w3.org/2000/svg" viewBox="0 0 65 65" width="65" height="65">
	<style>
		tspan { white-space:pre }
		.shp0 { fill: #67b8fc } 
		.txt1 { font-size: 23px;fill: #ffffff;font-family: "Stencil" } 
		.shp2 { fill: #ffffff } 
		.shp3 { fill: none } 
	</style>
	<g id="alfa home – 2">
		<g id="Group 1278">
			<path id="Ellipse 107" class="shp0" d="M32.5 57C18.95 57 8 46.05 8 32.5C8 18.95 18.95 8 32.5 8C46.05 8 57 18.95 57 32.5C57 46.05 46.05 57 32.5 57Z" />
			<text id="SwT" style="transform: matrix(1,0,0,1,15,43)" >
				<tspan x="0" y="0" class="txt1">SwT</tspan>
			</text>
			<g id="Group 1276">
				<g id="Group 1274">
					<path id="Path 344" class="shp2" d="M45.52 27.09L45.52 27.09L45.11 27.09L45 27.09L44.4 27.09L44.4 29.45L40.51 29.45C40.45 29.45 40.39 29.47 40.34 29.51L38.37 30.93L38.37 29.76C38.37 29.59 38.23 29.45 38.06 29.45L36.83 29.45L36.83 27.09L36.23 27.09L36.22 27.09L35.71 27.09C34.05 27.09 32.71 25.76 32.7 24.11C32.7 24.1 32.7 24.09 32.7 24.09C32.7 24.08 32.7 24.07 32.7 24.06C32.7 22.1 34.16 20.46 36.1 20.22C36.22 20.21 36.32 20.12 36.36 20.01C37.03 17.63 39.51 16.25 41.89 16.92C43.81 17.47 45.14 19.22 45.14 21.23L45.14 21.28C45.14 21.45 45.27 21.58 45.44 21.59C45.46 21.59 45.48 21.58 45.5 21.58C46.89 21.32 48.22 22.23 48.48 23.62C48.51 23.77 48.53 23.93 48.53 24.09C48.53 24.11 48.53 24.13 48.53 24.15C48.49 25.79 47.16 27.09 45.52 27.09Z" />
					<path id="Path 345" class="shp3" d="M48.48 23.62C48.22 22.23 46.89 21.32 45.5 21.58C45.48 21.58 45.46 21.59 45.44 21.59C45.27 21.58 45.14 21.45 45.14 21.28L45.14 21.23C45.14 19.22 43.81 17.47 41.89 16.92C39.51 16.25 37.03 17.63 36.36 20.01C36.32 20.12 36.22 20.21 36.1 20.22C34.16 20.46 32.7 22.1 32.7 24.06C32.7 24.07 32.7 24.08 32.7 24.09C32.7 24.09 32.7 24.1 32.7 24.11C32.71 25.76 34.05 27.09 35.71 27.09L36.22 27.09L34.92 22.65L46.48 22.51L45.11 27.09L45.52 27.09L45.52 27.09C47.16 27.09 48.49 25.79 48.53 24.15C48.53 24.13 48.53 24.11 48.53 24.09C48.53 23.93 48.51 23.77 48.48 23.62Z" />
					<path id="Path 346" class="shp2" d="M49.12 24.02C49.11 23.21 48.78 22.44 48.2 21.87L48.21 21.87C47.62 21.27 46.82 20.94 45.99 20.95C45.9 20.95 45.82 20.95 45.73 20.95C45.59 18.26 43.36 16.15 40.67 16.15C39.55 16.15 38.46 16.52 37.58 17.2C36.77 17.82 36.16 18.68 35.84 19.65C33.68 20.01 32.1 21.87 32.1 24.06L32.1 24.08L32.1 24.09C32.1 26.08 33.72 27.69 35.71 27.69L36.23 27.69L36.23 29.76C36.23 29.92 36.37 30.05 36.53 30.05L36.54 30.05L37.77 30.05L37.77 31.52C37.77 31.63 37.83 31.73 37.93 31.78C37.97 31.81 38.02 31.82 38.06 31.82C38.13 31.82 38.19 31.8 38.24 31.76L40.61 30.05L44.7 30.05C44.86 30.05 45 29.92 45 29.76L45 29.76L45 27.69L45.52 27.69C47.51 27.69 49.13 26.08 49.13 24.09C49.13 24.07 49.13 24.04 49.12 24.02Z" />
					<path id="Path 326" fill-rule="evenodd" class="shp0" d="M38.65 28.19C38.66 28.18 38.66 28.16 38.66 28.15L39.53 25.32C39.6 25.18 39.75 25.1 39.9 25.12C40.08 25.12 40.24 25.18 40.28 25.32L41.15 28.15C41.15 28.16 41.16 28.18 41.16 28.19C41.16 28.33 40.95 28.44 40.79 28.44C40.69 28.44 40.61 28.41 40.59 28.32L40.42 27.73L39.39 27.73L39.22 28.32C39.2 28.41 39.12 28.43 39.02 28.43C38.87 28.43 38.65 28.33 38.65 28.19ZM39.51 27.28L40.3 27.28L39.9 25.9L39.51 27.28Z" />
					<path id="Path 347" class="shp0" d="M44.7 23.38L36.53 23.38C36.37 23.39 36.23 23.52 36.23 23.69L36.23 27.09L36.83 27.09L36.83 23.98L44.4 23.98L44.4 27.69L45 27.69L45 23.69C45 23.52 44.86 23.39 44.7 23.38Z" />
					<path id="Path 348" class="shp0" d="M36.53 23.38L44.7 23.38C44.86 23.39 45 23.52 45 23.69L45 27.09L44.4 27.09L44.4 23.98L36.83 23.98L36.83 27.69L36.23 27.69L36.23 23.69C36.23 23.52 36.37 23.39 36.53 23.38Z" />
				</g>
				<path id="Path 327" class="shp0" d="M42.21 28.44C42.35 28.44 42.49 28.37 42.49 28.25L42.49 25.33C42.49 25.2 42.35 25.15 42.21 25.15C42.07 25.15 41.93 25.2 41.93 25.33L41.93 28.25C41.93 28.37 42.06 28.44 42.21 28.44Z" />
			</g>
		</g>
	</g>
</svg>