<svg xmlns="http://www.w3.org/2000/svg" viewBox="0 0 65 65" width="65" height="65">
	<style>
		tspan { white-space:pre }
		.shp0 { fill: #185d92 } 
		.txt1 { font-size: 21px;fill: #ffffff;font-family: "Stencil" } 
		.shp2 { fill: #ffffff } 
		.shp3 { fill: none } 
	</style>
	<g id="alfa home – 2">
		<g id="Group 1566">
			<path id="Ellipse 107" class="shp0" d="M32.5 57C18.95 57 8 46.05 8 32.5C8 18.95 18.95 8 32.5 8C46.05 8 57 18.95 57 32.5C57 46.05 46.05 57 32.5 57Z" />
			<text id="SST" style="transform: matrix(1,0,0,1,16.853,42.242)" >
				<tspan x="0" y="0" class="txt1">SST</tspan>
			</text>
			<g id="Group 1325">
				<g id="Group 1324">
					<path id="Path 355" class="shp2" d="M43.31 26.85L43.31 26.86L42.89 26.86L42.78 26.86L42.18 26.86L42.18 29.23L38.27 29.23C38.2 29.23 38.14 29.25 38.09 29.29L36.11 30.72L36.11 29.53C36.11 29.37 35.97 29.23 35.81 29.23L34.57 29.23L34.57 26.86L33.96 26.86L33.95 26.86L33.44 26.86C31.77 26.86 30.42 25.51 30.41 23.85C30.41 23.84 30.41 23.84 30.41 23.83C30.41 23.82 30.41 23.81 30.41 23.8C30.41 21.84 31.88 20.18 33.83 19.94C33.96 19.93 34.06 19.84 34.09 19.73C34.77 17.33 37.26 15.94 39.65 16.62C41.59 17.17 42.93 18.94 42.93 20.95L42.93 21.01C42.92 21.17 43.06 21.31 43.22 21.32C43.24 21.32 43.27 21.31 43.29 21.31C44.68 21.05 46.02 21.97 46.29 23.36C46.32 23.52 46.33 23.68 46.33 23.84C46.33 23.86 46.33 23.88 46.34 23.9C46.3 25.54 44.95 26.85 43.31 26.85Z" />
					<path id="Path 356" class="shp3" d="M46.29 23.36C46.02 21.97 44.68 21.05 43.29 21.31C43.27 21.31 43.24 21.32 43.22 21.32C43.06 21.31 42.92 21.17 42.93 21.01L42.93 20.95C42.93 18.94 41.59 17.17 39.65 16.62C37.26 15.94 34.77 17.33 34.09 19.73C34.06 19.84 33.96 19.93 33.83 19.94C31.88 20.18 30.41 21.84 30.41 23.8C30.41 23.81 30.41 23.82 30.41 23.83C30.41 23.84 30.41 23.84 30.41 23.85C30.42 25.51 31.77 26.86 33.44 26.86L33.95 26.86L32.65 22.38L44.27 22.24L42.89 26.86L43.31 26.86L43.31 26.85C44.95 26.85 46.3 25.54 46.34 23.9C46.33 23.88 46.33 23.86 46.33 23.84C46.33 23.68 46.32 23.52 46.29 23.36Z" />
					<path id="Path 357" class="shp2" d="M46.93 23.76C46.92 22.95 46.58 22.17 46.01 21.6L46.01 21.6C45.42 21 44.61 20.67 43.78 20.67C43.69 20.67 43.61 20.67 43.52 20.68C43.37 17.97 41.13 15.85 38.42 15.85C37.3 15.84 36.21 16.21 35.32 16.9C34.5 17.53 33.89 18.39 33.57 19.37C31.4 19.73 29.8 21.6 29.8 23.8L29.8 23.83L29.8 23.83C29.81 25.84 31.43 27.46 33.44 27.46L33.96 27.46L33.96 29.53C33.97 29.7 34.1 29.83 34.27 29.83L34.27 29.83L35.51 29.83L35.51 31.31C35.51 31.42 35.57 31.52 35.67 31.58C35.71 31.6 35.76 31.61 35.81 31.61C35.87 31.61 35.93 31.59 35.98 31.55L38.36 29.83L42.48 29.83C42.65 29.83 42.78 29.7 42.78 29.53L42.78 29.53L42.78 27.46L43.31 27.46C45.31 27.46 46.94 25.84 46.94 23.83C46.94 23.81 46.94 23.79 46.93 23.76Z" />
					<path id="Path 326" fill-rule="evenodd" class="shp0" d="M36.4 27.96C36.4 27.95 36.4 27.93 36.41 27.92L37.28 25.07C37.35 24.93 37.5 24.85 37.66 24.87C37.83 24.87 38 24.94 38.04 25.07L38.91 27.92C38.91 27.93 38.92 27.95 38.92 27.96C38.92 28.1 38.71 28.21 38.55 28.21C38.45 28.21 38.37 28.18 38.35 28.09L38.18 27.5L37.14 27.5L36.97 28.09C36.95 28.18 36.87 28.21 36.77 28.21C36.61 28.21 36.4 28.1 36.4 27.96ZM37.26 27.04L38.05 27.04L37.66 25.66L37.26 27.04Z" />
					<path id="Path 358" class="shp0" d="M42.48 23.12L34.27 23.12C34.1 23.13 33.97 23.26 33.96 23.43L33.96 26.86L34.57 26.86L34.57 23.73L42.18 23.73L42.18 27.46L42.78 27.46L42.78 23.43C42.78 23.26 42.65 23.13 42.48 23.12Z" />
					<path id="Path 359" class="shp0" d="M34.27 23.12L42.48 23.12C42.65 23.13 42.78 23.26 42.78 23.43L42.78 26.86L42.18 26.86L42.18 23.73L34.57 23.73L34.57 27.46L33.96 27.46L33.96 23.43C33.97 23.26 34.1 23.13 34.27 23.12Z" />
				</g>
				<path id="Path 327" class="shp0" d="M39.97 28.21C40.12 28.21 40.26 28.14 40.26 28.02L40.26 25.08C40.26 24.95 40.12 24.9 39.97 24.9C39.83 24.9 39.69 24.95 39.69 25.08L39.69 28.02C39.69 28.14 39.83 28.21 39.97 28.21Z" />
			</g>
		</g>
	</g>
</svg>