<svg xmlns="http://www.w3.org/2000/svg" viewBox="0 0 64 64" width="64" height="64">
	<style>
		tspan { white-space:pre }
		.shp0 { fill: #f59666 } 
		.txt1 { font-size: 22px;fill: #ffffff;font-family: "Stencil" } 
		.shp2 { fill: #ffffff } 
		.shp3 { fill: none } 
	</style>
	<g id="alfa home – 2">
		<g id="rs">
			<path id="Ellipse 107" class="shp0" d="M32 56C18.73 56 8 45.27 8 32C8 18.73 18.73 8 32 8C45.27 8 56 18.73 56 32C56 45.27 45.27 56 32 56Z" />
			<text id="Rs" style="transform: matrix(1,0,0,1,19.774,42.812)" >
				<tspan x="0" y="0" class="txt1">Rs</tspan>
			</text>
			<g id="Group 1255">
				<g id="Group 1253">
					<g id="Group 1252">
						<path id="Path 358" class="shp2" d="M44.51 24.98L44.51 24.99L44.11 24.99L44 24.99L43.42 24.99L43.42 27.28L39.63 27.28C39.57 27.28 39.51 27.3 39.46 27.34L37.55 28.72L37.55 27.58C37.55 27.42 37.41 27.28 37.25 27.28L36.05 27.28L36.05 24.99L35.47 24.99L35.45 24.99L34.96 24.99C33.35 24.99 32.04 23.69 32.03 22.08C32.03 22.07 32.03 22.07 32.03 22.06C32.03 22.05 32.03 22.04 32.03 22.04C32.03 20.13 33.46 18.53 35.35 18.3C35.46 18.29 35.56 18.2 35.59 18.09C36.25 15.78 38.66 14.43 40.97 15.09C42.85 15.62 44.14 17.33 44.14 19.28L44.14 19.33C44.14 19.49 44.26 19.62 44.43 19.63C44.45 19.63 44.47 19.63 44.49 19.62C45.84 19.37 47.14 20.26 47.39 21.61C47.42 21.76 47.43 21.91 47.43 22.07C47.43 22.09 47.44 22.11 47.44 22.13C47.4 23.72 46.1 24.99 44.51 24.98Z" />
						<path id="Path 359" class="shp3" d="M47.39 21.61C47.14 20.26 45.84 19.37 44.49 19.62C44.47 19.63 44.45 19.63 44.43 19.63C44.26 19.62 44.14 19.49 44.14 19.33L44.14 19.28C44.14 17.33 42.85 15.62 40.97 15.09C38.66 14.43 36.25 15.78 35.59 18.09C35.56 18.2 35.46 18.29 35.35 18.3C33.46 18.53 32.03 20.13 32.03 22.04C32.03 22.04 32.03 22.05 32.03 22.06C32.03 22.07 32.03 22.07 32.03 22.08C32.04 23.69 33.35 24.99 34.96 24.99L35.45 24.99L34.2 20.66L45.44 20.52L44.11 24.99L44.51 24.99L44.51 24.98C46.1 24.99 47.4 23.72 47.44 22.13C47.44 22.11 47.43 22.09 47.43 22.07C47.43 21.91 47.42 21.76 47.39 21.61Z" />
						<path id="Path 360" class="shp2" d="M48.01 22C48 21.21 47.68 20.46 47.12 19.9L47.12 19.9C46.55 19.32 45.77 19 44.96 19.01C44.88 19.01 44.8 19.01 44.72 19.01C44.57 16.39 42.41 14.34 39.78 14.34C38.7 14.34 37.64 14.69 36.78 15.36C35.99 15.97 35.4 16.8 35.09 17.75C32.99 18.09 31.44 19.91 31.45 22.04L31.45 22.06L31.45 22.06C31.45 24 33.02 25.57 34.96 25.57L35.47 25.57L35.47 27.58C35.47 27.74 35.6 27.87 35.76 27.87L35.76 27.87L36.97 27.87L36.97 29.29C36.96 29.4 37.02 29.5 37.12 29.55C37.16 29.57 37.21 29.58 37.25 29.58C37.31 29.58 37.37 29.56 37.42 29.53L39.73 27.87L43.71 27.87C43.87 27.87 44 27.74 44 27.58L44 27.58L44 25.57L44.51 25.57C46.45 25.57 48.02 24 48.02 22.06C48.02 22.04 48.02 22.02 48.01 22Z" />
						<path id="Path 326" fill-rule="evenodd" class="shp0" d="M37.83 26.06C37.83 26.04 37.83 26.03 37.84 26.01L38.68 23.26C38.75 23.13 38.89 23.05 39.04 23.07C39.21 23.07 39.37 23.13 39.41 23.26L40.26 26.01C40.26 26.03 40.26 26.04 40.26 26.06C40.26 26.19 40.06 26.3 39.9 26.3C39.81 26.3 39.73 26.27 39.71 26.18L39.55 25.61L38.54 25.61L38.38 26.18C38.36 26.27 38.28 26.29 38.19 26.29C38.03 26.29 37.83 26.2 37.83 26.06ZM38.66 25.17L39.42 25.17L39.04 23.83L38.66 25.17Z" />
						<path id="Path 361" class="shp0" d="M43.71 21.38L35.76 21.38C35.6 21.38 35.47 21.51 35.47 21.67L35.47 24.99L36.05 24.99L36.05 21.96L43.42 21.96L43.42 25.57L44 25.57L44 21.67C44 21.51 43.87 21.38 43.71 21.38Z" />
						<path id="Path 362" class="shp0" d="M35.76 21.38L43.71 21.38C43.87 21.38 44 21.51 44 21.67L44 24.99L43.42 24.99L43.42 21.96L36.05 21.96L36.05 25.57L35.47 25.57L35.47 21.67C35.47 21.51 35.6 21.38 35.76 21.38Z" />
					</g>
					<path id="Path 327" class="shp0" d="M41.29 26.29C41.43 26.29 41.56 26.23 41.56 26.11L41.56 23.27C41.56 23.15 41.42 23.1 41.29 23.1C41.15 23.1 41.01 23.15 41.01 23.27L41.01 26.11C41.01 26.23 41.14 26.29 41.29 26.29Z" />
				</g>
			</g>
		</g>
	</g>
</svg>