<svg xmlns="http://www.w3.org/2000/svg" viewBox="0 0 65 64" width="65" height="64">
	<style>
		tspan { white-space:pre }
		.shp0 { fill: #f59666 } 
		.txt1 { font-size: 22px;fill: #ffffff;font-family: "Stencil" } 
		.shp2 { fill: #ffffff } 
		.shp3 { fill: none } 
	</style>
	<g id="alfa home – 2">
		<g id="asq">
			<path id="Ellipse 107" class="shp0" d="M33 56C19.73 56 9 45.27 9 32C9 18.73 19.73 8 33 8C46.27 8 57 18.73 57 32C57 45.27 46.27 56 33 56Z" />
			<text id="ASQ " style="transform: matrix(1,0,0,1,16.698,42.812)" >
				<tspan x="0" y="0" class="txt1">ASQ</tspan>
			</text>
			<g id="Group 1254">
				<g id="Group 1253">
					<g id="Group 1252">
						<path id="Path 358" class="shp2" d="M44.61 26.34L44.6 26.35L44.2 26.35L44.1 26.35L43.51 26.35L43.51 28.64L39.73 28.64C39.67 28.64 39.61 28.66 39.56 28.7L37.64 30.08L37.64 28.94C37.64 28.77 37.51 28.64 37.35 28.64L36.15 28.64L36.15 26.35L35.57 26.35L35.55 26.35L35.06 26.35C33.45 26.35 32.14 25.05 32.13 23.44C32.13 23.43 32.13 23.43 32.13 23.42C32.13 23.41 32.13 23.4 32.13 23.39C32.13 21.49 33.55 19.89 35.44 19.66C35.56 19.65 35.65 19.56 35.69 19.45C36.34 17.13 38.75 15.79 41.07 16.45C42.94 16.98 44.24 18.69 44.24 20.64L44.24 20.69C44.23 20.85 44.36 20.98 44.52 20.99C44.54 20.99 44.56 20.99 44.58 20.98C45.93 20.73 47.23 21.62 47.49 22.96C47.51 23.12 47.53 23.27 47.53 23.43C47.53 23.45 47.53 23.47 47.53 23.49C47.5 25.08 46.2 26.34 44.61 26.34Z" />
						<path id="Path 359" class="shp3" d="M47.49 22.96C47.23 21.62 45.93 20.73 44.58 20.98C44.56 20.99 44.54 20.99 44.52 20.99C44.36 20.98 44.23 20.85 44.24 20.69L44.24 20.64C44.24 18.69 42.94 16.98 41.07 16.45C38.75 15.79 36.34 17.13 35.69 19.45C35.65 19.56 35.56 19.65 35.44 19.66C33.55 19.89 32.13 21.49 32.13 23.39C32.13 23.4 32.13 23.41 32.13 23.42C32.13 23.43 32.13 23.43 32.13 23.44C32.14 25.05 33.45 26.35 35.06 26.35L35.55 26.35L34.29 22.02L45.53 21.88L44.2 26.35L44.6 26.35L44.61 26.34C46.2 26.34 47.5 25.08 47.53 23.49C47.53 23.47 47.53 23.45 47.53 23.43C47.53 23.27 47.51 23.12 47.49 22.96Z" />
						<path id="Path 360" class="shp2" d="M48.11 23.35C48.09 22.57 47.77 21.81 47.21 21.26L47.22 21.26C46.64 20.68 45.87 20.36 45.06 20.36C44.98 20.36 44.89 20.36 44.81 20.37C44.67 17.75 42.5 15.7 39.88 15.7C38.79 15.69 37.73 16.05 36.87 16.72C36.08 17.33 35.49 18.16 35.18 19.11C33.08 19.45 31.54 21.27 31.54 23.39L31.54 23.41L31.54 23.42C31.54 25.36 33.12 26.93 35.06 26.93L35.57 26.93L35.57 28.94C35.57 29.1 35.7 29.23 35.86 29.23L35.86 29.23L37.06 29.23L37.06 30.65C37.06 30.76 37.12 30.86 37.22 30.91C37.26 30.93 37.3 30.94 37.35 30.94C37.41 30.94 37.47 30.92 37.52 30.89L39.82 29.23L43.8 29.23C43.96 29.23 44.09 29.1 44.09 28.94L44.09 28.94L44.09 26.93L44.6 26.93C46.54 26.93 48.11 25.36 48.12 23.42C48.12 23.4 48.11 23.38 48.11 23.35Z" />
						<path id="Path 326" fill-rule="evenodd" class="shp0" d="M37.92 27.42C37.92 27.4 37.93 27.39 37.93 27.37L38.78 24.62C38.84 24.49 38.99 24.41 39.14 24.43C39.3 24.43 39.47 24.49 39.51 24.62L40.35 27.37C40.35 27.39 40.36 27.4 40.36 27.42C40.36 27.55 40.15 27.65 40 27.65C39.9 27.65 39.83 27.63 39.81 27.54L39.64 26.97L38.64 26.97L38.47 27.54C38.45 27.63 38.38 27.65 38.28 27.65C38.13 27.65 37.92 27.55 37.92 27.42ZM38.76 26.53L39.52 26.53L39.14 25.19L38.76 26.53Z" />
						<path id="Path 361" class="shp0" d="M43.8 22.74L35.86 22.74C35.7 22.74 35.57 22.87 35.57 23.03L35.57 26.35L36.15 26.35L36.15 23.32L43.51 23.32L43.51 26.93L44.1 26.93L44.1 23.03C44.09 22.87 43.96 22.74 43.8 22.74Z" />
						<path id="Path 362" class="shp0" d="M35.86 22.74L43.8 22.74C43.96 22.74 44.09 22.87 44.1 23.03L44.1 26.35L43.51 26.35L43.51 23.32L36.15 23.32L36.15 26.93L35.57 26.93L35.57 23.03C35.57 22.87 35.7 22.74 35.86 22.74Z" />
					</g>
					<path id="Path 327" class="shp0" d="M41.38 27.65C41.52 27.65 41.65 27.59 41.65 27.47L41.65 24.63C41.65 24.51 41.52 24.45 41.38 24.45C41.24 24.45 41.11 24.51 41.11 24.63L41.11 27.47C41.11 27.59 41.24 27.65 41.38 27.65Z" />
				</g>
			</g>
		</g>
	</g>
</svg>