<svg xmlns="http://www.w3.org/2000/svg" viewBox="0 0 65 64" width="65" height="64">
	<style>
		tspan { white-space:pre }
		.shp0 { fill: #f59666 } 
		.txt1 { font-size: 22px;fill: #ffffff;font-family: "Stencil" } 
		.shp2 { fill: #ffffff } 
		.shp3 { fill: none } 
	</style>
	<g id="alfa home – 2">
		<g id="di">
			<path id="Ellipse 107" class="shp0" d="M32 56C18.73 56 8 45.27 8 32C8 18.73 18.73 8 32 8C45.27 8 56 18.73 56 32C56 45.27 45.27 56 32 56Z" />
			<text id="DI" style="transform: matrix(1,0,0,1,21.585,42.812)" >
				<tspan x="0" y="0" class="txt1">DI</tspan>
			</text>
			<g id="Group 1254">
				<g id="Group 1253">
					<g id="Group 1252">
						<path id="Path 358" class="shp2" d="M43.61 26.34L43.6 26.35L43.2 26.35L43.09 26.35L42.51 26.35L42.51 28.64L38.73 28.64C38.67 28.64 38.61 28.66 38.56 28.7L36.64 30.08L36.64 28.94C36.64 28.77 36.51 28.64 36.35 28.64L35.15 28.64L35.15 26.35L34.57 26.35L34.55 26.35L34.06 26.35C32.45 26.35 31.14 25.05 31.13 23.44C31.13 23.43 31.13 23.43 31.13 23.42C31.13 23.41 31.13 23.4 31.13 23.39C31.13 21.49 32.55 19.89 34.44 19.66C34.56 19.65 34.65 19.56 34.69 19.45C35.34 17.13 37.75 15.79 40.07 16.45C41.94 16.98 43.23 18.69 43.24 20.64L43.24 20.69C43.23 20.85 43.36 20.98 43.52 20.99C43.54 20.99 43.56 20.99 43.58 20.98C44.93 20.73 46.23 21.62 46.48 22.96C46.51 23.12 46.53 23.27 46.53 23.43C46.53 23.45 46.53 23.47 46.53 23.49C46.5 25.08 45.2 26.34 43.61 26.34Z" />
						<path id="Path 359" class="shp3" d="M46.48 22.96C46.23 21.62 44.93 20.73 43.58 20.98C43.56 20.99 43.54 20.99 43.52 20.99C43.36 20.98 43.23 20.85 43.24 20.69L43.24 20.64C43.23 18.69 41.94 16.98 40.07 16.45C37.75 15.79 35.34 17.13 34.69 19.45C34.65 19.56 34.56 19.65 34.44 19.66C32.55 19.89 31.13 21.49 31.13 23.39C31.13 23.4 31.13 23.41 31.13 23.42C31.13 23.43 31.13 23.43 31.13 23.44C31.14 25.05 32.45 26.35 34.06 26.35L34.55 26.35L33.29 22.02L44.53 21.88L43.2 26.35L43.6 26.35L43.61 26.34C45.2 26.34 46.5 25.08 46.53 23.49C46.53 23.47 46.53 23.45 46.53 23.43C46.53 23.27 46.51 23.12 46.48 22.96Z" />
						<path id="Path 360" class="shp2" d="M47.11 23.35C47.09 22.57 46.77 21.81 46.21 21.26L46.22 21.26C45.64 20.68 44.87 20.36 44.06 20.36C43.98 20.36 43.89 20.36 43.81 20.37C43.67 17.75 41.5 15.7 38.88 15.7C37.79 15.69 36.73 16.05 35.87 16.72C35.08 17.33 34.49 18.16 34.18 19.11C32.08 19.45 30.54 21.27 30.54 23.39L30.54 23.41L30.54 23.42C30.54 25.36 32.12 26.93 34.05 26.93L34.57 26.93L34.57 28.94C34.57 29.1 34.7 29.23 34.86 29.23L34.86 29.23L36.06 29.23L36.06 30.65C36.06 30.76 36.12 30.86 36.22 30.91C36.26 30.93 36.3 30.94 36.35 30.94C36.41 30.94 36.47 30.92 36.52 30.89L38.82 29.23L42.8 29.23C42.96 29.23 43.09 29.1 43.09 28.94L43.09 28.94L43.09 26.93L43.6 26.93C45.54 26.93 47.11 25.36 47.12 23.42C47.12 23.4 47.11 23.38 47.11 23.35Z" />
						<path id="Path 326" fill-rule="evenodd" class="shp0" d="M36.92 27.42C36.92 27.4 36.93 27.39 36.93 27.37L37.78 24.62C37.84 24.49 37.99 24.41 38.14 24.43C38.3 24.43 38.47 24.49 38.51 24.62L39.35 27.37C39.35 27.39 39.36 27.4 39.36 27.42C39.36 27.55 39.15 27.65 39 27.65C38.9 27.65 38.83 27.63 38.81 27.54L38.64 26.97L37.64 26.97L37.47 27.54C37.45 27.63 37.38 27.65 37.28 27.65C37.13 27.65 36.92 27.55 36.92 27.42ZM37.76 26.53L38.52 26.53L38.14 25.19L37.76 26.53Z" />
						<path id="Path 361" class="shp0" d="M42.8 22.74L34.86 22.74C34.7 22.74 34.57 22.87 34.57 23.03L34.57 26.35L35.15 26.35L35.15 23.32L42.51 23.32L42.51 26.93L43.09 26.93L43.09 23.03C43.09 22.87 42.96 22.74 42.8 22.74Z" />
						<path id="Path 362" class="shp0" d="M34.86 22.74L42.8 22.74C42.96 22.74 43.09 22.87 43.09 23.03L43.09 26.35L42.51 26.35L42.51 23.32L35.15 23.32L35.15 26.93L34.57 26.93L34.57 23.03C34.57 22.87 34.7 22.74 34.86 22.74Z" />
					</g>
					<path id="Path 327" class="shp0" d="M40.38 27.65C40.52 27.65 40.65 27.59 40.65 27.47L40.65 24.63C40.65 24.51 40.52 24.45 40.38 24.45C40.24 24.45 40.11 24.51 40.11 24.63L40.11 27.47C40.11 27.59 40.24 27.65 40.38 27.65Z" />
				</g>
			</g>
		</g>
	</g>
</svg>