<svg xmlns="http://www.w3.org/2000/svg" xmlns:xlink="http://www.w3.org/1999/xlink" width="118" height="118" viewBox="0 0 118 118">
  <defs>
    <filter id="Ellipse_157" x="0" y="0" width="118" height="118" filterUnits="userSpaceOnUse">
      <feOffset input="SourceAlpha"/>
      <feGaussianBlur stdDeviation="3" result="blur"/>
      <feFlood flood-opacity="0.302"/>
      <feComposite operator="in" in2="blur"/>
      <feComposite in="SourceGraphic"/>
    </filter>
  </defs>
  <g id="Group_1721" data-name="Group 1721" transform="translate(-1099 -1440)">
    <g transform="matrix(1, 0, 0, 1, 1099, 1440)" filter="url(#Ellipse_157)">
      <circle id="Ellipse_157-2" data-name="Ellipse 157" cx="50" cy="50" r="50" transform="translate(9 9)" fill="#e31caf"/>
    </g>
    <g id="premium" transform="translate(1134 1398.237)">
      <path id="Path_523" data-name="Path 523" d="M45.661,87.18a3.014,3.014,0,0,0-3.5.379c-5.077,4.988-5.046,5.058-5.653,5.283a2.162,2.162,0,0,1-2.152-.373c-9.333-7.842-8.735-7.344-8.818-7.4a3.025,3.025,0,0,0-3.745.2C12.63,94.05,13.148,93.6,12.774,93.8A2.257,2.257,0,0,1,9.9,93.112C5.119,87.607,5.472,88,5.363,87.909,3.02,85.881-.35,88.044.03,91.379l1.741,17.495c.336,3.378.227,2.325.252,2.535.32,2.738,2.323,4.927,4.869,4.927H40.574c2.622,0,4.612-2.333,4.871-4.95l2.031-20.352A3.851,3.851,0,0,0,45.661,87.18ZM3.221,89.947a.213.213,0,0,1,.262.021l4.31,4.969a4.987,4.987,0,0,0,7.4.508l8.447-8.1a.238.238,0,0,1,.267-.008l8.68,7.293a4.937,4.937,0,0,0,4.88.827c1.312-.487,1.487-.848,6.564-5.837a.212.212,0,0,1,.259-.009,1.12,1.12,0,0,1,.415,1.117c0,.02.059-.59-1.658,16.612H4.415C2.782,90.928,2.8,91.086,2.8,91.069a1.113,1.113,0,0,1,.425-1.123Zm37.353,23.6H6.892c-1.032,0-1.935-1.055-2.1-2.455l-.1-.978H42.774l-.1.978c-.168,1.4-1.07,2.455-2.1,2.455Z" transform="translate(0 0)" fill="#fff"/>
    </g>
  </g>
</svg>
