<svg xmlns="http://www.w3.org/2000/svg" xmlns:xlink="http://www.w3.org/1999/xlink" width="118" height="118" viewBox="0 0 118 118">
  <defs>
    <filter id="Ellipse_145" x="0" y="0" width="118" height="118" filterUnits="userSpaceOnUse">
      <feOffset input="SourceAlpha"/>
      <feGaussianBlur stdDeviation="3" result="blur"/>
      <feFlood flood-opacity="0.302"/>
      <feComposite operator="in" in2="blur"/>
      <feComposite in="SourceGraphic"/>
    </filter>
  </defs>
  <g id="Group_1528" data-name="Group 1528" transform="translate(-184 -127)">
    <g transform="matrix(1, 0, 0, 1, 184, 127)" filter="url(#Ellipse_145)">
      <circle id="Ellipse_145-2" data-name="Ellipse 145" cx="50" cy="50" r="50" transform="translate(9 9)" fill="#11e6e6"/>
    </g>
    <path id="Icon_awesome-video" data-name="Icon awesome-video" d="M32.633,4.5H4.64A4.908,4.908,0,0,0,0,9.638v31a4.908,4.908,0,0,0,4.64,5.138H32.633a4.908,4.908,0,0,0,4.64-5.138v-31A4.908,4.908,0,0,0,32.633,4.5ZM51.016,8.552,40.378,16.677V33.595l10.638,8.115c2.058,1.569,4.892-.032,4.892-2.773V11.325C55.908,8.595,53.084,6.983,51.016,8.552Z" transform="translate(215.296 161.317)" fill="#fff"/>
  </g>
</svg>
