<svg id="Group_1744" data-name="Group 1744" xmlns="http://www.w3.org/2000/svg" xmlns:xlink="http://www.w3.org/1999/xlink" width="17.1" height="17.06" viewBox="0 0 17.1 17.06">
  <defs>
    <clipPath id="clip-path">
      <path id="Path_600" data-name="Path 600" d="M0,0V17.06H17V11.43a.645.645,0,0,0,.1-.375.584.584,0,0,0-.1-.374V0Z" transform="translate(-0.001)" fill="none"/>
    </clipPath>
    <radialGradient id="radial-gradient" cx="0.175" cy="0.175" r="0.935" gradientTransform="translate(0)" gradientUnits="objectBoundingBox">
      <stop offset="0" stop-color="#9dd5f6"/>
      <stop offset="0.071" stop-color="#98d3f5"/>
      <stop offset="0.157" stop-color="#89cef3"/>
      <stop offset="0.252" stop-color="#70c6ef"/>
      <stop offset="0.351" stop-color="#4ebbea"/>
      <stop offset="0.455" stop-color="#23ade3"/>
      <stop offset="0.5" stop-color="#0da6e0"/>
      <stop offset="1" stop-color="#2e77bc"/>
    </radialGradient>
    <clipPath id="clip-path-2">
      <rect id="Rectangle_1251" data-name="Rectangle 1251" width="17.099" height="17.06" fill="none"/>
    </clipPath>
  </defs>
  <g id="Group_1741" data-name="Group 1741" transform="translate(0)">
    <g id="Group_1740" data-name="Group 1740" clip-path="url(#clip-path)">
      <rect id="Rectangle_1250" data-name="Rectangle 1250" width="17.099" height="17.06" transform="translate(0 0)" fill="url(#radial-gradient)"/>
    </g>
  </g>
  <g id="Group_1743" data-name="Group 1743">
    <g id="Group_1742" data-name="Group 1742" clip-path="url(#clip-path-2)">
      <path id="Path_601" data-name="Path 601" d="M1.532,98.555l-.327-.8-.325.8m7.856-.317a.442.442,0,0,1-.236.041H7.92v-.444h.588a.491.491,0,0,1,.227.036.183.183,0,0,1,.1.177.2.2,0,0,1-.1.19m4.141.317-.331-.8-.329.8Zm-7.718.862h-.49l0-1.566-.693,1.566H3.555L2.86,97.85v1.567H1.888L1.7,98.971H.71l-.185.446H.006l.856-2h.71l.813,1.893V97.418h.78l.625,1.356.574-1.356h.8v2Zm1.952,0h-1.6v-2h1.6v.416H5.992v.36H7.084v.41H5.992V99H7.111Zm2.25-1.461a.563.563,0,0,1-.337.533.555.555,0,0,1,.236.168.575.575,0,0,1,.079.367v.393H8.858l0-.252a.6.6,0,0,0-.075-.389.467.467,0,0,0-.348-.086H7.92v.727H7.442v-2h1.1a1.126,1.126,0,0,1,.579.1.466.466,0,0,1,.242.443m.765,1.461H9.638v-2h.488Zm5.656,0H15.1l-.906-1.5v1.5h-.973l-.186-.446h-.992l-.18.446h-.559a1,1,0,0,1-.693-.221,1.006,1.006,0,0,1-.255-.763,1.063,1.063,0,0,1,.258-.782.969.969,0,0,1,.726-.233h.463v.428h-.453a.46.46,0,0,0-.368.118.66.66,0,0,0-.137.453.693.693,0,0,0,.131.469.461.461,0,0,0,.333.1h.215l.673-1.572h.716l.809,1.891V97.418h.727l.84,1.392V97.418h.489ZM0,99.81H.816L1,99.366h.412l.184.444H3.2V99.47l.143.341h.834l.143-.346v.344H8.314l0-.729H8.39c.054,0,.07.007.07.1v.633h2.065v-.17a1.635,1.635,0,0,0,.766.17h.869l.186-.444h.412l.182.444h1.674v-.422l.253.422h1.341V97.022H14.88v.329l-.186-.329H13.332v.329l-.171-.329h-1.84a1.653,1.653,0,0,0-.8.163v-.163H9.255v.163a.787.787,0,0,0-.54-.163H4.077l-.311.72-.32-.72H1.985v.329l-.16-.329H.579L0,98.347V99.81Z" transform="translate(0 -91.173)" fill="#fff"/>
      <path id="Path_602" data-name="Path 602" d="M69.687,154.886h-.871a.331.331,0,0,0-.193.036.156.156,0,0,0-.07.144.151.151,0,0,0,.1.149.544.544,0,0,0,.184.023l.259.007a.755.755,0,0,1,.542.161.26.26,0,0,1,.044.049m0,.749a.744.744,0,0,1-.648.256h-.923v-.429h.919a.271.271,0,0,0,.193-.05.176.176,0,0,0,.057-.13.164.164,0,0,0-.058-.132.242.242,0,0,0-.168-.044c-.449-.015-1.008.014-1.008-.619,0-.29.184-.6.685-.6h.952v-.4H68.8a1,1,0,0,0-.6.163v-.163H66.9a.9.9,0,0,0-.571.163v-.163H63.991v.163a1.243,1.243,0,0,0-.644-.163H61.806v.163a1.089,1.089,0,0,0-.673-.163H59.408l-.394.427-.37-.427H56.069v2.79H58.6l.406-.434.383.434h1.558V156.2H61.1a1.625,1.625,0,0,0,.665-.1v.753h1.285v-.727h.062c.079,0,.087,0,.087.082v.645h3.9a1.113,1.113,0,0,0,.65-.179v.179h1.238a1.659,1.659,0,0,0,.7-.129Zm-1.906-.8a.556.556,0,0,1,.143.424c0,.43-.269.631-.751.631h-.931v-.429h.927a.28.28,0,0,0,.2-.05.177.177,0,0,0,.057-.13.171.171,0,0,0-.058-.132.251.251,0,0,0-.17-.044c-.447-.015-1.006.014-1.006-.619,0-.29.182-.6.683-.6h.958v.426h-.876a.323.323,0,0,0-.191.036.168.168,0,0,0,.033.293.549.549,0,0,0,.186.023l.257.007a.771.771,0,0,1,.546.161m-4.311-.124a.457.457,0,0,1-.236.041h-.58v-.449h.588a.472.472,0,0,1,.228.036.19.19,0,0,1,.1.18.215.215,0,0,1-.1.192m.289.249a.52.52,0,0,1,.234.168.581.581,0,0,1,.079.365v.4h-.48v-.25c0-.12.012-.3-.077-.391a.463.463,0,0,0-.351-.089h-.511v.73h-.48v-2h1.1a1.182,1.182,0,0,1,.575.094A.468.468,0,0,1,64.1,155a.56.56,0,0,1-.339.532m.6-1.07h1.595v.414H64.838v.363h1.091v.408H64.838v.4l1.119,0v.415H64.362Zm-3.223.923h-.617v-.509h.623c.173,0,.292.07.292.245s-.114.264-.3.264m-1.093.895-.734-.814.734-.788Zm-1.894-.235H56.976v-.4h1.049v-.408H56.976v-.363h1.2l.523.583Zm3.8-.924c0,.555-.414.67-.832.67h-.6v.671h-.929L59,155.8l-.611.662H56.5v-2h1.922l.588.655.608-.655h1.527c.379,0,.805.1.805.659" transform="translate(-52.689 -144.775)" fill="#fff"/>
    </g>
  </g>
</svg>
