<?xml version="1.0" encoding="utf-8"?>
<!-- Generator: Adobe Illustrator 24.0.2, SVG Export Plug-In . SVG Version: 6.00 Build 0)  -->
<svg version="1.1" id="Layer_1" xmlns="http://www.w3.org/2000/svg" xmlns:xlink="http://www.w3.org/1999/xlink" x="0px" y="0px"
	 viewBox="0 0 152 152" style="enable-background:new 0 0 152 152;" xml:space="preserve">
<style type="text/css">
	.st0{fill:#67B8FC;}
	.st1{fill:#FFFFFF;}
</style>
<g id="Group_910" transform="translate(-977 -327)">
	<g transform="matrix(1, 0, 0, 1, 977, 327)">
		<path id="Rectangle_937-2" class="st0" d="M19,9h114c5.5,0,10,4.5,10,10v114c0,5.5-4.5,10-10,10H19c-5.5,0-10-4.5-10-10V19
			C9,13.5,13.5,9,19,9z"/>
	</g>
	<g id="browser" transform="translate(1022 376)">
		<g id="Group_777">
			<path id="Path_225" class="st1" d="M60.1,0H1.8C0.8,0,0,0.8,0,1.8c0,0,0,0,0,0v50.8c0,1,0.8,1.8,1.8,1.8c0,0,0,0,0,0h58.3
				c1,0,1.8-0.8,1.8-1.8c0,0,0,0,0,0V1.8C61.9,0.8,61.1,0,60.1,0C60.1,0,60.1,0,60.1,0z M58.3,50.8H3.6V18.1h54.6V50.8z M58.3,14.5
				H3.6V3.6h54.6V14.5z M9.2,10.9h3.6c1,0,1.8-0.8,1.8-1.8c0-1-0.8-1.8-1.8-1.8c0,0,0,0,0,0H9.2c-1,0-1.8,0.8-1.8,1.8
				C7.4,10.1,8.2,10.9,9.2,10.9C9.2,10.9,9.2,10.9,9.2,10.9z M20.1,10.9h3.6c1,0,1.8-0.8,1.8-1.8c0-1-0.8-1.8-1.8-1.8c0,0,0,0,0,0
				h-3.6c-1,0-1.8,0.8-1.8,1.8C18.2,10.1,19.1,10.9,20.1,10.9C20.1,10.9,20.1,10.9,20.1,10.9L20.1,10.9z M30.9,10.9h3.6
				c1,0,1.8-0.8,1.8-1.8c0-1-0.8-1.8-1.8-1.8c0,0,0,0,0,0h-3.6c-1,0-1.8,0.8-1.8,1.8C29.1,10.1,29.9,10.9,30.9,10.9L30.9,10.9z
				 M12.8,39.9h14.5c1,0,1.8-0.8,1.8-1.8c0,0,0,0,0,0V23.6c0-1-0.8-1.8-1.8-1.8c0,0,0,0,0,0H12.8c-1,0-1.8,0.8-1.8,1.8v14.5
				C11,39.1,11.8,39.9,12.8,39.9C12.8,39.9,12.8,39.9,12.8,39.9z M14.6,25.4h10.9v10.9H14.6V25.4z M34.6,25.4h14.5
				c1,0,1.8-0.8,1.8-1.8c0-1-0.8-1.8-1.8-1.8c0,0,0,0,0,0H34.6c-1,0-1.8,0.8-1.8,1.8C32.8,24.6,33.6,25.4,34.6,25.4
				C34.6,25.4,34.6,25.4,34.6,25.4z M34.6,32.6h14.5c1,0,1.8-0.8,1.8-1.8c0-1-0.8-1.8-1.8-1.8c0,0,0,0,0,0H34.6
				c-1,0-1.8,0.8-1.8,1.8C32.8,31.8,33.6,32.6,34.6,32.6C34.6,32.6,34.6,32.6,34.6,32.6z M34.6,39.9h14.5c1,0,1.8-0.8,1.8-1.8
				c0-1-0.8-1.8-1.8-1.8c0,0,0,0,0,0H34.6c-1,0-1.8,0.8-1.8,1.8C32.8,39.1,33.6,39.9,34.6,39.9C34.6,39.9,34.6,39.9,34.6,39.9z
				 M12.8,47.1h36.3c1,0,1.8-0.8,1.8-1.8c0-1-0.8-1.8-1.8-1.8c0,0,0,0,0,0H12.8c-1,0-1.8,0.8-1.8,1.8C11,46.3,11.8,47.1,12.8,47.1
				C12.8,47.1,12.8,47.1,12.8,47.1z"/>
		</g>
	</g>
</g>
</svg>
