<svg xmlns="http://www.w3.org/2000/svg" viewBox="0 0 61 61" width="61" height="61">
	<style>
		tspan { white-space:pre }
		.shp0 { fill: #ffffff } 
	</style>
	<path id="Path 506" fill-rule="evenodd" class="shp0" d="M60.61 6.07L60.61 55.57C60.61 58.35 58.35 60.62 55.56 60.62L5.05 60.62C2.27 60.62 0 58.35 0 55.57L0 6.07C0 5.51 0.45 5.06 1.01 5.06L5.05 5.06L5.05 3.03C5.05 1.36 6.41 0 8.08 0C9.75 0 11.11 1.36 11.11 3.03L11.11 5.06L16.16 5.06L16.16 3.03C16.16 1.36 17.52 0 19.19 0C20.86 0 22.22 1.36 22.22 3.03L22.22 5.06L27.28 5.06L27.28 3.03C27.28 1.36 28.63 0 30.31 0C31.98 0 33.34 1.36 33.34 3.03L33.34 5.06L38.39 5.06L38.39 3.03C38.39 1.36 39.75 0 41.42 0C43.09 0 44.45 1.36 44.45 3.03L44.45 5.06L49.5 5.06L49.5 3.03C49.5 1.36 50.86 0 52.53 0C54.2 0 55.56 1.36 55.56 3.03L55.56 5.06L59.6 5.06C60.16 5.06 60.61 5.51 60.61 6.07ZM51.52 9.1C51.52 9.65 51.97 10.11 52.53 10.11C53.09 10.11 53.54 9.65 53.54 9.1L53.54 3.03C53.54 2.48 53.09 2.02 52.53 2.02C51.97 2.02 51.52 2.48 51.52 3.03L51.52 9.1ZM40.41 9.1C40.41 9.65 40.86 10.11 41.42 10.11C41.97 10.11 42.43 9.65 42.43 9.1L42.43 3.03C42.43 2.48 41.97 2.02 41.42 2.02C40.86 2.02 40.41 2.48 40.41 3.03L40.41 9.1ZM29.3 9.1C29.3 9.65 29.75 10.11 30.31 10.11C30.86 10.11 31.32 9.65 31.32 9.1L31.32 3.03C31.32 2.48 30.86 2.02 30.31 2.02C29.75 2.02 29.3 2.48 29.3 3.03L29.3 9.1ZM18.18 9.1C18.18 9.65 18.64 10.11 19.19 10.11C19.75 10.11 20.2 9.65 20.2 9.1L20.2 3.03C20.2 2.48 19.75 2.02 19.19 2.02C18.64 2.02 18.18 2.48 18.18 3.03L18.18 9.1ZM7.07 9.1C7.07 9.65 7.52 10.11 8.08 10.11C8.64 10.11 9.09 9.65 9.09 9.1L9.09 3.03C9.09 2.48 8.64 2.02 8.08 2.02C7.52 2.02 7.07 2.48 7.07 3.03L7.07 9.1ZM2.02 7.08L2.02 16.17L58.59 16.17L58.59 7.08L55.56 7.08L55.56 9.1C55.56 10.77 54.2 12.13 52.53 12.13C50.86 12.13 49.5 10.77 49.5 9.1L49.5 7.08L44.45 7.08L44.45 9.1C44.45 10.77 43.09 12.13 41.42 12.13C39.75 12.13 38.39 10.77 38.39 9.1L38.39 7.08L33.34 7.08L33.34 9.1C33.34 10.77 31.98 12.13 30.31 12.13C28.63 12.13 27.28 10.77 27.28 9.1L27.28 7.08L22.22 7.08L22.22 9.1C22.22 10.77 20.86 12.13 19.19 12.13C17.52 12.13 16.16 10.77 16.16 9.1L16.16 7.08L11.11 7.08L11.11 9.1C11.11 10.77 9.75 12.13 8.08 12.13C6.41 12.13 5.05 10.77 5.05 9.1L5.05 7.08L2.02 7.08ZM58.59 55.57L58.59 18.19L2.02 18.19L2.02 55.57C2.02 57.24 3.38 58.6 5.05 58.6L55.56 58.6C57.23 58.6 58.59 57.24 58.59 55.57ZM28.29 21.22L28.29 29.3C28.29 29.86 27.83 30.31 27.28 30.31L19.19 30.31C18.64 30.31 18.18 29.86 18.18 29.3L18.18 21.22C18.18 20.66 18.64 20.21 19.19 20.21L27.28 20.21C27.83 20.21 28.29 20.66 28.29 21.22ZM26.27 22.23L20.2 22.23L20.2 28.29L26.27 28.29L26.27 22.23ZM14.14 21.22L14.14 29.3C14.14 29.86 13.69 30.31 13.13 30.31L5.05 30.31C4.49 30.31 4.04 29.86 4.04 29.3L4.04 21.22C4.04 20.66 4.49 20.21 5.05 20.21L13.13 20.21C13.69 20.21 14.14 20.66 14.14 21.22ZM12.12 22.23L6.06 22.23L6.06 28.29L12.12 28.29L12.12 22.23ZM42.43 21.22L42.43 29.3C42.43 29.86 41.98 30.31 41.42 30.31L33.34 30.31C32.78 30.31 32.33 29.86 32.33 29.3L32.33 21.22C32.33 20.66 32.78 20.21 33.34 20.21L41.42 20.21C41.98 20.21 42.43 20.66 42.43 21.22ZM40.41 22.23L34.35 22.23L34.35 28.29L40.41 28.29L40.41 22.23ZM56.57 21.22L56.57 29.3C56.57 29.86 56.12 30.31 55.56 30.31L47.48 30.31C46.92 30.31 46.47 29.86 46.47 29.3L46.47 21.22C46.47 20.66 46.92 20.21 47.48 20.21L55.56 20.21C56.12 20.21 56.57 20.66 56.57 21.22ZM54.55 22.23L48.49 22.23L48.49 28.29L54.55 28.29L54.55 22.23ZM14.14 34.35L14.14 42.43C14.14 42.99 13.69 43.44 13.13 43.44L5.05 43.44C4.49 43.44 4.04 42.99 4.04 42.43L4.04 34.35C4.04 33.79 4.49 33.34 5.05 33.34L13.13 33.34C13.69 33.34 14.14 33.79 14.14 34.35ZM12.12 35.36L6.06 35.36L6.06 41.42L12.12 41.42L12.12 35.36ZM28.29 34.35L28.29 42.43C28.29 42.99 27.83 43.44 27.28 43.44L19.19 43.44C18.64 43.44 18.18 42.99 18.18 42.43L18.18 34.35C18.18 33.79 18.64 33.34 19.19 33.34L27.28 33.34C27.83 33.34 28.29 33.79 28.29 34.35ZM26.27 35.36L20.2 35.36L20.2 41.42L26.27 41.42L26.27 35.36ZM42.43 34.35L42.43 42.43C42.43 42.99 41.98 43.44 41.42 43.44L33.34 43.44C32.78 43.44 32.33 42.99 32.33 42.43L32.33 34.35C32.33 33.79 32.78 33.34 33.34 33.34L41.42 33.34C41.98 33.34 42.43 33.79 42.43 34.35ZM40.41 35.36L34.35 35.36L34.35 41.42L40.41 41.42L40.41 35.36ZM56.57 34.35L56.57 42.43C56.57 42.99 56.12 43.44 55.56 43.44L47.48 43.44C46.92 43.44 46.47 42.99 46.47 42.43L46.47 34.35C46.47 33.79 46.92 33.34 47.48 33.34L55.56 33.34C56.12 33.34 56.57 33.79 56.57 34.35ZM54.55 35.36L48.49 35.36L48.49 41.42L54.55 41.42L54.55 35.36ZM56.57 47.48L56.57 55.57C56.57 56.12 56.12 56.58 55.56 56.58L47.48 56.58C46.92 56.58 46.47 56.12 46.47 55.57L46.47 47.48C46.47 46.93 46.92 46.47 47.48 46.47L55.56 46.47C56.12 46.47 56.57 46.93 56.57 47.48ZM54.55 48.49L48.49 48.49L48.49 54.55L54.55 54.55L54.55 48.49ZM14.14 47.48L14.14 55.57C14.14 56.12 13.69 56.58 13.13 56.58L5.05 56.58C4.49 56.58 4.04 56.12 4.04 55.57L4.04 47.48C4.04 46.93 4.49 46.47 5.05 46.47L13.13 46.47C13.69 46.47 14.14 46.93 14.14 47.48ZM12.12 48.49L6.06 48.49L6.06 54.55L12.12 54.55L12.12 48.49ZM28.29 47.48L28.29 55.57C28.29 56.12 27.83 56.58 27.28 56.58L19.19 56.58C18.64 56.58 18.18 56.12 18.18 55.57L18.18 47.48C18.18 46.93 18.64 46.47 19.19 46.47L27.28 46.47C27.83 46.47 28.29 46.93 28.29 47.48ZM26.27 48.49L20.2 48.49L20.2 54.55L26.27 54.55L26.27 48.49ZM42.43 47.48L42.43 55.57C42.43 56.12 41.98 56.58 41.42 56.58L33.34 56.58C32.78 56.58 32.33 56.12 32.33 55.57L32.33 47.48C32.33 46.93 32.78 46.47 33.34 46.47L41.42 46.47C41.98 46.47 42.43 46.93 42.43 47.48ZM40.41 48.49L34.35 48.49L34.35 54.55L40.41 54.55L40.41 48.49Z" />
</svg>