<svg xmlns="http://www.w3.org/2000/svg" viewBox="0 0 74 74" width="74" height="74">
	<defs>
		<clipPath clipPathUnits="userSpaceOnUse" id="cp1">
			<path d="M-247 -1901L1673 -1901L1673 618L-247 618Z" />
		</clipPath>
	</defs>
	<style>
		tspan { white-space:pre }
		.shp0 { fill: #ffffff } 
	</style>
	<g id="subscription - free" clip-path="url(#cp1)">
		<g id="Group 1788">
			<g id="Group 1763">
				<g id="Group 1761">
					<g id="Group 1743">
						<g id="contract">
							<g id="Group 404">
								<path id="Path 39" fill-rule="evenodd" class="shp0" d="M71.54 32.88L55.97 48.46L55.97 67.54C55.97 71.09 53.09 73.98 49.54 73.98L6.61 73.98C3.06 73.98 0.18 71.09 0.18 67.54L0.18 7.16C0.18 3.61 3.06 0.73 6.61 0.73L43.47 0.73C45.19 0.73 46.8 1.39 48.02 2.61L54.09 8.68C55.3 9.9 55.97 11.51 55.97 13.23L55.97 30.24C56.73 29.49 61.66 24.55 62.43 23.78C64.94 21.27 69.03 21.27 71.54 23.78C74.05 26.29 74.05 30.37 71.54 32.88ZM43.1 13.6L51.68 13.6C51.68 13.14 51.73 12.4 51.05 11.72L44.98 5.65C44.28 4.95 43.5 5.02 43.1 5.02L43.1 13.6ZM51.68 67.54L51.68 52.75L51.42 53.01C51.19 53.25 50.9 53.43 50.58 53.53L41.48 56.57C40.71 56.82 39.86 56.62 39.28 56.05C38.71 55.47 38.51 54.62 38.76 53.85L41.8 44.75C41.9 44.43 42.08 44.14 42.32 43.91L45.35 40.87C45.35 40.87 51.68 34.54 51.68 34.54L51.68 17.89L40.95 17.89C39.77 17.89 38.8 16.93 38.8 15.75L38.8 5.02L6.61 5.02C5.43 5.02 4.47 5.98 4.47 7.16L4.47 67.54C4.47 68.72 5.43 69.69 6.61 69.69L49.54 69.69C50.72 69.69 51.68 68.72 51.68 67.54ZM45.71 46.58L44.19 51.14L48.74 49.62L49.9 48.46L46.87 45.42L45.71 46.58ZM63.25 35.1L60.22 32.06C58.7 33.59 51.52 40.77 49.9 42.39L52.94 45.42L63.25 35.1ZM68.5 26.81C67.66 25.98 66.3 25.98 65.47 26.81L63.25 29.03L66.29 32.06L68.5 29.85C69.34 29.01 69.34 27.65 68.5 26.81Z" />
							</g>
							<g id="Group 406">
								<path id="Path 40" class="shp0" d="M40.95 22.19L10.91 22.19C9.72 22.19 8.76 23.15 8.76 24.33C8.76 25.52 9.72 26.48 10.91 26.48L40.95 26.48C42.14 26.48 43.1 25.52 43.1 24.33C43.1 23.15 42.14 22.19 40.95 22.19Z" />
							</g>
							<g id="Group 408">
								<path id="Path 41" class="shp0" d="M32.37 30.77L10.91 30.77C9.72 30.77 8.76 31.73 8.76 32.92C8.76 34.1 9.72 35.06 10.91 35.06L32.37 35.06C33.55 35.06 34.51 34.1 34.51 32.92C34.51 31.73 33.55 30.77 32.37 30.77Z" />
							</g>
							<g id="Group 410">
								<path id="Path 42" class="shp0" d="M32.37 39.35L10.91 39.35C9.72 39.35 8.76 40.32 8.76 41.5C8.76 42.69 9.72 43.65 10.91 43.65L32.37 43.65C33.55 43.65 34.51 42.69 34.51 41.5C34.51 40.32 33.55 39.35 32.37 39.35Z" />
							</g>
							<g id="Group 412">
								<path id="Path 43" class="shp0" d="M32.37 47.94L10.91 47.94C9.72 47.94 8.76 48.9 8.76 50.09C8.76 51.27 9.72 52.23 10.91 52.23L32.37 52.23C33.55 52.23 34.51 51.27 34.51 50.09C34.51 48.9 33.55 47.94 32.37 47.94Z" />
							</g>
							<g id="Group 414">
								<path id="Path 44" class="shp0" d="M40.95 61.1L28.07 61.1C26.89 61.1 25.93 62.06 25.93 63.25C25.93 64.43 26.89 65.39 28.07 65.39L40.95 65.39C42.14 65.39 43.1 64.43 43.1 63.25C43.1 62.06 42.14 61.1 40.95 61.1Z" />
							</g>
						</g>
					</g>
				</g>
			</g>
		</g>
	</g>
</svg>