<svg xmlns="http://www.w3.org/2000/svg" viewBox="0 0 62 42" width="62" height="42">
	<style>
		tspan { white-space:pre }
		.shp0 { fill: #ffffff } 
	</style>
	<path id="crown" fill-rule="evenodd" class="shp0" d="M59.08 13.01C59.09 13.18 59.08 13.35 59.03 13.52L55.24 28.7C55.05 29.46 54.36 30 53.58 30L30.82 30.12C30.81 30.12 30.81 30.12 30.81 30.12L8.05 30.12C7.25 30.12 6.56 29.58 6.37 28.81L2.58 13.58C2.54 13.4 2.52 13.23 2.53 13.05C1.07 12.59 0 11.22 0 9.6C0 7.6 1.62 5.98 3.62 5.98C5.62 5.98 7.24 7.6 7.24 9.6C7.24 10.72 6.73 11.73 5.92 12.39L10.67 17.18C11.87 18.39 13.54 19.08 15.24 19.08C17.25 19.08 19.18 18.13 20.39 16.52L28.19 6.18C27.53 5.52 27.13 4.62 27.13 3.62C27.13 1.62 28.75 0 30.75 0C32.75 0 34.37 1.62 34.37 3.62C34.37 4.59 33.99 5.47 33.36 6.12C33.37 6.12 33.37 6.12 33.37 6.13L41.12 16.5C42.33 18.12 44.26 19.08 46.28 19.08C48 19.08 49.62 18.41 50.83 17.2L55.61 12.42C54.79 11.75 54.26 10.74 54.26 9.6C54.26 7.6 55.88 5.98 57.88 5.98C59.88 5.98 61.5 7.6 61.5 9.6C61.5 11.17 60.49 12.51 59.08 13.01ZM54.87 39.66C54.87 40.61 54.1 41.38 53.15 41.38L8.54 41.38C7.59 41.38 6.82 40.61 6.82 39.66L6.82 35.52C6.82 34.57 7.59 33.8 8.54 33.8L53.15 33.8C54.1 33.8 54.87 34.57 54.87 35.52L54.87 39.66Z" />
</svg>