<?xml version="1.0" encoding="utf-8"?>
<!-- Generator: Adobe Illustrator 24.0.2, SVG Export Plug-In . SVG Version: 6.00 Build 0)  -->
<svg version="1.1" id="Layer_1" xmlns="http://www.w3.org/2000/svg" xmlns:xlink="http://www.w3.org/1999/xlink" x="0px" y="0px"
	 viewBox="0 0 103 103" style="enable-background:new 0 0 103 103;" xml:space="preserve">
<style type="text/css">
	.st0{fill:#67B8FC;}
	.st1{fill:#FFFFFF;}
</style>
<g id="Component_3_1" transform="translate(9 9)">
	<g transform="matrix(1, 0, 0, 1, -9, -9)">
		<circle id="Ellipse_89-2" class="st0" cx="51.5" cy="51.5" r="42.5"/>
	</g>
	<g id="grammar" transform="translate(16.43 18.581)">
		<path id="Path_133" class="st1" d="M4.4,27.3h6.5c2.4,0,4.4-2,4.4-4.4v-6.5c0-0.2,0-0.4-0.1-0.5c0-0.2,0.1-0.4,0.1-0.5V9.8
			c0-3-2.4-5.4-5.5-5.5H5.5C4,4.4,2.6,4.9,1.6,6C0.7,6.8,0.7,8.2,1.6,9c0.8,0.9,2.2,0.9,3.1,0c0,0,0,0,0,0c0.2-0.2,0.5-0.3,0.8-0.3
			h4.4c0.6,0,1.1,0.5,1.1,1.1v3.3H6.5C2.9,13.1,0,16,0,19.6v3.3C0,25.3,2,27.3,4.4,27.3z M4.4,19.6c0-1.2,1-2.2,2.2-2.2h4.4v5.5H4.4
			V19.6z"/>
		<path id="Path_134" class="st1" d="M28.4,10.9h-5.5V2.2c0-1.2-1-2.2-2.2-2.2c-1.2,0-2.2,1-2.2,2.2v22.9c0,1.2,1,2.2,2.2,2.2h7.6
			c3,0,5.4-2.4,5.5-5.5v-5.5C33.8,13.3,31.4,10.9,28.4,10.9z M29.4,21.8c0,0.6-0.5,1.1-1.1,1.1h-5.5v-7.6h5.5c0.6,0,1.1,0.5,1.1,1.1
			L29.4,21.8z"/>
		<path id="Path_135" class="st1" d="M50.2,22.9h-5.5c-1.8,0-3.3-1.5-3.3-3.3v-3.3c0-1.8,1.5-3.3,3.3-3.3h5.5c1.2,0,2.2-1,2.2-2.2
			c0-1.2-1-2.2-2.2-2.2h-5.5c-4.2,0-7.6,3.4-7.6,7.6v3.3c0,4.2,3.4,7.6,7.6,7.6h5.5c1.2,0,2.2-1,2.2-2.2
			C52.3,23.9,51.4,22.9,50.2,22.9z"/>
		<path id="Path_136" class="st1" d="M26.2,50.2c0.6,0,1.1-0.2,1.5-0.6L43,34.3c0.8-0.9,0.8-2.2,0-3.1c-0.8-0.8-2.2-0.8-3,0
			L26.2,44.9l-8.3-8.3c-0.9-0.8-2.2-0.8-3.1,0c-0.8,0.8-0.8,2.2,0,3l9.8,9.8C25,49.9,25.6,50.2,26.2,50.2z"/>
	</g>
</g>
</svg>
