<svg xmlns="http://www.w3.org/2000/svg" xmlns:xlink="http://www.w3.org/1999/xlink" width="103" height="103" viewBox="0 0 103 103">
  <defs>
    <filter id="Ellipse_89" x="0" y="0" width="103" height="103" filterUnits="userSpaceOnUse">
      <feOffset input="SourceAlpha"/>
      <feGaussianBlur stdDeviation="3" result="blur"/>
      <feFlood flood-opacity="0.302"/>
      <feComposite operator="in" in2="blur"/>
      <feComposite in="SourceGraphic"/>
    </filter>
  </defs>
  <g id="Group_807" data-name="Group 807" transform="translate(-773 -2213)">
    <g id="Group_549" data-name="Group 549" transform="translate(782.272 2222.404)">
      <g transform="matrix(1, 0, 0, 1, -9.27, -9.4)" filter="url(#Ellipse_89)">
        <circle id="Ellipse_89-2" data-name="Ellipse 89" cx="42.5" cy="42.5" r="42.5" transform="translate(9 9)" fill="#67b8fc"/>
      </g>
      <g id="grammar" transform="translate(16.158 18.177)">
        <path id="Path_133" data-name="Path 133" d="M12.362,36.9h6.544a4.367,4.367,0,0,0,4.362-4.362V26a2.141,2.141,0,0,0-.069-.545,2.141,2.141,0,0,0,.069-.545V19.453A5.459,5.459,0,0,0,17.816,14H13.453A5.416,5.416,0,0,0,9.6,15.6a2.181,2.181,0,1,0,3.084,3.084,1.087,1.087,0,0,1,.77-.321h4.362a1.092,1.092,0,0,1,1.091,1.091v3.272H14.544A6.55,6.55,0,0,0,8,29.269V32.54A4.367,4.367,0,0,0,12.362,36.9Zm0-7.634a2.183,2.183,0,0,1,2.181-2.181h4.362v5.453H12.362Z" transform="translate(-8 -9.638)" fill="#fff"/>
        <path id="Path_134" data-name="Path 134" d="M34.816,20.906H29.362V12.181a2.181,2.181,0,0,0-4.362,0v22.9a2.182,2.182,0,0,0,2.181,2.181h7.634a5.459,5.459,0,0,0,5.453-5.453V26.359A5.459,5.459,0,0,0,34.816,20.906Zm1.091,10.906A1.092,1.092,0,0,1,34.816,32.9H29.362V25.269h5.453a1.092,1.092,0,0,1,1.091,1.091Z" transform="translate(-6.459 -10)" fill="#fff"/>
        <path id="Path_135" data-name="Path 135" d="M55.087,32.178H49.634a3.276,3.276,0,0,1-3.272-3.272V25.634a3.276,3.276,0,0,1,3.272-3.272h5.453a2.181,2.181,0,0,0,0-4.362H49.634A7.643,7.643,0,0,0,42,25.634v3.272a7.643,7.643,0,0,0,7.634,7.634h5.453a2.181,2.181,0,0,0,0-4.362Z" transform="translate(-4.919 -9.275)" fill="#fff"/>
        <path id="Path_136" data-name="Path 136" d="M33,57.631a2.173,2.173,0,0,0,1.542-.639L49.808,41.723a2.181,2.181,0,0,0-3.084-3.084L33,52.366l-8.273-8.273a2.181,2.181,0,0,0-3.084,3.084l9.816,9.816A2.173,2.173,0,0,0,33,57.631Z" transform="translate(-6.822 -7.463)" fill="#fff"/>
      </g>
    </g>
  </g>
</svg>
