<?xml version="1.0" encoding="utf-8"?>
<!-- Generator: Adobe Illustrator 24.0.2, SVG Export Plug-In . SVG Version: 6.00 Build 0)  -->
<svg version="1.1" id="Layer_1" xmlns="http://www.w3.org/2000/svg" xmlns:xlink="http://www.w3.org/1999/xlink" x="0px" y="0px"
	 viewBox="0 0 152 152" style="enable-background:new 0 0 152 152;" xml:space="preserve">
<style type="text/css">
	.st0{fill:#E8342B;}
	.st1{fill:#FFFFFF;stroke:#FFFFFF;stroke-width:0.5;}
</style>
<g id="Group_911" transform="translate(-563 -327)">
	<g transform="matrix(1, 0, 0, 1, 563, 327)">
		<path id="Rectangle_937-2" class="st0" d="M19,9h114c5.5,0,10,4.5,10,10v114c0,5.5-4.5,10-10,10H19c-5.5,0-10-4.5-10-10V19
			C9,13.5,13.5,9,19,9z"/>
	</g>
	<path id="js-format" class="st1" d="M650.9,372.3c-0.2-0.2-0.5-0.3-0.7-0.3h-28.9c-4,0-7.2,3.2-7.2,7.2v47.5c0,4,3.2,7.2,7.2,7.2
		h35.1c4,0,7.2-3.2,7.2-7.2v-41.3c0-0.3-0.1-0.5-0.3-0.7L650.9,372.3z M651.2,375.5l8.9,8.9h-3.7c-2.8,0-5.2-2.3-5.2-5.2
		L651.2,375.5z M621.2,374.1h27.9v5.2c0,4,3.2,7.2,7.2,7.2h5.2v28.9h-45.4v-36.1C616.1,376.4,618.4,374.1,621.2,374.1L621.2,374.1z
		 M656.3,431.9h-35.1c-2.8,0-5.2-2.3-5.2-5.2v-9.3h45.4v9.3C661.5,429.5,659.2,431.9,656.3,431.9L656.3,431.9z M637.7,420.5v6.2
		c-0.1,1.7-1.5,3-3.2,2.9c-1.6-0.1-2.9-1.4-2.9-2.9c0-0.6,0.5-1,1-1s1,0.5,1,1c0,0.6,0.5,1,1,1c0.6,0,1-0.5,1-1v-6.2
		c0-0.6,0.5-1,1-1S637.7,419.9,637.7,420.5L637.7,420.5z M641.9,422.6c0,0.6,0.5,1,1,1c1.7-0.1,3.2,1.2,3.2,2.9
		c0.1,1.7-1.2,3.2-2.9,3.2c-0.1,0-0.2,0-0.3,0h-2.1c-0.6,0-1-0.5-1-1c0-0.6,0.5-1,1-1h2.1c0.6,0,1-0.5,1-1s-0.5-1-1-1l0,0
		c-1.7-0.1-3-1.5-2.9-3.2c0.1-1.6,1.4-2.9,2.9-2.9h2.1c0.6,0,1,0.5,1,1c0,0.6-0.5,1-1,1l0,0h-2.1C642.3,421.5,641.9,422,641.9,422.6
		z M641.9,397.8c0-0.6,0.5-1,1-1c0.6,0,1,0.5,1,1c0,0.6-0.5,1-1,1l0,0C642.3,398.8,641.9,398.4,641.9,397.8
		C641.9,397.8,641.9,397.8,641.9,397.8L641.9,397.8z M633.6,397.8c0-0.6,0.5-1,1-1s1,0.5,1,1s-0.5,1-1,1l0,0
		C634.1,398.8,633.6,398.4,633.6,397.8C633.6,397.8,633.6,397.8,633.6,397.8L633.6,397.8z M637.7,397.8c0-0.6,0.5-1,1-1s1,0.5,1,1
		c0,0.6-0.5,1-1,1l0,0C638.2,398.8,637.7,398.4,637.7,397.8C637.7,397.8,637.7,397.8,637.7,397.8L637.7,397.8z M624.3,397.8
		c0-0.6,0.5-1,1-1c0.6,0,1-0.5,1-1v-4.1c0-1.7,1.4-3.1,3.1-3.1c0.6,0,1,0.5,1,1s-0.5,1-1,1c0,0,0,0,0,0c-0.6,0-1,0.5-1,1
		c0,0,0,0,0,0v4.1c0,0.8-0.3,1.5-0.8,2.1c0.5,0.6,0.8,1.3,0.8,2.1v4.1c0,0.6,0.5,1,1,1c0.6,0,1,0.5,1,1c0,0.6-0.5,1-1,1c0,0,0,0,0,0
		c-1.7,0-3.1-1.4-3.1-3.1v-4.1c0-0.6-0.5-1-1-1C624.8,398.8,624.3,398.4,624.3,397.8C624.3,397.8,624.3,397.8,624.3,397.8
		L624.3,397.8z M649.1,399.9c0-0.8,0.3-1.5,0.8-2.1c-0.5-0.6-0.8-1.3-0.8-2.1v-4.1c0-0.6-0.5-1-1-1c-0.6,0-1-0.5-1-1
		c0-0.6,0.5-1,1-1c1.7,0,3.1,1.4,3.1,3.1v4.1c0,0.6,0.5,1,1,1c0.6,0,1,0.5,1,1c0,0.6-0.5,1-1,1c0,0,0,0,0,0c-0.6,0-1,0.5-1,1v4.1
		c0,1.7-1.4,3.1-3.1,3.1c-0.6,0-1-0.5-1-1c0-0.6,0.5-1,1-1c0.6,0,1-0.5,1-1c0,0,0,0,0,0L649.1,399.9z"/>
</g>
</svg>
