<svg xmlns="http://www.w3.org/2000/svg" viewBox="0 0 72 67" width="72" height="67">
	<defs>
		<clipPath clipPathUnits="userSpaceOnUse" id="cp1">
			<path d="M-1046 -1907L874 -1907L874 612L-1046 612Z" />
		</clipPath>
	</defs>
	<style>
		tspan { white-space:pre }
		.shp0 { fill: #ffffff } 
	</style>
	<g id="subscription - free" clip-path="url(#cp1)">
		<g id="Group 1788">
			<g id="Group 1763">
				<g id="Group 1761">
					<g id="Group 1760">
						<path id="Path 18" class="shp0" d="M65.85 18.18C66.33 17.38 66.51 16.59 66.16 16.09C52.36 -5.38 18.85 -5.35 5.06 16.09C4.71 16.59 4.89 17.36 5.35 18.16C3.26 21.83 -2.54 33.82 1.26 47.92C0.91 49.43 0.85 51.13 1.17 52.88C1.89 56.81 4.27 59.86 6.96 60.73L5.39 52.22L7.23 62.18C7.44 63.42 8.68 64.26 9.92 64.02C10.26 65.83 13.18 66.52 15.69 66.22L15.69 66.23C15.78 66.22 15.87 66.2 15.97 66.19C15.98 66.18 16 66.18 16.01 66.18C16.71 66.08 17.37 65.89 17.92 65.62C17.96 65.6 17.99 65.58 18.03 65.56C18.09 65.53 18.15 65.5 18.21 65.46C18.26 65.43 18.32 65.4 18.37 65.36C18.4 65.34 18.44 65.32 18.47 65.29C18.53 65.25 18.59 65.21 18.65 65.16C18.67 65.14 18.69 65.12 18.71 65.1C18.77 65.05 18.82 65 18.88 64.95C18.89 64.93 18.91 64.92 18.92 64.9C18.97 64.84 19.02 64.79 19.06 64.73C19.08 64.71 19.09 64.69 19.1 64.67C19.14 64.61 19.18 64.55 19.21 64.49C19.22 64.47 19.23 64.45 19.24 64.43C19.27 64.37 19.3 64.3 19.32 64.24C19.33 64.21 19.33 64.18 19.34 64.15C19.36 64.1 19.37 64.04 19.38 63.97C19.39 63.93 19.39 63.89 19.39 63.84C19.39 63.79 19.4 63.74 19.4 63.69C19.4 63.59 19.39 63.49 19.37 63.39C18.55 58.92 17.74 54.45 16.89 49.98C16.08 45.55 15.26 41.08 14.45 36.61C14.42 36.48 14.38 36.37 14.34 36.25C14.33 36.23 14.31 36.2 14.3 36.18C14.26 36.09 14.22 36.02 14.17 35.94C14.15 35.92 14.13 35.89 14.11 35.86C14.06 35.8 14 35.73 13.94 35.68C13.92 35.65 13.9 35.63 13.87 35.61C13.8 35.55 13.72 35.49 13.63 35.44C13.59 35.41 13.54 35.39 13.49 35.36C13.43 35.33 13.36 35.29 13.29 35.26C13.22 35.23 13.14 35.21 13.07 35.19C13.03 35.18 13 35.16 12.96 35.15C12.87 35.13 12.78 35.11 12.68 35.09L12.64 35.08C11.5 34.88 10 35.14 8.64 35.7C8.59 35.72 8.55 35.74 8.5 35.77C8.41 35.8 8.32 35.84 8.24 35.88C6.49 36.7 5.13 38 5.39 39.36C4.12 39.6 3.28 40.81 3.52 42.08L3.79 43.53C3.43 43.82 3.1 44.17 2.8 44.56C2.15 36.59 3.87 26.97 8.06 20.83C8.17 20.89 8.28 20.95 8.38 20.99L8.38 21.01C8.91 21.25 9.41 21.34 9.81 21.2L9.83 21.2C9.88 21.18 9.94 21.16 9.99 21.13C10.01 21.12 10.02 21.11 10.04 21.09C10.08 21.07 10.12 21.04 10.16 21.01C10.21 20.97 10.26 20.92 10.31 20.86C24.32 4.37 47.41 4.34 60.9 20.86C60.95 20.92 61 20.97 61.06 21.01C61.1 21.04 61.13 21.07 61.17 21.09C61.19 21.11 61.21 21.12 61.23 21.13C61.28 21.16 61.33 21.18 61.39 21.2L61.4 21.2C61.81 21.34 62.31 21.25 62.84 21.01L62.83 20.99C62.94 20.95 63.05 20.89 63.15 20.83C67.35 26.97 69.07 36.59 68.42 44.56C68.12 44.17 67.79 43.82 67.43 43.53L67.7 42.08C67.94 40.81 67.09 39.6 65.83 39.36C66.08 38 64.72 36.7 62.98 35.88C62.89 35.84 62.81 35.8 62.72 35.77C62.67 35.74 62.62 35.72 62.57 35.7C61.22 35.14 59.72 34.88 58.58 35.08L58.54 35.09C58.44 35.11 58.35 35.13 58.26 35.15C58.22 35.16 58.18 35.18 58.15 35.19C58.07 35.21 58 35.23 57.93 35.26C57.86 35.29 57.79 35.33 57.72 35.36C57.67 35.39 57.63 35.41 57.58 35.44C57.5 35.49 57.42 35.55 57.34 35.61C57.32 35.63 57.3 35.65 57.27 35.68C57.21 35.73 57.16 35.8 57.1 35.86C57.08 35.89 57.07 35.92 57.05 35.94C57 36.02 56.95 36.09 56.92 36.18C56.9 36.2 56.89 36.23 56.88 36.25C56.83 36.37 56.79 36.48 56.77 36.61C55.95 41.08 55.14 45.55 54.32 49.98C53.48 54.45 52.66 58.92 51.85 63.39C51.83 63.49 51.82 63.59 51.82 63.69C51.82 63.74 51.82 63.79 51.83 63.84C51.83 63.89 51.83 63.93 51.84 63.97C51.84 64.04 51.86 64.1 51.88 64.15C51.89 64.18 51.89 64.21 51.9 64.24C51.92 64.3 51.95 64.37 51.98 64.43C51.99 64.45 52 64.47 52.01 64.49C52.04 64.55 52.08 64.61 52.12 64.67C52.13 64.69 52.14 64.71 52.15 64.73C52.2 64.79 52.24 64.84 52.29 64.9C52.31 64.92 52.33 64.93 52.34 64.95C52.39 65 52.45 65.05 52.5 65.1C52.53 65.12 52.55 65.14 52.57 65.16C52.63 65.21 52.68 65.25 52.74 65.29C52.78 65.32 52.81 65.34 52.85 65.36C52.9 65.4 52.95 65.43 53.01 65.46C53.06 65.5 53.13 65.53 53.19 65.56C53.22 65.58 53.26 65.6 53.3 65.62C53.85 65.89 54.5 66.08 55.21 66.18C55.22 66.18 55.24 66.18 55.25 66.19C55.34 66.2 55.44 66.22 55.53 66.23L55.53 66.22C58.04 66.52 60.96 65.83 61.3 64.02C62.53 64.26 63.77 63.42 63.98 62.18L65.85 52.09L64.26 60.73C66.94 59.86 69.33 56.81 70.02 52.88C70.34 51.13 70.3 49.43 69.96 47.93C73.75 33.86 67.96 21.89 65.85 18.18Z" />
					</g>
				</g>
			</g>
		</g>
	</g>
</svg>