<?xml version="1.0" encoding="utf-8"?>
<!-- Generator: Adobe Illustrator 24.0.2, SVG Export Plug-In . SVG Version: 6.00 Build 0)  -->
<svg version="1.1" id="Layer_1" xmlns="http://www.w3.org/2000/svg" xmlns:xlink="http://www.w3.org/1999/xlink" x="0px" y="0px"
	 viewBox="0 0 102 103" style="enable-background:new 0 0 102 103;" xml:space="preserve">
<style type="text/css">
	.st0{fill:#F8C154;}
	.st1{fill:#FFFFFF;}
</style>
<g id="Component_2_1" transform="translate(9 9)">
	<g transform="matrix(1, 0, 0, 1, -9, -9)">
		<ellipse id="Ellipse_77-2" class="st0" cx="51" cy="51.5" rx="42" ry="42.5"/>
	</g>
	<path id="grade" class="st1" d="M53.4,15.5H22.7c-0.5,0-0.9,0.4-0.9,0.9c0,0,0,0,0,0v52.4c0,0.5,0.4,0.9,0.9,0.9l0,0h37.9
		c0.5,0,0.9-0.4,0.9-0.9l0,0V23.6c0-0.2-0.1-0.5-0.3-0.6L54,15.8C53.8,15.6,53.6,15.5,53.4,15.5z M54.3,18.6l4.1,4.1h-4.1L54.3,18.6
		z M23.6,67.9V17.3h28.9v6.3c0,0.5,0.4,0.9,0.9,0.9l0,0h6.3v43.3L23.6,67.9z M26.3,21.8c0-0.5,0.4-0.9,0.9-0.9l0,0h9.9
		c0.5,0,0.9,0.4,0.9,0.9s-0.4,0.9-0.9,0.9l0,0h-9.9C26.7,22.7,26.3,22.3,26.3,21.8C26.3,21.8,26.3,21.8,26.3,21.8L26.3,21.8z
		 M26.3,25.5c0-0.5,0.4-0.9,0.9-0.9l0,0h13.5c0.5,0,0.9,0.4,0.9,0.9s-0.4,0.9-0.9,0.9l0,0H27.2C26.7,26.4,26.3,26,26.3,25.5
		C26.3,25.5,26.3,25.5,26.3,25.5L26.3,25.5z M57,30.9c0,0.5-0.4,0.9-0.9,0.9l0,0H32.6c-0.5,0-0.9-0.4-0.9-0.9s0.4-0.9,0.9-0.9h23.5
		C56.6,30,57,30.4,57,30.9C57,30.9,57,30.9,57,30.9z M57,59.8c0,0.5-0.4,0.9-0.9,0.9l0,0h-9.9c-0.5,0-0.9-0.4-0.9-0.9
		s0.4-0.9,0.9-0.9h9.9C56.6,58.8,57,59.3,57,59.8C57,59.8,57,59.8,57,59.8L57,59.8z M34.4,56.1c0,0.5-0.4,0.9-0.9,0.9l0,0h-6.3
		c-0.5,0-0.9-0.4-0.9-0.9s0.4-0.9,0.9-0.9h6.3C34,55.2,34.4,55.6,34.4,56.1C34.4,56.1,34.4,56.1,34.4,56.1z M42.5,56.1
		c0,0.5-0.4,0.9-0.9,0.9l0,0h-4.5c-0.5,0-0.9-0.4-0.9-0.9s0.4-0.9,0.9-0.9h4.5C42.1,55.2,42.5,55.6,42.5,56.1
		C42.5,56.1,42.5,56.1,42.5,56.1z M57,63.4c0,0.5-0.4,0.9-0.9,0.9l0,0h-4.5c-0.5,0-0.9-0.4-0.9-0.9c0-0.5,0.4-0.9,0.9-0.9h4.5
		C56.6,62.5,57,62.9,57,63.4C57,63.4,57,63.4,57,63.4L57,63.4z M40.5,39.5c-0.2-0.4-0.7-0.6-1.2-0.4c-0.2,0.1-0.3,0.2-0.4,0.4
		l-3.5,7.2c-0.2,0.4,0,1,0.4,1.2c0.4,0.2,1,0,1.2-0.4l1.1-2.2h3.2l1.1,2.2c0.2,0.5,0.8,0.6,1.2,0.4c0.5-0.2,0.6-0.8,0.4-1.2
		L40.5,39.5z M39,43.5l0.7-1.5l0.7,1.5H39z M48,41.7c0.5,0,0.9,0.4,0.9,0.9s-0.4,0.9-0.9,0.9h-0.9v0.9c0,0.5-0.4,0.9-0.9,0.9
		c-0.5,0-0.9-0.4-0.9-0.9v-0.9h-0.9c-0.5,0-0.9-0.4-0.9-0.9s0.4-0.9,0.9-0.9h0.9v-0.9c0-0.5,0.4-0.9,0.9-0.9c0.5,0,0.9,0.4,0.9,0.9
		v0.9H48z M57,34.5c0-0.5-0.4-0.9-0.9-0.9l0,0H46c-2.8-1.2-5.9-1.2-8.7,0H27.2c-0.5,0-0.9,0.4-0.9,0.9s0.4,0.9,0.9,0.9h7.3
		c-0.6,0.5-1.2,1.1-1.6,1.8h-5.6c-0.5,0-0.9,0.4-0.9,0.9s0.4,0.9,0.9,0.9h4.6c-0.3,0.6-0.5,1.2-0.6,1.8h-4c-0.5,0-0.9,0.4-0.9,0.9
		s0.4,0.9,0.9,0.9h3.6c0,0.3,0,0.6,0,0.9s0,0.6,0,0.9h-3.6c-0.5,0-0.9,0.4-0.9,0.9s0.4,0.9,0.9,0.9h4c0.2,0.6,0.4,1.2,0.6,1.8h-4.6
		c-0.5,0-0.9,0.4-0.9,0.9s0.4,0.9,0.9,0.9h5.4c0.1,0,0.1,0,0.2,0c0.5,0.7,1,1.3,1.7,1.8h-7.3c-0.5,0-0.9,0.4-0.9,0.9
		s0.4,0.9,0.9,0.9h9.9c0.1,0,0.1,0,0.2,0c2.8,1.2,5.9,1.2,8.7,0c0.1,0,0.1,0,0.2,0h8.1c0.5,0,0.9-0.4,0.9-0.9s-0.4-0.9-0.9-0.9l0,0
		h-5.5c0.6-0.5,1.2-1.1,1.6-1.8h5.6c0.5,0,0.9-0.4,0.9-0.9S56.6,48,56.1,48h-4.6c0.3-0.6,0.5-1.2,0.6-1.8h4c0.5,0,0.9-0.4,0.9-0.9
		s-0.4-0.9-0.9-0.9h-3.6c0-0.3,0-0.6,0-0.9s0-0.6,0-0.9h3.6c0.5,0,0.9-0.4,0.9-0.9s-0.4-0.9-0.9-0.9h-4c-0.2-0.6-0.4-1.2-0.6-1.8
		h4.6c0.5,0,0.9-0.4,0.9-0.9s-0.4-0.9-0.9-0.9l0,0h-5.4c-0.1,0-0.1,0-0.2,0c-0.5-0.7-1-1.3-1.7-1.8h7.3C56.6,35.4,57,35,57,34.5
		C57,34.5,57,34.5,57,34.5L57,34.5z M50.7,43.5c0,5-4,9-9,9s-9-4-9-9s4-9,9-9l0,0C46.6,34.5,50.7,38.5,50.7,43.5L50.7,43.5
		L50.7,43.5z"/>
</g>
</svg>
