<svg xmlns="http://www.w3.org/2000/svg" xmlns:xlink="http://www.w3.org/1999/xlink" width="102" height="103" viewBox="0 0 102 103">
  <defs>
    <filter id="Ellipse_77" x="0" y="0" width="102" height="103" filterUnits="userSpaceOnUse">
      <feOffset input="SourceAlpha"/>
      <feGaussianBlur stdDeviation="3" result="blur"/>
      <feFlood flood-opacity="0.302"/>
      <feComposite operator="in" in2="blur"/>
      <feComposite in="SourceGraphic"/>
    </filter>
  </defs>
  <g id="Group_806" data-name="Group 806" transform="translate(-495 -2210)">
    <g id="Group_482" data-name="Group 482" transform="translate(503.554 2219.374)">
      <g transform="matrix(1, 0, 0, 1, -8.55, -9.37)" filter="url(#Ellipse_77)">
        <ellipse id="Ellipse_77-2" data-name="Ellipse 77" cx="42" cy="42.5" rx="42" ry="42.5" transform="translate(9 9)" fill="#f8c154"/>
      </g>
      <path id="grade" d="M111.595,16H80.9a.9.9,0,0,0-.9.9V69.26a.9.9,0,0,0,.9.9h37.914a.9.9,0,0,0,.9-.9V24.124a.9.9,0,0,0-.264-.638l-7.222-7.222A.9.9,0,0,0,111.595,16Zm.9,3.082,4.14,4.14H112.5ZM81.805,68.357V17.805h28.887v6.319a.9.9,0,0,0,.9.9h6.319v43.33Zm2.708-46.038a.9.9,0,0,1,.9-.9h9.93a.9.9,0,0,1,0,1.805h-9.93A.9.9,0,0,1,84.514,22.319Zm0,3.611a.9.9,0,0,1,.9-.9H98.957a.9.9,0,1,1,0,1.805H85.416A.9.9,0,0,1,84.514,25.93Zm30.692,5.416a.9.9,0,0,1-.9.9H90.832a.9.9,0,1,1,0-1.805H114.3A.9.9,0,0,1,115.205,31.346Zm0,28.887a.9.9,0,0,1-.9.9h-9.93a.9.9,0,0,1,0-1.805h9.93A.9.9,0,0,1,115.205,60.232ZM92.638,56.622a.9.9,0,0,1-.9.9H85.416a.9.9,0,0,1,0-1.805h6.319A.9.9,0,0,1,92.638,56.622Zm8.124,0a.9.9,0,0,1-.9.9H95.346a.9.9,0,0,1,0-1.805h4.514A.9.9,0,0,1,100.762,56.622Zm14.443,7.222a.9.9,0,0,1-.9.9h-4.514a.9.9,0,1,1,0-1.805H114.3A.9.9,0,0,1,115.205,63.843ZM98.729,39.982a.9.9,0,0,0-1.627,0L93.63,47.2a.9.9,0,0,0,1.627.782l1.056-2.2h3.2l1.056,2.2A.9.9,0,1,0,102.2,47.2Zm-1.548,4,.734-1.527.734,1.527Zm9-1.805a.9.9,0,1,1,0,1.805h-.9v.9a.9.9,0,0,1-1.805,0v-.9h-.9a.9.9,0,1,1,0-1.805h.9v-.9a.9.9,0,1,1,1.805,0v.9Zm9.027-7.222a.9.9,0,0,0-.9-.9H104.186a10.821,10.821,0,0,0-8.654,0H85.416a.9.9,0,0,0,0,1.805H92.7a10.921,10.921,0,0,0-1.636,1.805H85.416a.9.9,0,0,0,0,1.805h4.6a10.748,10.748,0,0,0-.643,1.805H85.416a.9.9,0,1,0,0,1.805h3.649c-.025.3-.038.6-.038.9s.013.6.038.9H85.416a.9.9,0,1,0,0,1.805H89.37a10.748,10.748,0,0,0,.643,1.805h-4.6a.9.9,0,1,0,0,1.805h5.416a.9.9,0,0,0,.214-.027A10.919,10.919,0,0,0,92.7,52.108H85.416a.9.9,0,0,0,0,1.805h9.93A.9.9,0,0,0,95.5,53.9a10.821,10.821,0,0,0,8.718,0,.905.905,0,0,0,.154.014H112.5a.9.9,0,0,0,0-1.805h-5.481a10.92,10.92,0,0,0,1.636-1.805H114.3a.9.9,0,1,0,0-1.805h-4.6a10.75,10.75,0,0,0,.643-1.805H114.3a.9.9,0,1,0,0-1.805h-3.649c.025-.3.038-.6.038-.9s-.013-.6-.038-.9H114.3a.9.9,0,1,0,0-1.805h-3.954a10.747,10.747,0,0,0-.643-1.805h4.6a.9.9,0,1,0,0-1.805h-5.416a.9.9,0,0,0-.214.027,10.92,10.92,0,0,0-1.656-1.832H114.3A.9.9,0,0,0,115.205,34.957Zm-6.319,9.027a9.027,9.027,0,1,1-9.027-9.027A9.027,9.027,0,0,1,108.887,43.984Z" transform="translate(-57.783 -0.852)" fill="#fff"/>
    </g>
  </g>
</svg>
