<svg xmlns="http://www.w3.org/2000/svg" width="27.937" height="16.721" viewBox="0 0 27.937 16.721">
  <g id="Group_1739" data-name="Group 1739" transform="translate(-15745.834 -2916.39)">
    <path id="Path_537" data-name="Path 537" d="M86.29,57.111l.432-.011.426-.031.418-.054.415-.073.4-.093.4-.113.389-.132.381-.149.372-.169.361-.183.35-.2.341-.217.327-.234.316-.248.3-.262.29-.279.279-.29.262-.3L93,53.747l.234-.327.217-.341.2-.35.183-.361L94.009,52l.149-.381.133-.389.113-.4.093-.4.073-.415.054-.417.031-.426.011-.432-.011-.429-.031-.423-.054-.417-.073-.409-.093-.4-.113-.395-.133-.389-.149-.378-.169-.369-.183-.361-.2-.347-.217-.341L93,43.746l-.248-.313-.262-.3-.279-.29-.29-.276-.3-.262-.316-.248-.327-.234-.341-.217-.35-.2-.361-.183-.372-.169L89.17,40.9l-.389-.132-.4-.113-.4-.093-.415-.073-.418-.054-.426-.031-.432-.011-.429.011-.426.031-.417.054-.412.073-.4.093-.4.113-.386.132-.381.149-.37.169-.358.183-.35.2-.339.217-.327.234-.316.248-.3.262-.291.276-.276.29-.262.3-.248.313-.231.327-.217.341-.2.347-.186.361-.166.369-.15.378-.13.389-.113.395-.093.4-.073.409-.054.417-.031.423-.011.429.011.432.031.426.054.417.073.415.093.4.113.4.13.389L78.6,52l.166.372.186.361.2.35.217.341.231.327.248.316.262.3.276.29.291.279.3.262.316.248.327.234.339.217.35.2.358.183.37.169.381.149.386.132.4.113.4.093.412.073.417.054.426.031Z" transform="translate(15679.104 2876)" fill="#ffa11c" fill-rule="evenodd"/>
    <path id="Path_538" data-name="Path 538" d="M11.21,57.111l.429-.011.426-.031.417-.054.412-.073.4-.093.4-.113.386-.132.381-.149.369-.169.358-.183.35-.2.338-.217.327-.234.316-.248.3-.262.29-.279.276-.29.262-.3.248-.316.231-.327.217-.341.2-.35.186-.361L18.9,52l.15-.381.13-.389.113-.4.093-.4.073-.415.054-.417.031-.426.011-.432-.011-.429-.031-.423-.054-.417-.073-.409-.093-.4-.113-.395-.13-.389-.15-.378-.166-.369-.186-.361-.2-.347-.217-.341-.231-.327-.248-.313-.262-.3-.276-.29-.29-.276-.3-.262-.316-.248-.327-.234-.338-.217-.35-.2-.358-.183-.369-.169-.381-.149-.386-.132-.4-.113-.4-.093-.412-.073-.417-.054-.426-.031-.429-.011-.431.011-.426.031-.418.054-.415.073-.4.093-.4.113-.389.132-.381.149-.372.169-.361.183-.35.2-.341.217-.327.234-.316.248-.3.262-.29.276-.279.29-.262.3-.248.313-.234.327-.217.341-.2.347-.183.361-.169.369-.149.378-.133.389-.113.395-.093.4-.073.409-.054.417-.031.423-.011.429.011.432.031.426.054.417L3,50.425l.093.4.113.4.133.389L3.491,52l.169.372.183.361.2.35.217.341.234.327.248.316.262.3.279.29.29.279.3.262.316.248.327.234.341.217.35.2.361.183.372.169.381.149.389.132.4.113.4.093.415.073.418.054.426.031Z" transform="translate(15743 2876)" fill="#e50020" fill-rule="evenodd"/>
    <path id="Path_539" data-name="Path 539" d="M89.824,59.277h4.442v-.454H90.208Z" transform="translate(15669 2860.32)" fill="#ffa11c" fill-rule="evenodd"/>
    <path id="Path_540" data-name="Path 540" d="M85.367,66.038h5.107v-.454h-4.84Z" transform="translate(15672.791 2854.568)" fill="#ffa11c" fill-rule="evenodd"/>
    <path id="Path_541" data-name="Path 541" d="M82.043,72.78h5.6v-.454H82.241Z" transform="translate(15675.619 2848.833)" fill="#ffa11c" fill-rule="evenodd"/>
    <path id="Path_542" data-name="Path 542" d="M79.758,79.542H85.7v-.454H79.9Z" transform="translate(15677.563 2843.082)" fill="#ffa11c" fill-rule="evenodd"/>
    <path id="Path_543" data-name="Path 543" d="M80.277,112.215h5.762v-.454h-5.9Z" transform="translate(15677.241 2815.287)" fill="#ffa11c" fill-rule="evenodd"/>
    <path id="Path_544" data-name="Path 544" d="M82.727,118.977h5.336v-.454H82.516Z" transform="translate(15675.217 2809.535)" fill="#ffa11c" fill-rule="evenodd"/>
    <path id="Path_545" data-name="Path 545" d="M86.313,125.719h4.738v-.454H86.028Z" transform="translate(15672.229 2803.8)" fill="#ffa11c" fill-rule="evenodd"/>
    <path id="Path_546" data-name="Path 546" d="M91.185,132.463H95.1v-.457H90.788Z" transform="translate(15668.18 2798.064)" fill="#ffa11c" fill-rule="evenodd"/>
    <path id="Path_547" data-name="Path 547" d="M78.417,86.284h6.145V85.83H78.5Z" transform="translate(15678.704 2837.345)" fill="#ffa11c" fill-rule="evenodd"/>
    <path id="Path_548" data-name="Path 548" d="M103.5,105.473h2.344v-.454h-2.259Z" transform="translate(15657.368 2821.022)" fill="#ffa11c" fill-rule="evenodd"/>
    <path id="Path_549" data-name="Path 549" d="M104.744,98.714H106.9v-.457h-2.073Z" transform="translate(15656.308 2826.774)" fill="#ffa11c" fill-rule="evenodd"/>
    <path id="Path_550" data-name="Path 550" d="M77.378,98.258h.609v.457h-.581Z" transform="translate(15679.588 2826.774)" fill="#ffa11c" fill-rule="evenodd"/>
    <path id="Path_551" data-name="Path 551" d="M56.272,90.526l-.039,0-.04-.006-.037-.006-.037-.006-.034-.006-.037-.006-.037-.006-.039-.006-.039-.006-.045,0-.051,0-.054,0h-.059l-.065,0-.073.006-.082.006-.056.008-.054.009-.048.017-.042.017-.04.02-.037.023-.028.028-.025.025-.017.031-.014.031-.006.034v.034l.008.037.011.037.023.037.028.037.056.054.068.042.079.037.085.031.09.028.093.031.093.034.09.037.085.048.079.059.07.071.059.088.045.107.028.127.011.152-.011.178-.02.133-.034.116-.045.107-.056.093-.065.082-.073.07-.079.062-.088.054-.09.042-.093.037-.1.028-.1.022-.1.017L55.2,92.9l-.093.006-.088,0H54.9l-.113,0h-.1l-.093,0-.085,0-.076-.006-.068-.006-.065-.009-.059-.006-.054-.011-.054-.009-.048-.014-.048-.011L54,92.814l-.045-.017L53.9,92.78l.127-.623.026.006.031.008.039.011.048.011.051.011.056.011.062.014.068.011.07.011.073.011.076.008.079.009.082,0,.082,0h.082l.082,0,.082-.017.065-.023.051-.031.039-.039.028-.04.023-.045.014-.045L55.35,92l.006-.082-.025-.07-.048-.056-.07-.048-.085-.042-.1-.042-.11-.039-.11-.045-.113-.051-.107-.059-.1-.073L54.4,91.3l-.07-.107-.051-.127-.025-.152,0-.18.014-.11.02-.1.028-.1.034-.09.045-.085.051-.073.059-.07.07-.062.082-.054.09-.045.1-.042.113-.031.127-.025.138-.02.152-.011.166,0h.1l.1,0,.088,0,.079,0,.07.006.065.006.056.006.051.006.048.006.039.008.037.006.034.006.028.006.026,0,.025.006.023,0Z" transform="translate(15699.557 2833.955)" fill="#fff" fill-rule="evenodd"/>
    <path id="Path_552" data-name="Path 552" d="M56.272,90.526h0l-.039,0-.04-.006-.037-.006-.037-.006-.034-.006-.037-.006-.037-.006-.039-.006-.039-.006-.045,0-.051,0-.054,0h-.059l-.065,0-.073.006-.082.006-.056.008-.054.009-.048.017-.042.017-.04.02-.037.023-.028.028-.025.025-.017.031-.014.031-.006.034v.034l.008.037.011.037.023.037.028.037.056.054.068.042.079.037.085.031.09.028.093.031.093.034.09.037.085.048.079.059.07.071.059.088.045.107.028.127.011.152-.011.178-.02.133-.034.116-.045.107-.056.093-.065.082-.073.07-.079.062-.088.054-.09.042-.093.037-.1.028-.1.022-.1.017L55.2,92.9l-.093.006-.088,0H54.9l-.113,0h-.1l-.093,0-.085,0-.076-.006-.068-.006-.065-.009-.059-.006-.054-.011-.054-.009-.048-.014-.048-.011L54,92.814l-.045-.017L53.9,92.78l.127-.623.026.006.031.008.039.011.048.011.051.011.056.011.062.014.068.011.07.011.073.011.076.008.079.009.082,0,.082,0h.082l.082,0,.082-.017.065-.023.051-.031.039-.039.028-.04.023-.045.014-.045L55.35,92l.006-.082-.025-.07-.048-.056-.07-.048-.085-.042-.1-.042-.11-.039-.11-.045-.113-.051-.107-.059-.1-.073L54.4,91.3l-.07-.107-.051-.127-.025-.152,0-.18.014-.11.02-.1.028-.1.034-.09.045-.085.051-.073.059-.07.07-.062.082-.054.09-.045.1-.042.113-.031.127-.025.138-.02.152-.011.166,0h.1l.1,0,.088,0,.079,0,.07.006.065.006.056.006.051.006.048.006.039.008.037.006.034.006.028.006.026,0,.025.006.023,0-.144.637" transform="translate(15699.557 2833.955)" fill="none" stroke="#fff" stroke-miterlimit="2.613" stroke-width="0.216"/>
    <path id="Path_553" data-name="Path 553" d="M71.078,85.642h.781l-.116.682h.471l-.1.637-.5-.014-.271,1.574,0,.056.014.048.028.037.037.031.051.02.056.017.062.011.068.006.062,0,.056-.006.051-.008.045-.011.037-.011.025-.008.017-.006.006,0-.1.525-.02.014-.02.012-.02.011-.02.011-.02.009-.023.008-.025.009-.025.009-.028.008-.028.006-.034.006-.034.006-.037.006-.042.006-.045.006-.048.006h-.214l-.113-.009-.1-.011-.09-.017-.076-.02-.065-.025-.054-.028-.048-.034-.037-.037-.028-.04-.02-.048-.014-.048-.009-.054,0-.059v-.062l.009-.065.009-.071Z" transform="translate(15685.419 2837.506)" fill="#fff" fill-rule="evenodd"/>
    <path id="Path_554" data-name="Path 554" d="M71.078,85.642h.781l-.116.682h.471l-.1.637-.5-.014-.271,1.574,0,.056.014.048.028.037.037.031.051.02.056.017.062.011.068.006.062,0,.056-.006.051-.008.045-.011.037-.011.025-.008.017-.006.006,0-.1.525-.02.014-.02.012-.02.011-.02.011-.02.009-.023.008-.025.009-.025.009-.028.008-.028.006-.034.006-.034.006-.037.006-.042.006-.045.006-.048.006h-.214l-.113-.009-.1-.011-.09-.017-.076-.02-.065-.025-.054-.028-.048-.034-.037-.037-.028-.04-.02-.048-.014-.048-.009-.054,0-.059v-.062l.009-.065.009-.071.539-3.077" transform="translate(15685.419 2837.506)" fill="none" stroke="#fff" stroke-miterlimit="2.613" stroke-width="0.216"/>
    <path id="Path_555" data-name="Path 555" d="M81.337,91.576l-.009.048,0,.051.006.054.011.053.02.054.023.051.031.054.034.048.04.048.042.042.045.042.051.034.051.031.056.025.056.02.056.011.073.011.071.009.073.009.073.006.073,0h.076l.073,0,.076-.006.076-.011.076-.014.079-.017.076-.025.079-.031.082-.034.079-.045.082-.048-.113.694-.045.023-.045.023-.045.017-.042.017-.042.014-.045.014-.045.011-.048.009-.051.009-.056.006-.059.006-.065.006-.073,0h-.076l-.088,0h-.093l-.138,0-.141-.014-.141-.02-.141-.034-.138-.042-.133-.054-.127-.07-.118-.082-.11-.1-.1-.116-.082-.13-.068-.149-.048-.166-.031-.189-.009-.209.014-.231.011-.09.017-.1.022-.11.031-.119.042-.121.051-.121.065-.124.079-.118.09-.113.11-.107.124-.1.141-.085.164-.07.183-.051.2-.034.228-.011.11,0,.116.011.116.02.116.028.113.042.11.051.1.068.093.079.085.1.07.113.056.13.04.149.023.169,0,.192-.02.214-.042.237-.014.172H81.108l.13-.555h1.235l.006-.071,0-.068-.006-.062-.011-.056-.02-.054-.02-.048-.028-.042-.028-.04-.034-.034-.037-.028-.042-.025-.042-.023-.045-.017-.045-.011-.048-.009-.051-.006-.054,0-.051.009-.048.011-.048.017-.048.023-.042.025-.042.031-.037.034-.037.04-.034.042-.031.045-.025.048-.026.051-.02.056-.017.056-.011.059Z" transform="translate(15676.921 2833.955)" fill="#fff" fill-rule="evenodd"/>
    <path id="Path_556" data-name="Path 556" d="M81.337,91.576h0l-.009.048,0,.051.006.054.011.053.02.054.023.051.031.054.034.048.04.048.042.042.045.042.051.034.051.031.056.025.056.02.056.011.073.011.071.009.073.009.073.006.073,0h.076l.073,0,.076-.006.076-.011.076-.014.079-.017.076-.025.079-.031.082-.034.079-.045.082-.048-.113.694-.045.023-.045.023-.045.017-.042.017-.042.014-.045.014-.045.011-.048.009-.051.009-.056.006-.059.006-.065.006-.073,0h-.076l-.088,0h-.093l-.138,0-.141-.014-.141-.02-.141-.034-.138-.042-.133-.054-.127-.07-.118-.082-.11-.1-.1-.116-.082-.13-.068-.149-.048-.166-.031-.189-.009-.209.014-.231.011-.09.017-.1.022-.11.031-.119.042-.121.051-.121.065-.124.079-.118.09-.113.11-.107.124-.1.141-.085.164-.07.183-.051.2-.034.228-.011.11,0,.116.011.116.02.116.028.113.042.11.051.1.068.093.079.085.1.07.113.056.13.04.149.023.169,0,.192-.02.214-.042.237-.014.172H81.108l.13-.555h1.235l.006-.071,0-.068-.006-.062-.011-.056-.02-.054-.02-.048-.028-.042-.028-.04-.034-.034-.037-.028-.042-.025-.042-.023-.045-.017-.045-.011-.048-.009-.051-.006-.054,0-.051.009-.048.011-.048.017-.048.023-.042.025-.042.031-.037.034-.037.04-.034.042-.031.045-.025.048-.026.051-.02.056-.017.056-.011.059-.113.584" transform="translate(15676.921 2833.955)" fill="none" stroke="#fff" stroke-miterlimit="2.613" stroke-width="0.216"/>
    <path id="Path_557" data-name="Path 557" d="M114.684,85.77l-.037-.02-.037-.017-.04-.02-.042-.02-.042-.017-.048-.017-.048-.017-.051-.017-.053-.014-.054-.011-.059-.011-.059-.009-.065-.006-.065-.006h-.209l-.073.006-.076.008-.079.014-.079.023-.079.031-.079.039-.079.051-.076.062-.073.073-.07.09-.068.1-.062.124-.059.141-.054.158-.045.18-.017.1-.011.1-.006.1,0,.1.008.1.02.09.025.085.031.085.042.076.051.073.059.065L113,87.7l.076.051.087.043.1.037.107.025.037.008.042.009.051.006.056.006.062.006h.135l.07-.006.073-.009.073-.014.07-.02.071-.023.07-.031.065-.037.059-.045.056-.051-.127.753-.017.014-.017.017-.023.02-.025.017-.031.023-.04.02-.045.02-.051.017-.065.02-.073.014-.085.011-.1.011-.11.006-.127,0-.144,0-.158-.008-.13-.014-.13-.028-.13-.042-.13-.056-.124-.068-.118-.085-.113-.1-.1-.113-.093-.127-.079-.141-.068-.158-.051-.172-.034-.189-.011-.2.006-.22.031-.234.023-.116.025-.113.028-.11.028-.1.031-.1.037-.1.037-.093.039-.088.042-.088.042-.082.048-.079.051-.073.051-.07.056-.068.056-.062.059-.059.065-.056.065-.054.068-.048.07-.045.076-.042.076-.037.079-.034.082-.031.088-.028.087-.023.09-.02.1-.017.1-.014.1-.011.1-.006.107,0,.09,0,.087.006.085.008.085.011.079.011.076.017.073.014.068.017.065.017.056.017.053.017.045.017.039.014.034.011.026.011.017.006Z" transform="translate(15650.299 2838.229)" fill="#fff" fill-rule="evenodd"/>
    <path id="Path_558" data-name="Path 558" d="M114.684,85.77h0l-.037-.02-.037-.017-.04-.02-.042-.02-.042-.017-.048-.017-.048-.017-.051-.017-.053-.014-.054-.011-.059-.011-.059-.009-.065-.006-.065-.006h-.209l-.073.006-.076.008-.079.014-.079.023-.079.031-.079.039-.079.051-.076.062-.073.073-.07.09-.068.1-.062.124-.059.141-.054.158-.045.18-.017.1-.011.1-.006.1,0,.1.008.1.02.09.025.085.031.085.042.076.051.073.059.065L113,87.7l.076.051.087.043.1.037.107.025.037.008.042.009.051.006.056.006.062.006h.135l.07-.006.073-.009.073-.014.07-.02.071-.023.07-.031.065-.037.059-.045.056-.051-.127.753-.017.014-.017.017-.023.02-.025.017-.031.023-.04.02-.045.02-.051.017-.065.02-.073.014-.085.011-.1.011-.11.006-.127,0-.144,0-.158-.008-.13-.014-.13-.028-.13-.042-.13-.056-.124-.068-.118-.085-.113-.1-.1-.113-.093-.127-.079-.141-.068-.158-.051-.172-.034-.189-.011-.2.006-.22.031-.234.023-.116.025-.113.028-.11.028-.1.031-.1.037-.1.037-.093.039-.088.042-.088.042-.082.048-.079.051-.073.051-.07.056-.068.056-.062.059-.059.065-.056.065-.054.068-.048.07-.045.076-.042.076-.037.079-.034.082-.031.088-.028.087-.023.09-.02.1-.017.1-.014.1-.011.1-.006.107,0,.09,0,.087.006.085.008.085.011.079.011.076.017.073.014.068.017.065.017.056.017.053.017.045.017.039.014.034.011.026.011.017.006-.141.781" transform="translate(15650.299 2838.229)" fill="none" stroke="#fff" stroke-miterlimit="2.613" stroke-width="0.216"/>
    <path id="Path_559" data-name="Path 559" d="M162.853,89.424h-.781l.056-.313v-.028l-.045.056-.048.051-.048.045-.051.04-.051.037-.051.031-.051.025-.054.025-.053.02-.054.014-.054.014-.056.009-.056.009-.053.006-.056,0h-.056l-.146-.011-.136-.031-.124-.048-.113-.065-.1-.082-.09-.1-.079-.1-.068-.118-.056-.127-.045-.132-.031-.138-.023-.144-.009-.144,0-.147.014-.144.025-.144.042-.166.051-.158.059-.144.07-.135.073-.127.085-.113.088-.1.093-.093.1-.082.1-.07.107-.062.107-.048.113-.04.113-.025.113-.017.116-.006.082,0,.079.009.073.014.068.02.065.023.056.025.056.031.051.031.045.034.042.037.037.037.034.037.028.037.025.037.023.034.017.034.2-1.108h.767Z" transform="translate(15609.073 2837.426)" fill="#fff" fill-rule="evenodd"/>
    <path id="Path_560" data-name="Path 560" d="M162.853,89.424h-.781l.056-.313v-.028l-.045.056-.048.051-.048.045-.051.04-.051.037-.051.031-.051.025-.054.025-.053.02-.054.014-.054.014-.056.009-.056.009-.053.006-.056,0h-.056l-.146-.011-.136-.031-.124-.048-.113-.065-.1-.082-.09-.1-.079-.1-.068-.118-.056-.127-.045-.132-.031-.138-.023-.144-.009-.144,0-.147.014-.144.025-.144.042-.166.051-.158.059-.144.07-.135.073-.127.085-.113.088-.1.093-.093.1-.082.1-.07.107-.062.107-.048.113-.04.113-.025.113-.017.116-.006.082,0,.079.009.073.014.068.02.065.023.056.025.056.031.051.031.045.034.042.037.037.037.034.037.028.037.025.037.023.034.017.034.2-1.108h.767l-.637,3.689" transform="translate(15609.073 2837.426)" fill="none" stroke="#fff" stroke-miterlimit="2.613" stroke-width="0.216"/>
    <path id="Path_561" data-name="Path 561" d="M166.749,96.422l.079-.006.073-.017.068-.02.065-.031.059-.034.056-.042.053-.048.048-.051.042-.056.039-.062.037-.065.031-.068.028-.07.022-.073.02-.076.014-.076.014-.079.009-.082v-.076l0-.079-.008-.073-.011-.07-.02-.068-.023-.065-.028-.056-.034-.054-.037-.045-.042-.039-.048-.034-.051-.023-.053-.014-.059-.006-.076.006-.07.011-.065.023-.065.028-.056.037-.056.045-.048.048-.048.054-.042.062-.04.065-.037.068-.031.073-.028.076-.023.076-.023.082-.017.082-.014.124.006.135.02.138.037.133.056.116.073.093.093.062Z" transform="translate(15603.9 2829.747)" fill="#ffa11c" fill-rule="evenodd"/>
    <path id="Path_562" data-name="Path 562" d="M38.4,92.4l-.113.626h-.711l.02-.116.014-.1.011-.079.011-.042-.04.045-.045.045-.053.042-.059.04-.068.039-.07.034-.073.034-.076.028-.082.025-.082.02-.082.017-.085.011-.082.006-.082,0-.079-.009-.076-.011-.1-.025L36.308,93l-.079-.037-.071-.042-.062-.045-.056-.051-.045-.054-.04-.056-.034-.059-.028-.062-.023-.062-.017-.062-.011-.065-.008-.065-.006-.062v-.062l.009-.11.017-.1.028-.1.037-.1.045-.09.051-.082.059-.079.068-.071.07-.065.079-.059.082-.054.085-.045.09-.039.093-.031.1-.025.1-.017h.006l.014,0,.02,0,.031,0,.034-.006.04,0,.042-.006.048-.006.048-.006.048-.006.051,0,.045-.006.045,0,.042,0,.04,0h.1l.068,0,.062,0h.062l.051,0,.04,0,.028,0H37.8l.006-.02.017-.051.014-.059.006-.054-.011-.062-.025-.056-.034-.051-.045-.042-.054-.037-.059-.025-.068-.017-.073-.006-.079,0-.085,0h-.088l-.09,0-.093.006-.09.008-.09.009-.088.011-.085.011-.082.014-.073.014-.068.014-.062.017-.051.017-.039.02-.031.017.2-.68.062-.025.062-.023.068-.02.068-.014.068-.014.073-.011.073-.011.076-.006.079-.006.082,0,.085,0h.271l.1,0,.1,0,.079.006.085.014.088.02.09.025.088.034.085.04.085.048.079.054.07.062.062.068.056.076.042.085.028.09.017.1V90.8l-.017.113Z" transform="translate(15714.933 2833.827)" fill="#fff" fill-rule="evenodd"/>
    <path id="Path_563" data-name="Path 563" d="M38.4,92.4l-.113.626h-.711l.02-.116.014-.1.011-.079.011-.042-.04.045-.045.045-.053.042-.059.04-.068.039-.07.034-.073.034-.076.028-.082.025-.082.02-.082.017-.085.011-.082.006-.082,0-.079-.009-.076-.011-.1-.025L36.308,93l-.079-.037-.071-.042-.062-.045-.056-.051-.045-.054-.04-.056-.034-.059-.028-.062-.023-.062-.017-.062-.011-.065-.008-.065-.006-.062v-.062l.009-.11.017-.1.028-.1.037-.1.045-.09.051-.082.059-.079.068-.071.07-.065.079-.059.082-.054.085-.045.09-.039.093-.031.1-.025.1-.017h.006l.014,0,.02,0,.031,0,.034-.006.04,0,.042-.006.048-.006.048-.006.048-.006.051,0,.045-.006.045,0,.042,0,.04,0h.1l.068,0,.062,0h.062l.051,0,.04,0,.028,0H37.8l.006-.02.017-.051.014-.059.006-.054-.011-.062-.025-.056-.034-.051-.045-.042-.054-.037-.059-.025-.068-.017-.073-.006-.079,0-.085,0h-.088l-.09,0-.093.006-.09.008-.09.009-.088.011-.085.011-.082.014-.073.014-.068.014-.062.017-.051.017-.039.02-.031.017.2-.68.062-.025.062-.023.068-.02.068-.014.068-.014.073-.011.073-.011.076-.006.079-.006.082,0,.085,0h.271l.1,0,.1,0,.079.006.085.014.088.02.09.025.088.034.085.04.085.048.079.054.07.062.062.068.056.076.042.085.028.09.017.1V90.8l-.017.113L38.4,92.4" transform="translate(15714.933 2833.827)" fill="none" stroke="#fff" stroke-miterlimit="2.613" stroke-width="0.216"/>
    <path id="Path_564" data-name="Path 564" d="M42.715,101.027l0-.014L42.7,101l-.017-.009-.028-.006-.031-.006-.037,0H42.5l-.045,0-.048.006-.045.006L42.32,101l-.042.006-.04.009-.034.008-.031.009-.02.006-.023.009-.031.011-.031.014-.037.017L42,101.1l-.039.02-.037.023-.039.028-.037.028-.034.034-.031.034-.028.037-.02.04-.017.045-.008.045,0,.1.014.076.028.056.037.042.042.028.048.017.045.008.045,0,.085,0,.076-.008.073-.011.065-.017.056-.02.054-.025.048-.025.042-.031.037-.028.034-.034.028-.031.023-.034.02-.034.017-.034.014-.031.009-.031.023-.082.02-.093.017-.09Z" transform="translate(15709.936 2824.461)" fill="#e50020" fill-rule="evenodd"/>
    <path id="Path_565" data-name="Path 565" d="M8.927,89.344H8.16l.64-3.7h1.334l.127,2.2.922-2.2h1.393l-.654,3.7h-.767l.485-2.767H11.61l-1.148,2.767H9.6l-.006-.116-.02-.307-.025-.437-.028-.5-.028-.5-.025-.443-.02-.322-.006-.135H9.4Z" transform="translate(15738.469 2837.506)" fill="#fff" fill-rule="evenodd"/>
    <path id="Path_566" data-name="Path 566" d="M8.927,89.344H8.16l.64-3.7h1.334l.127,2.2.922-2.2h1.393l-.654,3.7h-.767l.485-2.767H11.61l-1.148,2.767H9.6l-.006-.116-.02-.307-.025-.437-.028-.5-.028-.5-.025-.443-.02-.322-.006-.135H9.4l-.468,2.767" transform="translate(15738.469 2837.506)" fill="none" stroke="#fff" stroke-miterlimit="2.613" stroke-width="0.216"/>
    <path id="Path_567" data-name="Path 567" d="M132.211,92.4l-.116.626h-.708l.006-.116,0-.1V92.73l.006-.034-.037.042-.042.042-.051.04-.056.04-.059.037-.068.034-.07.034-.07.028-.076.023-.079.023-.079.014-.079.011-.082.006-.079,0-.076-.009-.076-.011-.1-.025-.09-.028-.079-.037-.073-.042-.062-.045-.053-.051-.045-.054-.039-.056-.034-.059-.025-.062-.023-.062-.014-.062-.011-.065-.008-.065-.006-.062v-.062l.006-.11.017-.1.025-.1.037-.1.042-.09.054-.082.059-.079.065-.071.073-.065.076-.059.082-.054.087-.045.088-.039.093-.031.093-.025.1-.017h.006l.014,0,.02,0,.028,0,.037-.006.04,0,.042-.006.045-.006.048-.006.051-.006.048,0,.048-.006.045,0,.04,0,.04,0h.1l.068,0,.065,0h.062l.054,0,.045,0,.025,0h.011l.006-.02.008-.051.008-.059.006-.054-.011-.062-.022-.056-.037-.051-.042-.042-.051-.037-.059-.025-.062-.017-.068-.006-.079,0-.085,0h-.087l-.09,0-.093.006-.09.008-.09.009-.087.011-.085.011-.082.014-.073.014-.068.014-.062.017-.051.017-.039.02-.031.017.2-.68.062-.025.065-.023.065-.02.068-.014.07-.014.071-.011.073-.011.076-.006.079-.006.082,0,.082,0h.265l.1,0,.1,0,.079.006.085.014.087.02.09.025.088.034.087.04.085.048.079.054.07.062.065.068.056.076.042.085.031.09.02.1V90.8l-.014.113Z" transform="translate(15635.116 2833.827)" fill="#fff" fill-rule="evenodd"/>
    <path id="Path_568" data-name="Path 568" d="M145.9,106.876l.017-.017.116-.626-.034-.006-.116.626.017-.017v.04l.014,0,0-.014Z" transform="translate(15621.315 2819.994)" fill="#fff" fill-rule="evenodd"/>
    <path id="Path_569" data-name="Path 569" d="M141.119,110.347h.02l-.017-.02Zm.02-.04.017.02h-.034l.017.02h.708v-.04Z" transform="translate(15625.365 2816.524)" fill="#fff"/>
    <path id="Path_570" data-name="Path 570" d="M141.147,108.218l0,.076v.1l-.006.116h.034l.006-.116.006-.1,0-.076V108.2l-.023-.021Zm.011-.043h0l0,0Zm0,0,.026.021-.025-.023Z" transform="translate(15625.349 2818.339)" fill="#fff"/>
    <path id="Path_571" data-name="Path 571" d="M134.094,108.557h0l.079.011.076.009.079,0,.082-.006.082-.011.079-.014.079-.023.079-.022.071-.028.073-.034.068-.034.059-.039.059-.039.051-.04.045-.045.037-.042-.028-.023-.037.042-.04.039-.051.039-.054.04-.059.034-.068.034-.068.034-.07.028-.073.023-.079.023-.079.014-.076.011-.082.006-.079,0-.076-.008-.073-.011Z" transform="translate(15631.341 2818.339)" fill="#fff" fill-rule="evenodd"/>
    <path id="Path_572" data-name="Path 572" d="M129.523,105.019h0l0,.062.006.062.008.068.011.065.014.062.023.065.025.065.037.059.039.059.045.054.056.054.065.045.073.045.082.037.093.028.1.025.006-.034-.1-.025-.087-.028-.076-.037-.073-.04-.059-.045-.051-.048-.045-.053-.04-.054-.031-.059-.025-.059-.023-.059-.014-.062-.011-.065-.009-.062-.006-.062,0-.062Z" transform="translate(15635.229 2821.022)" fill="#fff" fill-rule="evenodd"/>
    <path id="Path_573" data-name="Path 573" d="M130.536,97.767h0l-.1.017-.1.025-.093.031-.09.039-.087.045-.085.056-.076.059-.073.068-.068.07-.059.079-.056.085-.042.093-.037.1-.025.1-.017.107-.008.11h.039l0-.11.017-.1.025-.1.037-.1.042-.088.051-.079.059-.079.062-.07.073-.062.076-.059.079-.051.087-.045.085-.039.093-.031.09-.025.093-.017Z" transform="translate(15635.229 2827.191)" fill="#fff" fill-rule="evenodd"/>
    <path id="Path_574" data-name="Path 574" d="M136.854,97.37l-.04.006-.039,0-.045,0-.048.006-.048,0-.051.006-.048.006-.045.006-.042.006-.039,0-.037.006-.028,0-.023,0-.011,0H136.3v.034h.006l.017,0,.017,0,.028,0,.037-.006.039,0,.042-.006.045-.006.048-.006.051-.006.048,0,.048-.006.045,0,.039,0h.071V97.37Z" transform="translate(15629.461 2827.529)" fill="#fff"/>
    <path id="Path_575" data-name="Path 575" d="M140.592,97.421l.014,0,0-.017Zm-.4-.051v.039h.135l.065.006h.116l.045,0,.026,0h.011l.017-.014-.034-.006.017-.014h-.011l-.026,0-.045,0-.054-.006h-.127l-.068-.006Z" transform="translate(15626.151 2827.529)" fill="#fff"/>
    <path id="Path_576" data-name="Path 576" d="M142.806,96.368h-.037l0,.054-.008.056-.009.051-.006.02.034.006.006-.02.008-.051.008-.062.008-.054Z" transform="translate(15623.982 2828.382)" fill="#fff"/>
    <path id="Path_577" data-name="Path 577" d="M140.685,94.291v0l.065,0,.059.017.056.025.048.034.039.039.034.048.023.051.011.059h.034l-.011-.065-.022-.062-.04-.054-.045-.045-.054-.039-.062-.026-.065-.017-.071-.008v.037Z" transform="translate(15625.734 2830.18)" fill="#fff" fill-rule="evenodd"/>
    <path id="Path_578" data-name="Path 578" d="M132.583,94.393l.028.017.028-.014.037-.02.048-.017.062-.017.068-.014.073-.014.082-.014.082-.011.087-.011.09-.009.09-.009.093-.006h.262l.079,0v-.034l-.079,0-.085-.006h-.088l-.09.006-.093.006-.09.008-.09.009-.087.011-.088.011-.082.014-.073.014-.068.014-.062.017-.054.017-.042.02-.034.02.028.017Z" transform="translate(15632.626 2830.212)" fill="#fff" fill-rule="evenodd"/>
    <path id="Path_579" data-name="Path 579" d="M132.792,90.76l-.011.014-.2.68.034.006.2-.68-.011.014-.011-.034-.009,0,0,.011Z" transform="translate(15632.626 2833.152)" fill="#fff" fill-rule="evenodd"/>
    <path id="Path_580" data-name="Path 580" d="M135.236,89.842h0l-.1-.006-.1,0h-.265l-.082.006-.082,0-.079.006-.076.006-.076.011-.07.011-.07.014-.068.014-.068.02-.065.023-.062.025.011.034.062-.025.065-.023.062-.02.068-.014.07-.014.07-.011.071-.011.076-.006.079-.006.082,0h.347l.1,0h.1Z" transform="translate(15631.437 2833.94)" fill="#fff" fill-rule="evenodd"/>
    <path id="Path_581" data-name="Path 581" d="M143.352,90.847h0l.014-.116v-.107l-.02-.1-.031-.093-.045-.087-.056-.079-.068-.07-.07-.062-.082-.054-.085-.051-.09-.039-.088-.034-.093-.025-.087-.02-.088-.014-.079-.006v.034l.079.006.082.014.088.02.087.025.087.034.085.04.085.045.076.054.071.062.062.065.056.073.039.082.031.087.02.093v.107l-.014.11Z" transform="translate(15624.288 2833.891)" fill="#fff" fill-rule="evenodd"/>
    <path id="Path_582" data-name="Path 582" d="M146.687,97.75h0l.3-1.489-.034-.006-.3,1.489Z" transform="translate(15620.657 2828.477)" fill="#fff" fill-rule="evenodd"/>
    <path id="Path_583" data-name="Path 583" d="M136.525,101.012l-.006-.017-.011-.014-.02-.009-.028-.008-.031,0-.037,0h-.042l-.042,0-.045.006-.045.006-.045.006-.042.006-.042.008-.037.006-.037.009-.028.006-.02,0-.023.008-.028.009-.031.011-.037.017-.034.017-.039.02-.037.025-.037.025-.037.031-.031.031-.031.037-.025.039-.02.042-.017.045-.008.048,0,.1.014.076.023.056.034.042.042.028.048.017.048.008.048,0,.085,0,.079-.008.073-.014.065-.02.062-.023.054-.025.051-.028.045-.034.04-.031.034-.037.031-.034.025-.037.02-.034.014-.034.011-.034.009-.031.011-.079.014-.082.011-.079Z" transform="translate(15630.12 2824.476)" fill="#ffa11c" fill-rule="evenodd"/>
    <path id="Path_584" data-name="Path 584" d="M181.1,105.682l.006-.065.022-.076.04-.068.048-.059.059-.048.068-.034.073-.023.079-.009.079.009.073.023.068.034.059.048.048.059.04.068.022.076.006.065h-.085l0-.051-.017-.062-.028-.056-.037-.048-.045-.04-.054-.028-.062-.02-.065-.006-.065.006-.062.02-.053.028-.045.04-.037.048-.028.056-.017.062-.006.051Z" transform="translate(15591.353 2820.782)" fill="#fff" fill-rule="evenodd"/>
    <path id="Path_585" data-name="Path 585" d="M182.8,106.888v-.169h.155l.034,0,.031.006.023.008.02.011.014.017.011.017.006.02,0,.02,0,.025-.006.02-.009.017-.006.006h-.118l.011,0,.02,0,.017-.006.014-.006.011-.009.006-.009.006-.014v-.02l0-.014-.006-.011-.009-.006-.008-.006-.014,0-.014,0h-.116v.11Z" transform="translate(15589.907 2819.576)" fill="#fff" fill-rule="evenodd"/>
    <path id="Path_586" data-name="Path 586" d="M181.085,107.852l0,.017.009.082.022.076.04.068.048.056.059.048.068.037.073.023.079.008.079-.008.073-.023.068-.037.059-.048.048-.056.04-.068.022-.076.009-.082,0-.017h-.085l0,.017-.006.068-.017.062-.028.054-.037.048-.045.04-.054.031-.062.02-.065.006-.065-.006-.062-.02-.053-.031-.045-.04-.037-.048-.028-.054-.017-.062-.006-.068v-.017Z" transform="translate(15591.369 2818.613)" fill="#fff" fill-rule="evenodd"/>
    <path id="Path_587" data-name="Path 587" d="M182.8,107.852v.172h.071v-.141h.07l.085.141h.056l-.085-.141h.02l.02-.006.017-.006.014-.011.006-.009h-.118l-.014,0h-.07v0Z" transform="translate(15589.907 2818.613)" fill="#fff" fill-rule="evenodd"/>
    <path id="Path_588" data-name="Path 588" d="M181.082,105.7h0l.009-.082.022-.076.04-.068.048-.059.059-.048.068-.034.073-.023.079-.008.079.008.073.023.068.034.059.048.048.059.04.068.022.076.009.082-.009.082-.022.076-.04.068-.048.056-.059.048-.068.037-.073.023-.079.009-.079-.009-.073-.023-.068-.037-.059-.048-.048-.056-.04-.068-.022-.076-.009-.082m.327.155h-.07v-.341h.155l.034,0,.031.006.023.009.02.011.014.017.011.017.006.02,0,.02,0,.025-.006.02-.008.017-.011.014-.014.011-.017.006-.02.006h-.02l.085.141h-.056l-.085-.141h-.07v.141m.07-.169h0l.026-.006.02,0,.017-.006.014-.006.011-.009.006-.008.006-.014v-.02l0-.014-.006-.011-.008-.006-.009-.006-.014,0-.014,0h-.116v.113h.07m0,.341h0l.065-.006.062-.02.053-.031.045-.04.037-.048.028-.053.017-.062.006-.068-.006-.068-.017-.062-.028-.056-.037-.048-.045-.039-.053-.028-.062-.02-.065-.006-.065.006-.062.02-.053.028-.045.039-.037.048-.028.056-.017.062-.006.068.006.068.017.062.028.053.037.048.045.04.053.031.062.02.065.006" transform="translate(15591.369 2820.781)" fill="none" stroke="#fff" stroke-miterlimit="2.613" stroke-width="0.216"/>
    <path id="Path_589" data-name="Path 589" d="M148.183,93.056h.8l.285-1.6.011-.062.017-.062.017-.062.023-.062.028-.062.034-.059.037-.056.045-.053.051-.048.056-.045.065-.042.073-.034.082-.028.09-.023.1-.017.11-.006h.07L150.3,90l-.079.006-.076.008-.071.014-.068.02-.062.023-.059.028-.056.031-.054.034-.051.04-.048.039-.045.045-.045.045-.042.048-.042.054-.042.051-.04.056.085-.511h-.792Z" transform="translate(15619.355 2833.795)" fill="#fff" fill-rule="evenodd"/>
    <path id="Path_590" data-name="Path 590" d="M148.183,93.056h.8l.285-1.6.011-.062.017-.062.017-.062.023-.062.028-.062.034-.059.037-.056.045-.053.051-.048.056-.045.065-.042.073-.034.082-.028.09-.023.1-.017.11-.006h.07L150.3,90l-.079.006-.076.008-.071.014-.068.02-.062.023-.059.028-.056.031-.054.034-.051.04-.048.039-.045.045-.045.045-.042.048-.042.054-.042.051-.04.056.085-.511h-.792l-.527,3.02" transform="translate(15619.355 2833.795)" fill="none" stroke="#fff" stroke-miterlimit="2.613" stroke-width="0.216"/>
    <path id="Path_591" data-name="Path 591" d="M98.172,93.056h.81l.271-1.6.011-.062.014-.059.014-.059.02-.056.023-.056.028-.053.034-.051.039-.048.045-.042.051-.042.062-.034.068-.031.079-.026.087-.023.1-.014.11-.009h.008l.012,0,.014,0h.014l.014,0,.011,0,.009,0h0l0-.011.008-.034.011-.051.014-.062.02-.073.02-.079.026-.079.025-.079.022-.054.028-.053.028-.054.028-.048.026-.042.02-.034.014-.02.006-.009h0l-.011,0-.014,0-.02,0h-.02l-.023,0-.02,0h-.02l-.088.006-.079.008-.073.014-.068.017-.065.023-.059.028-.054.028-.051.034L99.7,90.2l-.045.042-.042.042-.042.048-.042.048-.04.054-.042.056-.042.056.1-.511H98.7Z" transform="translate(15661.898 2833.795)" fill="#fff" fill-rule="evenodd"/>
    <path id="Path_592" data-name="Path 592" d="M98.172,93.056h.81l.271-1.6.011-.062.014-.059.014-.059.02-.056.023-.056.028-.053.034-.051.039-.048.045-.042.051-.042.062-.034.068-.031.079-.026.087-.023.1-.014.11-.009h.008l.012,0,.014,0h.014l.014,0,.011,0,.009,0h0l0-.011.008-.034.011-.051.014-.062.02-.073.02-.079.026-.079.025-.079.022-.054.028-.053.028-.054.028-.048.026-.042.02-.034.014-.02.006-.009h0l-.011,0-.014,0-.02,0h-.02l-.023,0-.02,0h-.02l-.088.006-.079.008-.073.014-.068.017-.065.023-.059.028-.054.028-.051.034L99.7,90.2l-.045.042-.042.042-.042.048-.042.048-.04.054-.042.056-.042.056.1-.511H98.7l-.527,3.02" transform="translate(15661.898 2833.795)" fill="none" stroke="#fff" stroke-miterlimit="2.613" stroke-width="0.216"/>
    <path id="Path_593" data-name="Path 593" d="M181.14,128.524v-.011l.022-.073.04-.065.048-.056.059-.045.068-.034.073-.02.079-.009.079.009.073.02.068.034.059.045.048.056.04.065.022.073v.011h-.082l-.017-.059-.028-.054-.037-.048-.045-.039-.053-.031-.062-.02-.065-.006-.065.006-.062.02-.054.031-.045.039-.037.048-.028.054-.017.059Z" transform="translate(15591.32 2801.294)" fill="#ffa11c" fill-rule="evenodd"/>
    <path id="Path_594" data-name="Path 594" d="M182.956,129.646H182.8v.1h.071v-.056h.116l.014,0,.014,0,.009.006.008.006.006.011,0,.014v.014h.056l0-.025-.006-.02-.011-.017-.014-.014-.02-.011-.023-.006-.031-.006Z" transform="translate(15589.907 2800.073)" fill="#ffa11c"/>
    <path id="Path_595" data-name="Path 595" d="M181.09,130.308l-.009.062h.085l.006-.059v0Z" transform="translate(15591.37 2799.51)" fill="#ffa11c"/>
    <path id="Path_596" data-name="Path 596" d="M183.04,130.308v.006l-.006.014-.006.008-.011.009-.014.006-.017.006-.02,0-.025.006h-.07v-.056H182.8v.062h.268l.011-.011.008-.014.006-.017,0-.02Z" transform="translate(15589.907 2799.51)" fill="#ffa11c"/>
    <path id="Path_597" data-name="Path 597" d="M185.8,130.308v0l.006.059h.085l-.008-.062Z" transform="translate(15587.353 2799.51)" fill="#ffa11c"/>
    <path id="Path_598" data-name="Path 598" d="M181.082,130.723v.009l.009.082.022.076.04.068.048.059.059.048.068.034.073.023.079.009.079-.009.073-.023.068-.034.059-.048.048-.059.04-.068.023-.076.008-.082v-.009h-.085v.009l-.006.068-.017.062-.028.053-.037.048-.045.04-.053.031-.062.02-.065.006-.065-.006-.062-.02L181.3,131l-.045-.04-.037-.048-.028-.053-.017-.062-.006-.068v-.009Z" transform="translate(15591.369 2799.157)" fill="#ffa11c" fill-rule="evenodd"/>
    <path id="Path_599" data-name="Path 599" d="M182.8,130.723v.164h.071v-.141h.07l.085.141h.056l-.085-.141h.02l.02-.006.017-.006.014-.011Z" transform="translate(15589.907 2799.157)" fill="#ffa11c" fill-rule="evenodd"/>
  </g>
</svg>
