<svg xmlns="http://www.w3.org/2000/svg" viewBox="0 0 50 73" width="50" height="73">
	<style>
		tspan { white-space:pre }
		.shp0 { fill: #ffffff } 
	</style>
	<path id="Path 10" class="shp0" d="M43.2 25.48L43.2 38.15C43.2 45.17 34.72 51.11 24.68 51.11C14.64 51.11 6.16 45.17 6.16 38.15L6.16 25.48L0.18 25.48L0.18 38.15C0.18 47.87 9.73 55.81 21.94 56.88L21.94 67.55L7.63 67.55L7.63 73.03L41.73 73.03L41.73 67.55L27.42 67.55L27.42 56.88C39.63 55.81 49.18 47.87 49.18 38.15L49.18 25.48L43.2 25.48ZM37.06 18.89L37.06 11.22C37.06 5.31 32.23 0.48 26.32 0.48L23.04 0.48C17.14 0.48 12.3 5.31 12.3 11.22L12.3 11.98L20.5 11.98L20.5 14.34L12.3 14.34L12.3 24.63L20.5 24.63L20.5 26.99L12.3 26.99L12.3 34.98C12.3 40.89 17.14 45.72 23.04 45.72L26.32 45.72C32.23 45.72 37.06 40.89 37.06 34.98L37.06 33.91L28.86 33.91L28.86 31.55L37.06 31.55L37.06 21.26L28.86 21.26L28.86 18.89L37.06 18.89Z" />
</svg>