<?xml version="1.0" encoding="utf-8"?>
<!-- Generator: Adobe Illustrator 24.0.2, SVG Export Plug-In . SVG Version: 6.00 Build 0)  -->
<svg version="1.1" id="Layer_1" xmlns="http://www.w3.org/2000/svg" xmlns:xlink="http://www.w3.org/1999/xlink" x="0px" y="0px"
	 viewBox="0 0 152 152" style="enable-background:new 0 0 152 152;" xml:space="preserve">
<style type="text/css">
	.st0{fill:#2FDA61;}
	.st1{fill:none;stroke:#FFFFFF;stroke-width:1.5;}
</style>
<g id="Group_909" transform="translate(-1391 -327)">
	<g transform="matrix(1, 0, 0, 1, 1391, 327)">
		<path id="Rectangle_937-2" class="st0" d="M19,9h114c5.5,0,10,4.5,10,10v114c0,5.5-4.5,10-10,10H19c-5.5,0-10-4.5-10-10V19
			C9,13.5,13.5,9,19,9z"/>
	</g>
	<g id="Group_751" transform="translate(1446 372)">
		<path id="Path_10" class="st1" d="M36.5,21.2v10.7c0,6-7.2,11-15.7,11s-15.7-5-15.7-11V21.2H0v10.7c0,8.2,8.1,15,18.5,15.9v9.1
			H6.3v4.6h28.9v-4.6H23.1v-9.1c10.4-0.9,18.5-7.6,18.5-15.9V21.2H36.5z"/>
		<path id="Path_11" class="st1" d="M31.3,15.6V9.1c0-5-4.1-9.1-9.1-9.1h-2.8c-5,0-9.1,4.1-9.1,9.1v0.6h7v2h-7v8.7h7v2h-7v6.8
			c0,5,4.1,9.1,9.1,9.1h2.8c5,0,9.1-4.1,9.1-9.1v-0.9h-7v-2h7v-8.7h-7v-2H31.3z"/>
	</g>
</g>
</svg>
