<svg xmlns="http://www.w3.org/2000/svg" width="93.477" height="23.888" viewBox="0 0 93.477 23.888">
  <g id="paypal" transform="translate(0 -187.6)">
    <path id="Path_528" data-name="Path 528" d="M355.064,221.2h-5.045a.986.986,0,0,0-.742.594L347.2,234.851a.393.393,0,0,0,.445.445h2.671a.393.393,0,0,0,.445-.445l.594-3.709a.679.679,0,0,1,.742-.594h1.632q5.119,0,5.787-4.9a3.889,3.889,0,0,0-.594-3.264,5.984,5.984,0,0,0-3.858-1.187m.593,4.9c-.3,1.78-1.632,1.78-2.967,1.78h-.89l.593-3.413c0-.148.148-.3.445-.3h.3c.89,0,1.781,0,2.226.594.3.148.3.593.3,1.335" transform="translate(-282.805 -27.368)" fill="#139ad6"/>
    <g id="Group_1737" data-name="Group 1737" transform="translate(28.043 193.832)">
      <path id="Path_529" data-name="Path 529" d="M159.064,221.2h-5.045a.986.986,0,0,0-.742.594L151.2,234.851a.393.393,0,0,0,.445.445h2.374a.986.986,0,0,0,.742-.594l.593-3.561a.679.679,0,0,1,.742-.594h1.632q5.119,0,5.787-4.9a3.889,3.889,0,0,0-.594-3.264,5.7,5.7,0,0,0-3.858-1.187m.593,4.9c-.3,1.78-1.632,1.78-2.968,1.78h-.742l.594-3.413c0-.148.148-.3.445-.3h.3c.89,0,1.781,0,2.226.594a1.589,1.589,0,0,1,.148,1.335" transform="translate(-151.2 -221.2)" fill="#263b80"/>
      <path id="Path_530" data-name="Path 530" d="M225.417,245.5h-2.374c-.148,0-.445.148-.445.3l-.148.742-.148-.3a3.49,3.49,0,0,0-2.819-1.039,5.7,5.7,0,0,0-5.49,4.9,4.423,4.423,0,0,0,.89,3.709A3.739,3.739,0,0,0,218,254.993a4.743,4.743,0,0,0,3.413-1.335l-.148.742a.393.393,0,0,0,.445.445h2.226a.986.986,0,0,0,.742-.594l1.335-8.309c-.148-.148-.445-.445-.593-.445M222,250.245a2.87,2.87,0,0,1-2.819,2.374,2.373,2.373,0,0,1-1.632-.593,3.164,3.164,0,0,1-.445-1.781,2.647,2.647,0,0,1,4.3-1.78,2.59,2.59,0,0,1,.594,1.78" transform="translate(-202.27 -240.749)" fill="#263b80"/>
    </g>
    <path id="Path_531" data-name="Path 531" d="M420.617,245.5h-2.374c-.148,0-.445.148-.445.3l-.148.742-.148-.3a3.49,3.49,0,0,0-2.819-1.039,5.7,5.7,0,0,0-5.49,4.9,4.423,4.423,0,0,0,.89,3.709,3.739,3.739,0,0,0,3.116,1.187,4.743,4.743,0,0,0,3.413-1.335l-.148.742a.393.393,0,0,0,.445.445h2.226a.986.986,0,0,0,.742-.594l1.335-8.309c-.148-.148-.3-.445-.593-.445m-3.413,4.748a2.87,2.87,0,0,1-2.819,2.374,2.372,2.372,0,0,1-1.632-.593,3.164,3.164,0,0,1-.445-1.781,2.646,2.646,0,0,1,4.3-1.78,1.7,1.7,0,0,1,.594,1.78" transform="translate(-333.224 -46.917)" fill="#139ad6"/>
    <path id="Path_532" data-name="Path 532" d="M295.425,246.8H292.9a.771.771,0,0,0-.594.3l-3.264,5.045-1.484-4.748a.685.685,0,0,0-.742-.445h-2.374c-.3,0-.445.3-.445.593l2.671,7.864-2.522,3.561c-.148.3,0,.742.3.742h2.374a.771.771,0,0,0,.594-.3l8.161-11.722c.445-.445.148-.89-.148-.89" transform="translate(-231.327 -48.22)" fill="#263b80"/>
    <path id="Path_533" data-name="Path 533" d="M477.277,222.041,475.2,235.395a.393.393,0,0,0,.445.445h2.077a.986.986,0,0,0,.742-.594l2.077-13.057a.393.393,0,0,0-.445-.445h-2.374c-.148-.148-.3,0-.445.3" transform="translate(-387.065 -27.764)" fill="#139ad6"/>
    <path id="Path_534" data-name="Path 534" d="M17.063,189.38c-1.039-1.187-2.968-1.781-5.638-1.781H4.006a1.273,1.273,0,0,0-1.039.89L0,207.927a.679.679,0,0,0,.594.742h4.6L6.38,201.4v.3a1.273,1.273,0,0,1,1.039-.89H9.644c4.3,0,7.567-1.781,8.606-6.677v-.445h0a5.182,5.182,0,0,0-1.187-4.3" transform="translate(0 0)" fill="#263b80"/>
    <path id="Path_535" data-name="Path 535" d="M38.954,220.4h0v.445c-1.039,5.045-4.3,6.677-8.606,6.677H28.122a1.273,1.273,0,0,0-1.039.89L25.6,237.463a.544.544,0,0,0,.594.594h3.858a.831.831,0,0,0,.89-.742v-.148l.742-4.6v-.3a.831.831,0,0,1,.89-.742h.594c3.709,0,6.677-1.484,7.419-5.935.3-1.781.148-3.413-.742-4.451a1.519,1.519,0,0,0-.89-.742" transform="translate(-20.852 -26.717)" fill="#139ad6"/>
    <path id="Path_536" data-name="Path 536" d="M45.083,216.045c-.148,0-.3-.148-.445-.148a.545.545,0,0,1-.445-.148,7.839,7.839,0,0,0-1.929-.148H36.477a.545.545,0,0,0-.445.148.816.816,0,0,0-.445.742L34.4,224.206v.3a1.273,1.273,0,0,1,1.039-.89h2.226c4.3,0,7.567-1.781,8.606-6.677a.545.545,0,0,1,.148-.445c-.3-.148-.445-.3-.742-.3-.445-.148-.445-.148-.593-.148" transform="translate(-28.02 -22.807)" fill="#232c65"/>
  </g>
</svg>
