<svg xmlns="http://www.w3.org/2000/svg" viewBox="0 0 73 60" width="73" height="60">
	<style>
		tspan { white-space:pre }
		.shp0 { fill: #ffffff } 
	</style>
	<path id="Path 35" class="shp0" d="M66.61 51.56L66.61 0L64.65 0.16C56.76 0.82 49.02 2.7 41.71 5.75L38.25 7.19L38.25 58.54L40.77 57.5C48.33 54.35 56.33 52.4 64.49 51.73L66.61 51.56ZM73.06 7.62L69.19 7.62L69.19 52.74C69.19 53.41 68.68 53.98 68.01 54.03L64.71 54.3C63.75 54.38 62.8 54.48 61.86 54.59C61.55 54.63 61.24 54.68 60.94 54.72C60.3 54.81 59.66 54.9 59.03 55C58.66 55.05 58.29 55.12 57.92 55.19C57.35 55.29 56.78 55.39 56.22 55.5C55.83 55.58 55.44 55.66 55.05 55.75C54.51 55.86 53.97 55.98 53.43 56.11C53.03 56.2 52.63 56.3 52.23 56.41C51.71 56.53 51.19 56.67 50.67 56.82C50.27 56.93 49.86 57.05 49.46 57.16C48.94 57.32 48.44 57.47 47.93 57.63C47.53 57.76 47.13 57.89 46.73 58.02C46.22 58.19 45.71 58.37 45.21 58.55C44.82 58.69 44.44 58.83 44.04 58.98C43.86 59.05 43.69 59.12 43.51 59.19L73.06 59.19L73.06 7.62ZM9.28 0.16L7.31 0L7.31 51.56L9.6 51.75C17.75 52.44 25.75 54.39 33.3 57.55L35.67 58.54L35.67 7.19L32.21 5.76C24.91 2.7 17.17 0.82 9.28 0.16L9.28 0.16ZM0.87 7.62L0.87 59.19L30.43 59.19C30.28 59.13 30.12 59.06 29.96 59C29.59 58.86 29.22 58.73 28.84 58.59C28.32 58.4 27.8 58.21 27.27 58.04C26.89 57.91 26.51 57.78 26.12 57.66C25.6 57.49 25.07 57.33 24.55 57.18C24.16 57.06 23.78 56.95 23.39 56.84C22.86 56.69 22.33 56.56 21.8 56.42C21.41 56.32 21.02 56.22 20.63 56.13C20.09 56 19.54 55.88 19 55.76C18.61 55.68 18.23 55.6 17.84 55.52C17.28 55.41 16.71 55.31 16.15 55.21C15.78 55.14 15.41 55.08 15.04 55.01C14.41 54.91 13.79 54.83 13.16 54.75C12.85 54.7 12.53 54.65 12.22 54.62C11.27 54.5 10.33 54.41 9.38 54.33L5.91 54.03C5.24 53.97 4.73 53.41 4.73 52.74L4.73 7.62L0.87 7.62Z" />
</svg>