<?xml version="1.0" encoding="utf-8"?>
<!-- Generator: Adobe Illustrator 24.0.2, SVG Export Plug-In . SVG Version: 6.00 Build 0)  -->
<svg version="1.1" id="Layer_1" xmlns="http://www.w3.org/2000/svg" xmlns:xlink="http://www.w3.org/1999/xlink" x="0px" y="0px"
	 viewBox="0 0 686 152" style="enable-background:new 0 0 686 152;" xml:space="preserve">
<style type="text/css">
	.st0{fill:#185D92;}
	.st1{fill:#FFFFFF;}
</style>
<g id="Group_912" transform="translate(-198 -713)">
	<g transform="matrix(1, 0, 0, 1, 198, 713)">
		<path id="Rectangle_937-2" class="st0" d="M19,9h648c5.5,0,10,4.5,10,10v114c0,5.5-4.5,10-10,10H19c-5.5,0-10-4.5-10-10V19
			C9,13.5,13.5,9,19,9z"/>
	</g>
	<g id="Group_780" transform="translate(-12429 -432)">
		<g id="Group_778" transform="translate(12939 1190)">
			<path id="Path_230" class="st1" d="M56.8,0H5.2C2.3,0,0,2.3,0,5.2v39.3c0,2.9,2.3,5.2,5.2,5.2h19.6v6.2h-6.2
				c-1.7,0-3.1,1.4-3.1,3.1V61c0,0.6,0.5,1,1,1h0h28.9c0.6,0,1-0.5,1-1c0,0,0,0,0,0v-2.1c0-1.7-1.4-3.1-3.1-3.1h-6.2v-6.2h19.6
				c2.9,0,5.2-2.3,5.2-5.2V5.2C62,2.3,59.7,0,56.8,0z M43.4,57.9c0.6,0,1,0.5,1,1v1H17.6v-1c0-0.6,0.5-1,1-1h0H43.4z M26.9,55.8
				v-6.2h8.3v6.2H26.9z M59.9,44.4c0,1.7-1.4,3.1-3.1,3.1H5.2c-1.7,0-3.1-1.4-3.1-3.1v-3.1h57.9V44.4z M59.9,39.3H2.1V5.2
				c0-1.7,1.4-3.1,3.1-3.1h51.7c1.7,0,3.1,1.4,3.1,3.1V39.3z"/>
			<path id="Path_231" class="st1" d="M53.7,43.4h2.1v2.1h-2.1V43.4z"/>
			<path id="Path_232" class="st1" d="M49.6,43.4h2.1v2.1h-2.1V43.4z"/>
			<path id="Path_233" class="st1" d="M32,6.2H7.2c-0.6,0-1,0.5-1,1l0,0v26.9c0,0.6,0.5,1,1,1h0H32c0.6,0,1-0.5,1-1c0,0,0,0,0,0V7.2
				C33.1,6.7,32.6,6.2,32,6.2C32,6.2,32,6.2,32,6.2z M26.9,33.1H12.4V30c0-2.9,2.3-5.2,5.2-5.2l0,0h4.1c2.9,0,5.2,2.3,5.2,5.2V33.1z
				 M21.6,16.6l2.2,0.7v2.4c0,1.7-1.4,3.1-3.1,3.1h-2.1c-1.7,0-3.1-1.4-3.1-3.1v-2.2L21.6,16.6z M15.5,15.3c0.1-1.6,1.4-2.9,3.1-2.9
				h2.1c1.5,0,2.9,1.2,3.1,2.7L22,14.5c-0.2,0-0.3-0.1-0.5,0L15.5,15.3z M31,33.1h-2.1V30c0-3-1.8-5.6-4.6-6.7
				c0.9-1,1.5-2.3,1.5-3.6v-4.1c0-2.9-2.3-5.2-5.2-5.2h-2.1c-2.9,0-5.2,2.3-5.2,5.2v4.1c0,1.3,0.5,2.6,1.5,3.6
				c-2.8,1.1-4.6,3.8-4.6,6.7v3.1H8.3V8.3H31V33.1z"/>
			<path id="Path_234" class="st1" d="M36.2,35.1h18.6c0.6,0,1-0.5,1-1c0,0,0,0,0,0V30c0-0.6-0.5-1-1-1c0,0,0,0,0,0H36.2
				c-0.6,0-1,0.5-1,1v4.1C35.1,34.7,35.6,35.1,36.2,35.1C36.2,35.1,36.2,35.1,36.2,35.1z M37.2,31h16.5v2.1H37.2L37.2,31z"/>
			<path id="Path_235" class="st1" d="M35.1,6.2h4.1v2.1h-4.1V6.2z"/>
			<path id="Path_236" class="st1" d="M41.3,6.2h14.5v2.1H41.3V6.2z"/>
			<path id="Path_237" class="st1" d="M35.1,12.4h4.1v2.1h-4.1V12.4z"/>
			<path id="Path_238" class="st1" d="M41.3,12.4h14.5v2.1H41.3V12.4z"/>
			<path id="Path_239" class="st1" d="M35.1,18.6h4.1v2.1h-4.1V18.6z"/>
			<path id="Path_240" class="st1" d="M41.3,18.6h14.5v2.1H41.3V18.6z"/>
			<path id="Path_241" class="st1" d="M35.1,24.8h4.1v2.1h-4.1V24.8z"/>
			<path id="Path_242" class="st1" d="M41.3,24.8h14.5v2.1H41.3V24.8z"/>
		</g>
	</g>
</g>
</svg>
