<svg xmlns="http://www.w3.org/2000/svg" viewBox="0 0 106 106"><defs><style>.cls-1{fill:#11e6e6;}.cls-2{fill:#fff;}</style></defs><g id="Layer_2" data-name="Layer 2"><g id="Layer_1-2" data-name="Layer 1"><g id="Group_1399" data-name="Group 1399"><circle id="Ellipse_146-2" data-name="Ellipse 146-2" class="cls-1" cx="53" cy="53" r="53"/><path id="grade" class="cls-2" d="M68.31,17.36H27.92a1.2,1.2,0,0,0-1.19,1.19h0v68.9a1.19,1.19,0,0,0,1.19,1.19H77.81A1.19,1.19,0,0,0,79,87.45h0V28.05a1.18,1.18,0,0,0-.35-.84l-9.5-9.5A1.19,1.19,0,0,0,68.31,17.36Zm1.19,4.06,5.44,5.45H69.5ZM29.11,86.26V19.74h38v8.31a1.19,1.19,0,0,0,1.19,1.19h8.32v57Zm3.56-60.58a1.2,1.2,0,0,1,1.19-1.19H46.93a1.19,1.19,0,0,1,0,2.38H33.86a1.19,1.19,0,0,1-1.19-1.19Zm0,4.75a1.19,1.19,0,0,1,1.19-1.18H51.68a1.19,1.19,0,1,1,0,2.37H33.86a1.19,1.19,0,0,1-1.19-1.19Zm40.39,7.13a1.19,1.19,0,0,1-1.19,1.19H41a1.19,1.19,0,0,1,0-2.38H71.87a1.19,1.19,0,0,1,1.19,1.19Zm0,38a1.19,1.19,0,0,1-1.19,1.19H58.81a1.19,1.19,0,1,1,0-2.37H71.87a1.18,1.18,0,0,1,1.19,1.18Zm-29.7-4.75A1.19,1.19,0,0,1,42.17,72H33.86a1.19,1.19,0,0,1,0-2.38h8.32a1.18,1.18,0,0,1,1.18,1.19Zm10.69,0A1.18,1.18,0,0,1,52.87,72H46.93a1.19,1.19,0,0,1,0-2.38h5.93a1.19,1.19,0,0,1,1.19,1.19Zm19,9.5a1.19,1.19,0,0,1-1.19,1.19H65.93a1.19,1.19,0,0,1,0-2.38h5.94a1.19,1.19,0,0,1,1.19,1.19ZM51.38,48.92a1.19,1.19,0,0,0-1.59-.55,1.13,1.13,0,0,0-.55.55l-4.57,9.5a1.19,1.19,0,0,0,2.14,1l1.39-2.89h4.22l1.39,2.89a1.19,1.19,0,0,0,2.14-1Zm-2,5.27,1-2,1,2Zm11.84-2.38a1.19,1.19,0,1,1,0,2.38H60v1.18a1.19,1.19,0,0,1-2.37,0h0V54.19H56.43a1.19,1.19,0,0,1,0-2.38h1.19V50.63a1.19,1.19,0,0,1,2.38,0h0v1.18Zm11.88-9.5a1.19,1.19,0,0,0-1.19-1.19H58.56a14.28,14.28,0,0,0-11.39,0H33.86a1.19,1.19,0,1,0,0,2.38h9.59a14.62,14.62,0,0,0-2.15,2.37H33.86a1.19,1.19,0,1,0,0,2.38h6a14.35,14.35,0,0,0-.85,2.38h-5.2a1.19,1.19,0,0,0,0,2.37h4.8c0,.39,0,.79,0,1.19s0,.8,0,1.19h-4.8a1.19,1.19,0,0,0,0,2.37h5.2a14,14,0,0,0,.85,2.38h-6a1.19,1.19,0,0,0,0,2.38H41a1.35,1.35,0,0,0,.28,0,13.86,13.86,0,0,0,2.18,2.41H33.86a1.19,1.19,0,0,0,0,2.38H46.93l.2,0a14.22,14.22,0,0,0,11.47,0l.2,0H69.49a1.19,1.19,0,1,0,0-2.38H62.28a14.67,14.67,0,0,0,2.15-2.37h7.44a1.19,1.19,0,0,0,0-2.38H65.82a13.22,13.22,0,0,0,.85-2.38h5.2a1.19,1.19,0,1,0,0-2.37h-4.8c0-.39.05-.79.05-1.19s0-.8-.05-1.19h4.8a1.19,1.19,0,1,0,0-2.37h-5.2a13.5,13.5,0,0,0-.85-2.38h6.05a1.19,1.19,0,1,0,0-2.37H64.75a1.43,1.43,0,0,0-.29,0,14.23,14.23,0,0,0-2.18-2.41h9.59a1.19,1.19,0,0,0,1.19-1.19ZM64.74,54.19A11.88,11.88,0,1,1,52.86,42.31h0A11.89,11.89,0,0,1,64.75,54.19Z"/></g></g></g></svg>