<?xml version="1.0" encoding="utf-8"?>
<!-- Generator: Adobe Illustrator 24.0.2, SVG Export Plug-In . SVG Version: 6.00 Build 0)  -->
<svg version="1.1" id="Layer_1" xmlns="http://www.w3.org/2000/svg" xmlns:xlink="http://www.w3.org/1999/xlink" x="0px" y="0px"
	 viewBox="0 0 103 103" style="enable-background:new 0 0 103 103;" xml:space="preserve">
<style type="text/css">
	.st0{fill:#185D92;}
	.st1{fill:#FFFFFF;}
</style>
<g id="Component_4_1" transform="translate(9 9)">
	<g transform="matrix(1, 0, 0, 1, -9, -9)">
		<circle id="Ellipse_82-2" class="st0" cx="51.5" cy="51.5" r="42.5"/>
	</g>
	<g id="analysis_1_" transform="translate(19.524 19.978)">
		<path id="Path_54" class="st1" d="M35.8,0c-5.5,0-9.9,4.4-9.9,9.9c0,4.3,2.8,8.1,6.8,9.4v8.9c0,1.7,1.3,3.1,3,3.1
			c1.7,0,3.1-1.3,3.1-3c0,0,0-0.1,0-0.1v-8.9c5.2-1.7,8-7.3,6.4-12.4C43.8,2.8,40,0,35.8,0z M35.8,29.7c-0.8,0-1.5-0.7-1.5-1.5v-5.3
			h3v5.3C37.3,29,36.6,29.7,35.8,29.7z M37.3,21.3h-3v-1.7c1,0.2,2,0.2,3,0V21.3z M35.8,18.3c-4.6,0-8.4-3.7-8.4-8.4
			c0-4.6,3.7-8.4,8.4-8.4c4.6,0,8.4,3.7,8.4,8.4C44.1,14.5,40.4,18.3,35.8,18.3L35.8,18.3z"/>
		<path id="Path_55" class="st1" d="M36.1,6.1c0.7,0,1.2,0.5,1.2,1.2c0,0.4-0.2,0.8-0.5,1l-1.4,0.9C35.1,9.4,35,9.6,35,9.9v1.5h1.5
			v-1.1l1.1-0.7c1.3-0.8,1.6-2.5,0.8-3.8C37.8,5,37,4.6,36.1,4.6h-0.6c-1.5,0-2.7,1.2-2.7,2.7h1.5c0-0.7,0.5-1.2,1.2-1.2H36.1z"/>
		<path id="Path_56" class="st1" d="M35,12.9h1.5v1.5H35V12.9z"/>
		<path id="Path_57" class="st1" d="M37.3,32.7v6.8H12.2c-0.4,0-0.8,0.3-0.8,0.8l0,0v0.8c0,1.7-1.4,3-3.1,3c-1.6,0-3-1.3-3-3V35H3.8
			v6.1c0,2.5,2,4.6,4.6,4.6H38c2.9,0,5.3-2.4,5.3-5.3c0-0.4-0.3-0.8-0.8-0.8h0h-3.8v-6.8H37.3z M38,44.1H11.8c0.8-0.8,1.2-1.9,1.2-3
			h28.8C41.4,42.8,39.8,44.1,38,44.1z"/>
		<path id="Path_58" class="st1" d="M0.8,1.5c1.7,0,3,1.4,3,3v22.1h1.5V4.6c0-1.1-0.4-2.2-1.2-3h24.7V0H0.8C0.3,0,0,0.4,0,0.8
			C0,1.2,0.4,1.5,0.8,1.5z"/>
		<path id="Path_59" class="st1" d="M30.4,18.6l-4.7,7.3c-0.2,0-0.3-0.1-0.5-0.1c-0.5,0-1,0.2-1.4,0.5l-7.7-4.6
			c0.3-1.2-0.5-2.4-1.8-2.7s-2.4,0.5-2.7,1.8c0,0.2,0,0.3,0,0.5c0,0.3,0.1,0.7,0.2,1l-6.9,6.9l0,0c-0.3-0.2-0.7-0.2-1-0.2
			c-1.3,0-2.3,1-2.3,2.3c0,1.3,1,2.3,2.3,2.3s2.3-1,2.3-2.3c0-0.3-0.1-0.7-0.2-1l0,0l6.9-6.9c0.8,0.4,1.7,0.3,2.4-0.3l7.7,4.6
			c-0.3,1.2,0.5,2.4,1.8,2.7c1.2,0.3,2.4-0.5,2.7-1.8c0-0.2,0.1-0.3,0-0.5c0-0.5-0.2-1-0.5-1.4l4.7-7.3L30.4,18.6z M3.8,31.9
			c-0.4,0-0.8-0.3-0.8-0.8c0-0.4,0.3-0.8,0.8-0.8c0.4,0,0.8,0.3,0.8,0.8C4.6,31.6,4.2,31.9,3.8,31.9z M13.7,22.1
			c-0.4,0-0.8-0.3-0.8-0.8c0-0.4,0.3-0.8,0.8-0.8c0.4,0,0.8,0.3,0.8,0.8l0,0C14.5,21.7,14.1,22.1,13.7,22.1
			C13.7,22.1,13.7,22.1,13.7,22.1L13.7,22.1z M25.1,28.9c-0.4,0-0.8-0.3-0.8-0.8c0-0.4,0.3-0.8,0.8-0.8s0.8,0.3,0.8,0.8c0,0,0,0,0,0
			C25.9,28.6,25.5,28.9,25.1,28.9L25.1,28.9z"/>
		<path id="Path_60" class="st1" d="M8.4,6.1h15.2v1.5H8.4V6.1z"/>
		<path id="Path_61" class="st1" d="M8.4,9.9h15.2v1.5H8.4V9.9z"/>
		<path id="Path_62" class="st1" d="M8.4,13.7h15.2v1.5H8.4V13.7z"/>
		<path id="Path_63" class="st1" d="M8.4,33.5h25.9V35H8.4V33.5z"/>
		<path id="Path_64" class="st1" d="M35.8,2.3v1.5c3.4,0,6.1,2.7,6.1,6.1S39.1,16,35.8,16c0,0,0,0,0,0v1.5c4.2,0.1,7.7-3.3,7.7-7.5
			c0.1-4.2-3.3-7.7-7.5-7.7C35.9,2.3,35.8,2.3,35.8,2.3z"/>
		<path id="Path_65" class="st1" d="M10.6,36.5h3V38h-3V36.5z"/>
		<path id="Path_66" class="st1" d="M19.8,36.5h3V38h-3V36.5z"/>
		<path id="Path_67" class="st1" d="M28.9,36.5h3V38h-3V36.5z"/>
	</g>
</g>
</svg>
