<svg xmlns="http://www.w3.org/2000/svg" viewBox="0 0 61 57" width="61" height="57">
	<style>
		tspan { white-space:pre }
		.shp0 { fill: #ffffff } 
	</style>
	<path id="teacher" fill-rule="evenodd" class="shp0" d="M39.24 48.06L39.24 52.77L45.14 52.77L45.14 56.31L15.62 56.31L15.62 52.77L21.53 52.77L21.53 48.06L0.16 48.06L0.16 4.7L21.01 4.7C23.15 1.85 26.56 0 30.38 0C34.21 0 37.62 1.85 39.75 4.7L60.61 4.7L60.61 48.06L39.24 48.06ZM42.08 19.12C42.08 20.81 43.46 22.18 45.14 22.18L45.14 25.72L38.76 25.72C38.76 25.72 38.76 25.73 38.75 25.73C44.02 25.91 48.25 30.25 48.25 35.56L48.25 37.44L57.07 37.44L57.07 8.24L41.56 8.24C41.9 9.34 42.08 10.5 42.08 11.7L42.08 19.12ZM16.05 35.56L16.05 37.44L44.71 37.44L44.71 35.56C44.71 32.09 41.89 29.26 38.42 29.26L36.05 29.26C35.96 32.31 33.45 34.77 30.38 34.77C27.31 34.77 24.81 32.31 24.72 29.26L22.35 29.26C18.88 29.26 16.05 32.09 16.05 35.56ZM38.54 13.47L35.05 13.47C33.21 13.47 31.56 12.7 30.38 11.46C29.21 12.7 27.56 13.47 25.72 13.47L22.23 13.47L22.23 17.57C22.23 22.06 25.89 25.72 30.38 25.72C34.88 25.72 38.54 22.06 38.54 17.57L38.54 13.47ZM28.27 29.26C28.35 30.36 29.27 31.22 30.38 31.22C31.5 31.22 32.42 30.36 32.5 29.26L28.27 29.26ZM22.43 9.93L25.72 9.93C27.32 9.93 28.61 8.63 28.61 7.04L32.16 7.04C32.16 8.63 33.45 9.93 35.05 9.93L38.34 9.93C37.53 6.28 34.27 3.54 30.38 3.54C26.5 3.54 23.24 6.28 22.43 9.93ZM18.69 11.7C18.69 10.5 18.87 9.34 19.21 8.24L3.7 8.24L3.7 37.44L12.51 37.44L12.51 35.56C12.51 30.24 16.75 25.91 22.02 25.73C22.01 25.73 22.01 25.72 22.01 25.72L15.63 25.72L15.63 22.18C17.31 22.18 18.69 20.8 18.69 19.12L18.69 11.7ZM3.7 44.52L57.07 44.52L57.07 40.98L3.7 40.98L3.7 44.52ZM35.7 48.06L25.07 48.06L25.07 52.77L35.7 52.77L35.7 48.06Z" />
</svg>