<svg id="visa" xmlns="http://www.w3.org/2000/svg" width="51.666" height="16.721" viewBox="0 0 51.666 16.721">
  <path id="polygon9" d="M437.692,126.913h-4.185l2.618-16.186h4.185Z" transform="translate(-415.304 -110.433)" fill="#00579f"/>
  <path id="path11" d="M577.733,105.737a10.314,10.314,0,0,0-3.754-.689c-4.133,0-7.043,2.2-7.061,5.355-.034,2.325,2.084,3.616,3.668,4.391,1.619.792,2.17,1.309,2.17,2.015-.016,1.084-1.308,1.584-2.513,1.584a8.331,8.331,0,0,1-3.927-.861l-.551-.259-.586,3.633a12.738,12.738,0,0,0,4.668.861c4.392,0,7.25-2.17,7.284-5.528.017-1.843-1.1-3.254-3.513-4.408-1.464-.741-2.36-1.24-2.36-2,.017-.689.758-1.394,2.411-1.394a7.111,7.111,0,0,1,3.118.62l.378.172.569-3.5Z" transform="translate(-540.173 -105.048)" fill="#00579f"/>
  <path id="path13" d="M797,121.179c.345-.93,1.671-4.529,1.671-4.529-.017.035.344-.947.551-1.55l.293,1.395s.792,3.874.965,4.684Zm5.166-10.452h-3.237a2.065,2.065,0,0,0-2.188,1.343l-6.217,14.843h4.391l.878-2.428h5.374c.12.568.5,2.428.5,2.428h3.875l-3.376-16.186h0Z" transform="translate(-753.875 -110.433)" fill="#00579f"/>
  <path id="path15" d="M176.169,110.727l-4.1,11.037-.448-2.239a12.389,12.389,0,0,0-5.786-6.785L169.59,126.9h4.426l6.578-16.169Z" transform="translate(-161.461 -110.433)" fill="#00579f"/>
  <path id="path17" d="M87.968,110.727H81.235l-.069.327c5.253,1.343,8.731,4.581,10.161,8.473l-1.464-7.439a1.732,1.732,0,0,0-1.894-1.361Z" transform="translate(-81.166 -110.433)" fill="#faa61a"/>
</svg>
