<?xml version="1.0" encoding="utf-8"?>
<!-- Generator: Adobe Illustrator 24.0.2, SVG Export Plug-In . SVG Version: 6.00 Build 0)  -->
<svg version="1.1" id="Layer_1" xmlns="http://www.w3.org/2000/svg" xmlns:xlink="http://www.w3.org/1999/xlink" x="0px" y="0px"
	 viewBox="0 0 102 103" style="enable-background:new 0 0 102 103;" xml:space="preserve">
<style type="text/css">
	.st0{fill:#E8342B;}
	.st1{fill:#FFFFFF;}
</style>
<g id="Component_5_1" transform="translate(9 9)">
	<g transform="matrix(1, 0, 0, 1, -9, -9)">
		<ellipse id="Ellipse_85-2" class="st0" cx="51" cy="51.5" rx="42" ry="42.5"/>
	</g>
	<g id="vocabulary" transform="translate(21.699 17.312)">
		<g id="Group_452" transform="translate(0)">
			<path id="Path_70" class="st1" d="M38.4,0H3.2C1.4,0,0,1.4,0,3.2v46.1c0,1.8,1.4,3.2,3.2,3.2h35.2c1.7,0,3.2-1.4,3.2-3.2V3.2
				C41.5,1.4,40.1,0,38.4,0z M38.5,49.3C38.5,49.4,38.4,49.4,38.5,49.3L38.5,49.3L3.2,49.4c-0.1,0-0.1,0-0.1-0.1V33.9h35.4V49.3z
				 M38.5,30.9H3.1V3.2c0-0.1,0-0.1,0.1-0.1h35.2c0.1,0,0.1,0,0.1,0.1c0,0,0,0,0,0V30.9z"/>
		</g>
		<g id="Group_454" transform="translate(7.255 37.585)">
			<path id="Path_71" class="st1" d="M9.5,0h-8C0.7,0,0,0.7,0,1.5s0.7,1.5,1.5,1.5h8c0.8,0,1.5-0.7,1.5-1.5S10.4,0,9.5,0z"/>
		</g>
		<g id="Group_456" transform="translate(7.255 42.485)">
			<path id="Path_72" class="st1" d="M15.7,0H1.5C0.7,0,0,0.7,0,1.5s0.7,1.5,1.5,1.5h14.2c0.8,0,1.5-0.7,1.5-1.5S16.6,0,15.7,0
				L15.7,0L15.7,0z"/>
		</g>
		<g id="Group_458" transform="translate(27.263 42.485)">
			<path id="Path_73" class="st1" d="M5.4,0H1.5C0.7,0,0,0.7,0,1.5s0.7,1.5,1.5,1.5l0,0h3.8c0.8,0,1.5-0.7,1.5-1.5S6.2,0,5.4,0z"/>
		</g>
		<g id="Group_460" transform="translate(7.571 7.796)">
			<path id="Path_74" class="st1" d="M14.7,16.8L9.9,1.3C9.8,0.9,9.4,0.5,9,0.3c-1.1-0.5-2.3-0.5-3.3,0c-0.4,0.2-0.8,0.5-0.9,1
				L0.1,16.8C0,16.9,0,17,0,17.1c0,0.5,0.4,0.9,0.8,1.1c0.5,0.3,1.1,0.5,1.7,0.5c0.7,0,1.2-0.2,1.3-0.7l0.9-3.2H10l0.9,3.2
				c0.1,0.5,0.6,0.7,1.3,0.7c0.6,0,1.2-0.2,1.7-0.5c0.5-0.2,0.8-0.6,0.8-1.1C14.7,17,14.7,16.9,14.7,16.8z M5.5,11.7l1.9-6.8
				l1.8,6.8H5.5z"/>
		</g>
		<g id="Group_462" transform="translate(22.848 14.256)">
			<path id="Path_75" class="st1" d="M9.3,1.4C8.1,0.4,6.6-0.1,5,0C4,0,3,0.2,2.1,0.6C1.1,1,0.7,1.5,0.7,2C0.7,2.5,0.8,3,1,3.4
				C1.2,3.8,1.6,4,2,4c0.3-0.1,0.7-0.3,1-0.5c0.6-0.3,1.3-0.5,2-0.5C5.5,3,6,3.2,6.4,3.6C6.7,4,6.9,4.5,6.8,5v0.3H5.9
				c-1.5-0.1-3,0.2-4.4,0.8C0.5,6.7-0.1,7.8,0,9c-0.1,1,0.3,1.9,0.9,2.6c0.6,0.6,1.5,0.9,2.3,0.9c1.5-0.1,3-0.9,3.9-2.1v0.6
				c0,0.4,0.2,0.7,0.5,0.9c0.4,0.3,0.8,0.4,1.2,0.4c0.5,0,1-0.1,1.4-0.4c0.3-0.2,0.5-0.5,0.5-0.9V5C10.8,3.7,10.3,2.4,9.3,1.4z
				 M6.2,8.8C5.9,9.2,5.4,9.4,4.9,9.4C4.5,9.5,4,9.2,4,8.7c0-0.1,0-0.2,0-0.2c0-0.3,0.2-0.7,0.4-0.8c0.3-0.2,0.6-0.3,1-0.4
				c0.5-0.1,0.9-0.1,1.4-0.1h0.1v0.1l0,0C6.8,7.8,6.6,8.4,6.2,8.8L6.2,8.8z"/>
		</g>
	</g>
</g>
</svg>
