<svg xmlns="http://www.w3.org/2000/svg" xmlns:xlink="http://www.w3.org/1999/xlink" width="118" height="118" viewBox="0 0 118 118">
  <defs>
    <filter id="Ellipse_87" x="0" y="0" width="118" height="118" filterUnits="userSpaceOnUse">
      <feOffset input="SourceAlpha"/>
      <feGaussianBlur stdDeviation="3" result="blur"/>
      <feFlood flood-opacity="0.302"/>
      <feComposite operator="in" in2="blur"/>
      <feComposite in="SourceGraphic"/>
    </filter>
  </defs>
  <g id="Group_1718" data-name="Group 1718" transform="translate(-710 -841)">
    <g transform="matrix(1, 0, 0, 1, 710, 841)" filter="url(#Ellipse_87)">
      <circle id="Ellipse_87-2" data-name="Ellipse 87" cx="50" cy="50" r="50" transform="translate(9 9)" fill="#eb524a"/>
    </g>
    <g id="grade" transform="translate(698 875)">
      <path id="Path_408" data-name="Path 408" d="M90.8,10.243,80.987.431A1.472,1.472,0,0,0,79.946,0H52.472A1.472,1.472,0,0,0,51,1.472v47.3a1.472,1.472,0,0,0,1.472,1.472H89.759a1.472,1.472,0,0,0,1.472-1.472V11.284A1.472,1.472,0,0,0,90.8,10.243ZM81.418,5.025l4.787,4.787H81.418ZM53.944,47.3V2.944H78.475v8.34a1.472,1.472,0,0,0,1.472,1.472h8.34V47.3Z" transform="translate(0 0)" fill="#fff"/>
      <path id="Path_409" data-name="Path 409" d="M264.247,420H252.472a1.472,1.472,0,1,0,0,2.944h11.775a1.472,1.472,0,1,0,0-2.944Z" transform="translate(-180.375 -378.788)" fill="#fff"/>
      <path id="Path_410" data-name="Path 410" d="M264.247,360H252.472a1.472,1.472,0,1,0,0,2.944h11.775a1.472,1.472,0,1,0,0-2.944Z" transform="translate(-180.375 -324.676)" fill="#fff"/>
      <path id="Path_411" data-name="Path 411" d="M262.472,150.4h.981v.981a1.472,1.472,0,1,0,2.944,0V150.4h.981a1.472,1.472,0,1,0,0-2.944H266.4v-.981a1.472,1.472,0,1,0-2.944,0v.981h-.981a1.472,1.472,0,1,0,0,2.944Z" transform="translate(-189.394 -130.772)" fill="#fff"/>
      <path id="Path_412" data-name="Path 412" d="M129.464,145.671l-5.477-14.512-.016-.04A1.8,1.8,0,0,0,122.3,130h0a1.8,1.8,0,0,0-1.669,1.122l-.013.033-5.527,14.511a1.472,1.472,0,1,0,2.751,1.048l1.015-2.666h6.848l1,2.662a1.472,1.472,0,0,0,2.754-1.039Zm-9.486-4.566,2.319-6.088,2.3,6.088Z" transform="translate(-57.715 -117.244)" fill="#fff"/>
    </g>
  </g>
</svg>
