<svg xmlns="http://www.w3.org/2000/svg" xmlns:xlink="http://www.w3.org/1999/xlink" width="118" height="118" viewBox="0 0 118 118">
  <defs>
    <filter id="Ellipse_87" x="0" y="0" width="118" height="118" filterUnits="userSpaceOnUse">
      <feOffset input="SourceAlpha"/>
      <feGaussianBlur stdDeviation="3" result="blur"/>
      <feFlood flood-opacity="0.302"/>
      <feComposite operator="in" in2="blur"/>
      <feComposite in="SourceGraphic"/>
    </filter>
  </defs>
  <g id="Group_1720" data-name="Group 1720" transform="translate(-902 -1247)">
    <g id="Group_1719" data-name="Group 1719">
      <g transform="matrix(1, 0, 0, 1, 902, 1247)" filter="url(#Ellipse_87)">
        <circle id="Ellipse_87-2" data-name="Ellipse 87" cx="50" cy="50" r="50" transform="translate(9 9)" fill="#ec935f"/>
      </g>
      <g id="Group_1533" data-name="Group 1533" transform="translate(1673 2604)">
        <g id="book" transform="translate(-720.796 -1305.125)">
          <path id="Path_35" data-name="Path 35" d="M239.192,13.073V0l-.5.042a19.184,19.184,0,0,0-5.815,1.417L232,1.824V14.845l.639-.266a19.957,19.957,0,0,1,6.015-1.463Zm0,0" transform="translate(-222.519)" fill="#fff"/>
          <path id="Path_36" data-name="Path 36" d="M272.133,47.3h-.981V58.739a.327.327,0,0,1-.3.327l-.837.069q-.363.03-.723.074c-.078.009-.155.022-.233.033-.162.022-.323.043-.484.069-.094.015-.187.033-.281.049-.144.025-.289.05-.432.079-.1.02-.2.042-.3.063-.137.029-.274.059-.41.091-.1.024-.2.05-.305.076-.132.033-.264.068-.4.1-.1.028-.2.058-.307.088-.131.039-.26.078-.389.119l-.3.1q-.194.065-.386.135l-.3.109-.134.053h7.493Zm0,0" transform="translate(-253.826 -45.364)" fill="#fff"/>
          <path id="Path_37" data-name="Path 37" d="M40.5.042,40,0V13.074l.58.049a19.823,19.823,0,0,1,6.009,1.471l.6.251V1.824l-.877-.364A19.184,19.184,0,0,0,40.5.042Zm0,0" transform="translate(-38.365)" fill="#fff"/>
          <path id="Path_38" data-name="Path 38" d="M0,47.3V60.373H7.5l-.121-.048c-.094-.036-.188-.07-.282-.1-.133-.048-.265-.1-.4-.14l-.291-.1q-.2-.065-.4-.123l-.294-.085c-.134-.037-.269-.072-.4-.107-.1-.025-.2-.05-.3-.074-.137-.033-.275-.063-.412-.092-.1-.021-.2-.043-.294-.062-.143-.028-.286-.053-.429-.078l-.282-.049c-.158-.025-.317-.046-.475-.068-.08-.011-.16-.023-.24-.033q-.36-.044-.719-.074l-.88-.075a.327.327,0,0,1-.3-.327V47.3Zm0,0" transform="translate(0 -45.364)" fill="#fff"/>
        </g>
        <g id="Group_1532" data-name="Group 1532" transform="translate(-735 -1321)">
          <g id="Group_1531" data-name="Group 1531">
            <path id="Path_407" data-name="Path 407" d="M45.267,21.9H40.813A17.534,17.534,0,0,0,24.824,5.914V1.46a1.46,1.46,0,1,0-2.92,0V5.914A17.536,17.536,0,0,0,5.914,21.9H1.46a1.46,1.46,0,1,0,0,2.92H5.914A17.534,17.534,0,0,0,21.9,40.813v4.454a1.46,1.46,0,0,0,2.92,0V40.813A17.534,17.534,0,0,0,40.813,24.824h4.454a1.46,1.46,0,1,0,0-2.92Zm-21.9,16.062a14.6,14.6,0,1,1,14.6-14.6A14.619,14.619,0,0,1,23.364,37.966Z" fill="#fff"/>
          </g>
        </g>
      </g>
    </g>
  </g>
</svg>
